<ttFont>
<head>
    <!-- Most of this table will be recalculated by the compiler -->
    <tableVersion value="1.0"/>
    <fontRevision value="1.106"/>
    <checkSumAdjustment value="0x74f84fbb"/>
    <magicNumber value="0x5f0f3cf5"/>
    <flags value="00000000 00000001"/>
    <unitsPerEm value="1000"/>
    <created value="Mon Sep 16 15:12:29 2019"/>
    <modified value="Mon Sep 16 15:22:46 2019"/>
    <xMin value="-181"/>
    <yMin value="-327"/>
    <xMax value="1971"/>
    <yMax value="1305"/>
    <macStyle value="00000000 00000000"/>
    <lowestRecPPEM value="6"/>
    <fontDirectionHint value="2"/>
    <indexToLocFormat value="0"/>
    <glyphDataFormat value="0"/>
  </head>
    <TTGlyph name=".notdef" xMin="-1" yMin="-180" xMax="449" yMax="720">
      <contour>
        <pt x="-1" y="-180" on="1"/>
        <pt x="-1" y="720" on="1"/>
        <pt x="449" y="720" on="1"/>
        <pt x="449" y="-180" on="1"/>
      </contour>
      <contour>
        <pt x="224" y="324" on="1"/>
        <pt x="385" y="675" on="1"/>
        <pt x="63" y="675" on="1"/>
      </contour>
      <contour>
        <pt x="44" y="-68" on="1"/>
        <pt x="199" y="270" on="1"/>
        <pt x="44" y="608" on="1"/>
      </contour>
      <contour>
        <pt x="404" y="-68" on="1"/>
        <pt x="404" y="608" on="1"/>
        <pt x="249" y="270" on="1"/>
      </contour>
      <contour>
        <pt x="63" y="-135" on="1"/>
        <pt x="385" y="-135" on="1"/>
        <pt x="224" y="216" on="1"/>
      </contour>
    </TTGlyph>
    <TTGlyph name="A" xMin="47" yMin="0" xMax="791" yMax="700">
      <contour>
        <pt x="47" y="0" on="1"/>
        <pt x="329" y="700" on="1"/>
        <pt x="510" y="700" on="1"/>
        <pt x="791" y="0" on="1"/>
        <pt x="682" y="0" on="1"/>
        <pt x="606" y="189" on="1"/>
        <pt x="230" y="189" on="1"/>
        <pt x="154" y="0" on="1"/>
      </contour>
      <contour>
        <pt x="396" y="602" on="1"/>
        <pt x="267" y="281" on="1"/>
        <pt x="569" y="281" on="1"/>
        <pt x="441" y="602" on="1"/>
      </contour>
    </TTGlyph>
    <TTGlyph name="A.sc" xMin="51" yMin="0" xMax="697" yMax="582">
      <component glyphName="a.sc" x="0" y="0" flags="0x204"/>
    </TTGlyph>
    <TTGlyph name="AE" xMin="34" yMin="0" xMax="1218" yMax="700">
      <contour>
        <pt x="630" y="0" on="1"/>
        <pt x="630" y="189" on="1"/>
        <pt x="278" y="189" on="1"/>
        <pt x="156" y="0" on="1"/>
        <pt x="34" y="0" on="1"/>
        <pt x="492" y="700" on="1"/>
        <pt x="1197" y="700" on="1"/>
        <pt x="1201" y="606" on="1"/>
        <pt x="733" y="606" on="1"/>
        <pt x="733" y="409" on="1"/>
        <pt x="1118" y="409" on="1"/>
        <pt x="1118" y="315" on="1"/>
        <pt x="733" y="315" on="1"/>
        <pt x="733" y="94" on="1"/>
        <pt x="1218" y="94" on="1"/>
        <pt x="1213" y="0" on="1"/>
      </contour>
      <contour>
        <pt x="547" y="602" on="1"/>
        <pt x="337" y="281" on="1"/>
        <pt x="630" y="281" on="1"/>
        <pt x="630" y="602" on="1"/>
      </contour>
    </TTGlyph>
    <TTGlyph name="AE.sc" xMin="32" yMin="0" xMax="1040" yMax="582">
      <component glyphName="ae.sc" x="0" y="0" flags="0x204"/>
    </TTGlyph>
    <TTGlyph name="AEacute" xMin="34" yMin="0" xMax="1218" yMax="962">
      <component glyphName="AE" x="0" y="0" flags="0x204"/>
      <component glyphName="acute" x="504" y="168" flags="0x4"/>
    </TTGlyph>
    <TTGlyph name="AEacute.sc" xMin="32" yMin="0" xMax="1040" yMax="844">
      <component glyphName="aeacute.sc" x="0" y="0" flags="0x204"/>
    </TTGlyph>
    <TTGlyph name="Aacute" xMin="47" yMin="0" xMax="791" yMax="962">
      <component glyphName="A" x="0" y="0" flags="0x204"/>
      <component glyphName="acute" x="228" y="168" flags="0x4"/>
    </TTGlyph>
    <TTGlyph name="Aacute.sc" xMin="51" yMin="0" xMax="697" yMax="844">
      <component glyphName="aacute.sc" x="0" y="0" flags="0x204"/>
    </TTGlyph>
    <TTGlyph name="Abreve" xMin="47" yMin="0" xMax="791" yMax="979">
      <component glyphName="A" x="0" y="0" flags="0x204"/>
      <component glyphName="breve" x="170" y="168" flags="0x4"/>
    </TTGlyph>
    <TTGlyph name="Abreve.sc" xMin="51" yMin="0" xMax="697" yMax="861">
      <component glyphName="abreve.sc" x="0" y="0" flags="0x204"/>
    </TTGlyph>
    <TTGlyph name="Acircumflex" xMin="47" yMin="0" xMax="791" yMax="972">
      <component glyphName="A" x="0" y="0" flags="0x204"/>
      <component glyphName="circumflex" x="170" y="168" flags="0x4"/>
    </TTGlyph>
    <TTGlyph name="Acircumflex.sc" xMin="51" yMin="0" xMax="697" yMax="854">
      <component glyphName="acircumflex.sc" x="0" y="0" flags="0x204"/>
    </TTGlyph>
    <TTGlyph name="Adieresis" xMin="47" yMin="0" xMax="791" yMax="913">
      <component glyphName="A" x="0" y="0" flags="0x204"/>
      <component glyphName="dieresis" x="170" y="168" flags="0x4"/>
    </TTGlyph>
    <TTGlyph name="Adieresis.sc" xMin="51" yMin="0" xMax="697" yMax="795">
      <component glyphName="adieresis.sc" x="0" y="0" flags="0x204"/>
    </TTGlyph>
    <TTGlyph name="Agrave" xMin="47" yMin="0" xMax="791" yMax="962">
      <component glyphName="A" x="0" y="0" flags="0x204"/>
      <component glyphName="grave" x="113" y="168" flags="0x4"/>
    </TTGlyph>
    <TTGlyph name="Agrave.sc" xMin="51" yMin="0" xMax="697" yMax="844">
      <component glyphName="agrave.sc" x="0" y="0" flags="0x204"/>
    </TTGlyph>
    <TTGlyph name="Amacron" xMin="47" yMin="0" xMax="791" yMax="891">
      <component glyphName="A" x="0" y="0" flags="0x204"/>
      <component glyphName="macron" x="170" y="168" flags="0x4"/>
    </TTGlyph>
    <TTGlyph name="Amacron.sc" xMin="51" yMin="0" xMax="697" yMax="773">
      <component glyphName="amacron.sc" x="0" y="0" flags="0x204"/>
    </TTGlyph>
    <TTGlyph name="Aogonek" xMin="47" yMin="-289" xMax="820" yMax="700">
      <contour>
        <pt x="47" y="0" on="1"/>
        <pt x="329" y="700" on="1"/>
        <pt x="510" y="700" on="1"/>
        <pt x="791" y="0" on="1"/>
        <pt x="734" y="-55" on="1"/>
        <pt x="692" y="-97" on="0"/>
        <pt x="659" y="-141" on="0"/>
        <pt x="659" y="-163" on="1"/>
        <pt x="659" y="-188" on="0"/>
        <pt x="699" y="-214" on="0"/>
        <pt x="733" y="-214" on="1"/>
        <pt x="752" y="-214" on="0"/>
        <pt x="798" y="-203" on="0"/>
        <pt x="820" y="-190" on="1"/>
        <pt x="820" y="-268" on="1"/>
        <pt x="794" y="-278" on="0"/>
        <pt x="745" y="-289" on="0"/>
        <pt x="714" y="-289" on="1"/>
        <pt x="630" y="-289" on="0"/>
        <pt x="567" y="-220" on="0"/>
        <pt x="567" y="-180" on="1"/>
        <pt x="567" y="-140" on="0"/>
        <pt x="620" y="-65" on="0"/>
        <pt x="671" y="-18" on="1"/>
        <pt x="684" y="-6" on="1"/>
        <pt x="606" y="189" on="1"/>
        <pt x="230" y="189" on="1"/>
        <pt x="154" y="0" on="1"/>
      </contour>
      <contour>
        <pt x="397" y="602" on="1"/>
        <pt x="267" y="281" on="1"/>
        <pt x="569" y="281" on="1"/>
        <pt x="441" y="602" on="1"/>
      </contour>
    </TTGlyph>
    <TTGlyph name="Aogonek.sc" xMin="51" yMin="-289" xMax="726" yMax="582">
      <component glyphName="aogonek.sc" x="0" y="0" flags="0x204"/>
    </TTGlyph>
    <TTGlyph name="Aring" xMin="47" yMin="0" xMax="791" yMax="1067">
      <component glyphName="A" x="0" y="0" flags="0x204"/>
      <component glyphName="ring" x="114" y="168" flags="0x4"/>
    </TTGlyph>
    <TTGlyph name="Aring.sc" xMin="51" yMin="0" xMax="697" yMax="949">
      <component glyphName="aring.sc" x="0" y="0" flags="0x204"/>
    </TTGlyph>
    <TTGlyph name="Aringacute" xMin="47" yMin="0" xMax="791" yMax="1305">
      <component glyphName="A" x="0" y="0" flags="0x204"/>
      <component glyphName="ring" x="114" y="168" flags="0x4"/>
      <component glyphName="acute" x="232" y="511" flags="0x4"/>
    </TTGlyph>
    <TTGlyph name="Aringacute.sc" xMin="51" yMin="0" xMax="697" yMax="1187">
      <component glyphName="aringacute.sc" x="0" y="0" flags="0x204"/>
    </TTGlyph>
    <TTGlyph name="Atilde" xMin="47" yMin="0" xMax="791" yMax="940">
      <component glyphName="A" x="0" y="0" flags="0x204"/>
      <component glyphName="tilde" x="170" y="168" flags="0x4"/>
    </TTGlyph>
    <TTGlyph name="Atilde.sc" xMin="51" yMin="0" xMax="697" yMax="822">
      <component glyphName="atilde.sc" x="0" y="0" flags="0x204"/>
    </TTGlyph>
    <TTGlyph name="B" xMin="117" yMin="0" xMax="741" yMax="700">
      <contour>
        <pt x="117" y="0" on="1"/>
        <pt x="117" y="700" on="1"/>
        <pt x="500" y="700" on="1"/>
        <pt x="606" y="700" on="0"/>
        <pt x="726" y="610" on="0"/>
        <pt x="726" y="525" on="1"/>
        <pt x="726" y="464" on="0"/>
        <pt x="662" y="379" on="0"/>
        <pt x="590" y="363" on="1"/>
        <pt x="665" y="341" on="0"/>
        <pt x="741" y="258" on="0"/>
        <pt x="741" y="194" on="1"/>
        <pt x="741" y="92" on="0"/>
        <pt x="601" y="0" on="0"/>
        <pt x="482" y="0" on="1"/>
      </contour>
      <contour>
        <pt x="219" y="400" on="1"/>
        <pt x="484" y="400" on="1"/>
        <pt x="554" y="400" on="0"/>
        <pt x="623" y="453" on="0"/>
        <pt x="623" y="506" on="1"/>
        <pt x="623" y="557" on="0"/>
        <pt x="553" y="608" on="0"/>
        <pt x="490" y="608" on="1"/>
        <pt x="219" y="608" on="1"/>
      </contour>
      <contour>
        <pt x="219" y="92" on="1"/>
        <pt x="485" y="93" on="1"/>
        <pt x="564" y="94" on="0"/>
        <pt x="637" y="149" on="0"/>
        <pt x="637" y="206" on="1"/>
        <pt x="637" y="257" on="0"/>
        <pt x="564" y="316" on="0"/>
        <pt x="489" y="316" on="1"/>
        <pt x="219" y="316" on="1"/>
      </contour>
    </TTGlyph>
    <TTGlyph name="B.sc" xMin="118" yMin="0" xMax="666" yMax="582">
      <component glyphName="b.sc" x="0" y="0" flags="0x204"/>
    </TTGlyph>
    <TTGlyph name="C" xMin="70" yMin="-14" xMax="720" yMax="714">
      <contour>
        <pt x="447" y="-14" on="1"/>
        <pt x="352" y="-14" on="0"/>
        <pt x="210" y="43" on="0"/>
        <pt x="117" y="140" on="0"/>
        <pt x="70" y="273" on="0"/>
        <pt x="70" y="348" on="1"/>
        <pt x="70" y="422" on="0"/>
        <pt x="122" y="556" on="0"/>
        <pt x="220" y="655" on="0"/>
        <pt x="365" y="714" on="0"/>
        <pt x="458" y="714" on="1"/>
        <pt x="543" y="714" on="0"/>
        <pt x="677" y="661" on="0"/>
        <pt x="720" y="628" on="1"/>
        <pt x="720" y="521" on="1"/>
        <pt x="719" y="521" on="1"/>
        <pt x="665" y="559" on="0"/>
        <pt x="539" y="620" on="0"/>
        <pt x="456" y="620" on="1"/>
        <pt x="391" y="620" on="0"/>
        <pt x="288" y="579" on="0"/>
        <pt x="216" y="506" on="0"/>
        <pt x="177" y="406" on="0"/>
        <pt x="177" y="348" on="1"/>
        <pt x="177" y="290" on="0"/>
        <pt x="214" y="191" on="0"/>
        <pt x="284" y="120" on="0"/>
        <pt x="388" y="80" on="0"/>
        <pt x="454" y="80" on="1"/>
        <pt x="535" y="80" on="0"/>
        <pt x="665" y="136" on="0"/>
        <pt x="719" y="177" on="1"/>
        <pt x="720" y="177" on="1"/>
        <pt x="720" y="69" on="1"/>
        <pt x="678" y="38" on="0"/>
        <pt x="537" y="-14" on="0"/>
      </contour>
    </TTGlyph>
    <TTGlyph name="C.sc" xMin="73" yMin="-14" xMax="634" yMax="595">
      <component glyphName="c.sc" x="0" y="0" flags="0x204"/>
    </TTGlyph>
    <TTGlyph name="Cacute" xMin="70" yMin="-14" xMax="720" yMax="976">
      <component glyphName="C" x="0" y="0" flags="0x204"/>
      <component glyphName="acute" x="252" y="182" flags="0x4"/>
    </TTGlyph>
    <TTGlyph name="Cacute.sc" xMin="73" yMin="-14" xMax="634" yMax="856">
      <component glyphName="cacute.sc" x="0" y="0" flags="0x204"/>
    </TTGlyph>
    <TTGlyph name="Ccaron" xMin="70" yMin="-14" xMax="720" yMax="986">
      <component glyphName="C" x="0" y="0" flags="0x204"/>
      <component glyphName="caron" x="199" y="182" flags="0x4"/>
    </TTGlyph>
    <TTGlyph name="Ccaron.sc" xMin="73" yMin="-14" xMax="634" yMax="866">
      <component glyphName="ccaron.sc" x="0" y="0" flags="0x204"/>
    </TTGlyph>
    <TTGlyph name="Ccedilla" xMin="70" yMin="-187" xMax="720" yMax="714">
      <contour>
        <pt x="720" y="69" on="1"/>
        <pt x="683" y="41" on="0"/>
        <pt x="565" y="-6" on="0"/>
        <pt x="490" y="-12" on="1"/>
        <pt x="383" y="-187" on="1"/>
        <pt x="254" y="-187" on="1"/>
        <pt x="254" y="-182" on="1"/>
        <pt x="401" y="-12" on="1"/>
        <pt x="318" y="-5" on="0"/>
        <pt x="193" y="56" on="0"/>
        <pt x="111" y="152" on="0"/>
        <pt x="70" y="278" on="0"/>
        <pt x="70" y="348" on="1"/>
        <pt x="70" y="422" on="0"/>
        <pt x="122" y="556" on="0"/>
        <pt x="220" y="655" on="0"/>
        <pt x="365" y="714" on="0"/>
        <pt x="458" y="714" on="1"/>
        <pt x="543" y="714" on="0"/>
        <pt x="677" y="661" on="0"/>
        <pt x="720" y="628" on="1"/>
        <pt x="720" y="521" on="1"/>
        <pt x="719" y="521" on="1"/>
        <pt x="665" y="559" on="0"/>
        <pt x="539" y="620" on="0"/>
        <pt x="456" y="620" on="1"/>
        <pt x="391" y="620" on="0"/>
        <pt x="288" y="579" on="0"/>
        <pt x="216" y="506" on="0"/>
        <pt x="177" y="406" on="0"/>
        <pt x="177" y="348" on="1"/>
        <pt x="177" y="290" on="0"/>
        <pt x="214" y="191" on="0"/>
        <pt x="284" y="120" on="0"/>
        <pt x="388" y="80" on="0"/>
        <pt x="454" y="80" on="1"/>
        <pt x="535" y="80" on="0"/>
        <pt x="665" y="136" on="0"/>
        <pt x="719" y="177" on="1"/>
        <pt x="720" y="177" on="1"/>
      </contour>
    </TTGlyph>
    <TTGlyph name="Ccedilla.sc" xMin="73" yMin="-187" xMax="634" yMax="595">
      <component glyphName="ccedilla.sc" x="0" y="0" flags="0x204"/>
    </TTGlyph>
    <TTGlyph name="Cdotaccent" xMin="70" yMin="-14" xMax="720" yMax="933">
      <component glyphName="C" x="0" y="0" flags="0x204"/>
      <component glyphName="dotaccent" x="200" y="182" flags="0x4"/>
    </TTGlyph>
    <TTGlyph name="Cdotaccent.sc" xMin="73" yMin="-14" xMax="634" yMax="813">
      <component glyphName="cdotaccent.sc" x="0" y="0" flags="0x204"/>
    </TTGlyph>
    <TTGlyph name="D" xMin="117" yMin="0" xMax="793" yMax="700">
      <contour>
        <pt x="117" y="0" on="1"/>
        <pt x="117" y="700" on="1"/>
        <pt x="441" y="700" on="1"/>
        <pt x="608" y="700" on="0"/>
        <pt x="793" y="514" on="0"/>
        <pt x="793" y="351" on="1"/>
        <pt x="793" y="189" on="0"/>
        <pt x="608" y="0" on="0"/>
        <pt x="441" y="0" on="1"/>
      </contour>
      <contour>
        <pt x="221" y="94" on="1"/>
        <pt x="440" y="94" on="1"/>
        <pt x="558" y="94" on="0"/>
        <pt x="686" y="224" on="0"/>
        <pt x="686" y="349" on="1"/>
        <pt x="686" y="474" on="0"/>
        <pt x="558" y="606" on="0"/>
        <pt x="440" y="606" on="1"/>
        <pt x="221" y="606" on="1"/>
      </contour>
    </TTGlyph>
    <TTGlyph name="D.sc" xMin="118" yMin="0" xMax="701" yMax="582">
      <component glyphName="d.sc" x="0" y="0" flags="0x204"/>
    </TTGlyph>
    <TTGlyph name="Dcaron" xMin="117" yMin="0" xMax="793" yMax="972">
      <component glyphName="D" x="0" y="0" flags="0x204"/>
      <component glyphName="caron" x="171" y="168" flags="0x4"/>
    </TTGlyph>
    <TTGlyph name="Dcaron.sc" xMin="118" yMin="0" xMax="701" yMax="854">
      <component glyphName="dcaron.sc" x="0" y="0" flags="0x204"/>
    </TTGlyph>
    <TTGlyph name="Dcroat" xMin="37" yMin="0" xMax="822" yMax="700">
      <component glyphName="Eth" x="0" y="0" flags="0x204"/>
    </TTGlyph>
    <TTGlyph name="Dcroat.sc" xMin="46" yMin="0" xMax="728" yMax="582">
      <component glyphName="dcroat.sc" x="0" y="0" flags="0x204"/>
    </TTGlyph>
    <TTGlyph name="E" xMin="117" yMin="0" xMax="705" yMax="700">
      <contour>
        <pt x="117" y="0" on="1"/>
        <pt x="117" y="700" on="1"/>
        <pt x="684" y="700" on="1"/>
        <pt x="688" y="606" on="1"/>
        <pt x="220" y="606" on="1"/>
        <pt x="220" y="409" on="1"/>
        <pt x="605" y="409" on="1"/>
        <pt x="605" y="315" on="1"/>
        <pt x="220" y="315" on="1"/>
        <pt x="220" y="94" on="1"/>
        <pt x="705" y="94" on="1"/>
        <pt x="700" y="0" on="1"/>
      </contour>
    </TTGlyph>
    <TTGlyph name="E.sc" xMin="118" yMin="0" xMax="629" yMax="582">
      <component glyphName="e.sc" x="0" y="0" flags="0x204"/>
    </TTGlyph>
    <TTGlyph name="Eacute" xMin="117" yMin="0" xMax="705" yMax="962">
      <component glyphName="E" x="0" y="0" flags="0x204"/>
      <component glyphName="acute" x="215" y="168" flags="0x4"/>
    </TTGlyph>
    <TTGlyph name="Eacute.sc" xMin="118" yMin="0" xMax="629" yMax="844">
      <component glyphName="eacute.sc" x="0" y="0" flags="0x204"/>
    </TTGlyph>
    <TTGlyph name="Ebreve" xMin="117" yMin="0" xMax="705" yMax="979">
      <component glyphName="E" x="0" y="0" flags="0x204"/>
      <component glyphName="breve" x="162" y="168" flags="0x4"/>
    </TTGlyph>
    <TTGlyph name="Ebreve.sc" xMin="118" yMin="0" xMax="629" yMax="861">
      <component glyphName="ebreve.sc" x="0" y="0" flags="0x204"/>
    </TTGlyph>
    <TTGlyph name="Ecaron" xMin="117" yMin="0" xMax="705" yMax="972">
      <component glyphName="E" x="0" y="0" flags="0x204"/>
      <component glyphName="caron" x="162" y="168" flags="0x4"/>
    </TTGlyph>
    <TTGlyph name="Ecaron.sc" xMin="118" yMin="0" xMax="629" yMax="854">
      <component glyphName="ecaron.sc" x="0" y="0" flags="0x204"/>
    </TTGlyph>
    <TTGlyph name="Ecircumflex" xMin="117" yMin="0" xMax="705" yMax="972">
      <component glyphName="E" x="0" y="0" flags="0x204"/>
      <component glyphName="circumflex" x="162" y="168" flags="0x4"/>
    </TTGlyph>
    <TTGlyph name="Ecircumflex.sc" xMin="118" yMin="0" xMax="629" yMax="854">
      <component glyphName="ecircumflex.sc" x="0" y="0" flags="0x204"/>
    </TTGlyph>
    <TTGlyph name="Edieresis" xMin="117" yMin="0" xMax="705" yMax="913">
      <component glyphName="E" x="0" y="0" flags="0x204"/>
      <component glyphName="dieresis" x="162" y="168" flags="0x4"/>
    </TTGlyph>
    <TTGlyph name="Edieresis.sc" xMin="118" yMin="0" xMax="629" yMax="795">
      <component glyphName="edieresis.sc" x="0" y="0" flags="0x204"/>
    </TTGlyph>
    <TTGlyph name="Edotaccent" xMin="117" yMin="0" xMax="705" yMax="919">
      <component glyphName="E" x="0" y="0" flags="0x204"/>
      <component glyphName="dotaccent" x="163" y="168" flags="0x4"/>
    </TTGlyph>
    <TTGlyph name="Edotaccent.sc" xMin="118" yMin="0" xMax="629" yMax="801">
      <component glyphName="edotaccent.sc" x="0" y="0" flags="0x204"/>
    </TTGlyph>
    <TTGlyph name="Egrave" xMin="117" yMin="0" xMax="705" yMax="962">
      <component glyphName="E" x="0" y="0" flags="0x204"/>
      <component glyphName="grave" x="110" y="168" flags="0x4"/>
    </TTGlyph>
    <TTGlyph name="Egrave.sc" xMin="118" yMin="0" xMax="629" yMax="844">
      <component glyphName="egrave.sc" x="0" y="0" flags="0x204"/>
    </TTGlyph>
    <TTGlyph name="Emacron" xMin="117" yMin="0" xMax="705" yMax="891">
      <component glyphName="E" x="0" y="0" flags="0x204"/>
      <component glyphName="macron" x="162" y="168" flags="0x4"/>
    </TTGlyph>
    <TTGlyph name="Emacron.sc" xMin="118" yMin="0" xMax="629" yMax="773">
      <component glyphName="emacron.sc" x="0" y="0" flags="0x204"/>
    </TTGlyph>
    <TTGlyph name="Eogonek" xMin="117" yMin="-289" xMax="730" yMax="700">
      <contour>
        <pt x="117" y="0" on="1"/>
        <pt x="117" y="700" on="1"/>
        <pt x="684" y="700" on="1"/>
        <pt x="688" y="606" on="1"/>
        <pt x="220" y="606" on="1"/>
        <pt x="220" y="409" on="1"/>
        <pt x="605" y="409" on="1"/>
        <pt x="605" y="315" on="1"/>
        <pt x="220" y="315" on="1"/>
        <pt x="220" y="94" on="1"/>
        <pt x="705" y="94" on="1"/>
        <pt x="700" y="1" on="1"/>
        <pt x="701" y="0" on="1"/>
        <pt x="644" y="-55" on="1"/>
        <pt x="602" y="-97" on="0"/>
        <pt x="569" y="-141" on="0"/>
        <pt x="569" y="-163" on="1"/>
        <pt x="569" y="-188" on="0"/>
        <pt x="609" y="-214" on="0"/>
        <pt x="643" y="-214" on="1"/>
        <pt x="662" y="-214" on="0"/>
        <pt x="708" y="-203" on="0"/>
        <pt x="730" y="-190" on="1"/>
        <pt x="730" y="-268" on="1"/>
        <pt x="704" y="-278" on="0"/>
        <pt x="655" y="-289" on="0"/>
        <pt x="624" y="-289" on="1"/>
        <pt x="540" y="-289" on="0"/>
        <pt x="477" y="-220" on="0"/>
        <pt x="477" y="-180" on="1"/>
        <pt x="477" y="-140" on="0"/>
        <pt x="530" y="-65" on="0"/>
        <pt x="581" y="-18" on="1"/>
        <pt x="601" y="0" on="1"/>
      </contour>
    </TTGlyph>
    <TTGlyph name="Eogonek.sc" xMin="118" yMin="-289" xMax="654" yMax="582">
      <component glyphName="eogonek.sc" x="0" y="0" flags="0x204"/>
    </TTGlyph>
    <TTGlyph name="Eth" xMin="37" yMin="0" xMax="822" yMax="700">
      <contour>
        <pt x="145" y="0" on="1"/>
        <pt x="145" y="310" on="1"/>
        <pt x="37" y="310" on="1"/>
        <pt x="44" y="391" on="1"/>
        <pt x="145" y="391" on="1"/>
        <pt x="145" y="700" on="1"/>
        <pt x="470" y="700" on="1"/>
        <pt x="637" y="700" on="0"/>
        <pt x="822" y="514" on="0"/>
        <pt x="822" y="351" on="1"/>
        <pt x="822" y="189" on="0"/>
        <pt x="637" y="0" on="0"/>
        <pt x="470" y="0" on="1"/>
      </contour>
      <contour>
        <pt x="250" y="94" on="1"/>
        <pt x="469" y="94" on="1"/>
        <pt x="587" y="94" on="0"/>
        <pt x="715" y="224" on="0"/>
        <pt x="715" y="349" on="1"/>
        <pt x="715" y="474" on="0"/>
        <pt x="587" y="606" on="0"/>
        <pt x="469" y="606" on="1"/>
        <pt x="250" y="606" on="1"/>
        <pt x="250" y="391" on="1"/>
        <pt x="480" y="391" on="1"/>
        <pt x="480" y="310" on="1"/>
        <pt x="250" y="310" on="1"/>
      </contour>
    </TTGlyph>
    <TTGlyph name="Eth.sc" xMin="46" yMin="0" xMax="728" yMax="582">
      <component glyphName="eth.sc" x="0" y="0" flags="0x204"/>
    </TTGlyph>
    <TTGlyph name="Euro" xMin="50" yMin="-12" xMax="712" yMax="712">
      <contour>
        <pt x="50" y="227" on="1"/>
        <pt x="57" y="296" on="1"/>
        <pt x="162" y="296" on="1"/>
        <pt x="161" y="307" on="0"/>
        <pt x="160" y="330" on="0"/>
        <pt x="160" y="342" on="1"/>
        <pt x="160" y="356" on="0"/>
        <pt x="162" y="385" on="0"/>
        <pt x="164" y="399" on="1"/>
        <pt x="69" y="399" on="1"/>
        <pt x="76" y="468" on="1"/>
        <pt x="179" y="468" on="1"/>
        <pt x="195" y="521" on="0"/>
        <pt x="256" y="611" on="0"/>
        <pt x="343" y="675" on="0"/>
        <pt x="456" y="712" on="0"/>
        <pt x="524" y="712" on="1"/>
        <pt x="578" y="712" on="0"/>
        <pt x="673" y="689" on="0"/>
        <pt x="712" y="668" on="1"/>
        <pt x="712" y="573" on="1"/>
        <pt x="711" y="573" on="1"/>
        <pt x="662" y="599" on="0"/>
        <pt x="570" y="625" on="0"/>
        <pt x="522" y="625" on="1"/>
        <pt x="432" y="625" on="0"/>
        <pt x="308" y="540" on="0"/>
        <pt x="280" y="468" on="1"/>
        <pt x="582" y="468" on="1"/>
        <pt x="582" y="399" on="1"/>
        <pt x="262" y="399" on="1"/>
        <pt x="260" y="386" on="0"/>
        <pt x="258" y="357" on="0"/>
        <pt x="258" y="343" on="1"/>
        <pt x="258" y="331" on="0"/>
        <pt x="260" y="307" on="0"/>
        <pt x="261" y="296" on="1"/>
        <pt x="582" y="296" on="1"/>
        <pt x="582" y="227" on="1"/>
        <pt x="278" y="227" on="1"/>
        <pt x="304" y="158" on="0"/>
        <pt x="426" y="75" on="0"/>
        <pt x="517" y="75" on="1"/>
        <pt x="566" y="75" on="0"/>
        <pt x="660" y="98" on="0"/>
        <pt x="711" y="123" on="1"/>
        <pt x="712" y="123" on="1"/>
        <pt x="712" y="28" on="1"/>
        <pt x="672" y="9" on="0"/>
        <pt x="567" y="-12" on="0"/>
        <pt x="510" y="-12" on="1"/>
        <pt x="440" y="-12" on="0"/>
        <pt x="328" y="24" on="0"/>
        <pt x="245" y="87" on="0"/>
        <pt x="189" y="176" on="0"/>
        <pt x="175" y="227" on="1"/>
      </contour>
    </TTGlyph>
    <TTGlyph name="Euro.tab" xMin="28" yMin="-12" xMax="665" yMax="712">
      <contour>
        <pt x="28" y="227" on="1"/>
        <pt x="35" y="296" on="1"/>
        <pt x="135" y="296" on="1"/>
        <pt x="134" y="307" on="0"/>
        <pt x="133" y="330" on="0"/>
        <pt x="133" y="342" on="1"/>
        <pt x="133" y="356" on="0"/>
        <pt x="135" y="385" on="0"/>
        <pt x="136" y="399" on="1"/>
        <pt x="46" y="399" on="1"/>
        <pt x="54" y="468" on="1"/>
        <pt x="151" y="468" on="1"/>
        <pt x="166" y="521" on="0"/>
        <pt x="225" y="611" on="0"/>
        <pt x="308" y="675" on="0"/>
        <pt x="419" y="712" on="0"/>
        <pt x="487" y="712" on="1"/>
        <pt x="534" y="712" on="0"/>
        <pt x="625" y="691" on="0"/>
        <pt x="665" y="672" on="1"/>
        <pt x="665" y="577" on="1"/>
        <pt x="664" y="577" on="1"/>
        <pt x="615" y="602" on="0"/>
        <pt x="522" y="625" on="0"/>
        <pt x="482" y="625" on="1"/>
        <pt x="394" y="625" on="0"/>
        <pt x="277" y="540" on="0"/>
        <pt x="252" y="468" on="1"/>
        <pt x="535" y="468" on="1"/>
        <pt x="535" y="399" on="1"/>
        <pt x="236" y="399" on="1"/>
        <pt x="234" y="386" on="0"/>
        <pt x="232" y="357" on="0"/>
        <pt x="232" y="343" on="1"/>
        <pt x="232" y="331" on="0"/>
        <pt x="234" y="307" on="0"/>
        <pt x="235" y="296" on="1"/>
        <pt x="535" y="296" on="1"/>
        <pt x="535" y="227" on="1"/>
        <pt x="250" y="227" on="1"/>
        <pt x="274" y="158" on="0"/>
        <pt x="387" y="75" on="0"/>
        <pt x="477" y="75" on="1"/>
        <pt x="518" y="75" on="0"/>
        <pt x="613" y="96" on="0"/>
        <pt x="664" y="119" on="1"/>
        <pt x="665" y="119" on="1"/>
        <pt x="665" y="24" on="1"/>
        <pt x="624" y="7" on="0"/>
        <pt x="522" y="-12" on="0"/>
        <pt x="473" y="-12" on="1"/>
        <pt x="403" y="-12" on="0"/>
        <pt x="293" y="24" on="0"/>
        <pt x="213" y="87" on="0"/>
        <pt x="160" y="176" on="0"/>
        <pt x="147" y="227" on="1"/>
      </contour>
    </TTGlyph>
    <TTGlyph name="F" xMin="117" yMin="0" xMax="685" yMax="700">
      <contour>
        <pt x="117" y="0" on="1"/>
        <pt x="117" y="700" on="1"/>
        <pt x="681" y="700" on="1"/>
        <pt x="685" y="606" on="1"/>
        <pt x="221" y="606" on="1"/>
        <pt x="221" y="390" on="1"/>
        <pt x="614" y="390" on="1"/>
        <pt x="614" y="296" on="1"/>
        <pt x="221" y="296" on="1"/>
        <pt x="221" y="0" on="1"/>
      </contour>
    </TTGlyph>
    <TTGlyph name="F.sc" xMin="118" yMin="0" xMax="607" yMax="582">
      <component glyphName="f.sc" x="0" y="0" flags="0x204"/>
    </TTGlyph>
    <TTGlyph name="G" xMin="70" yMin="-18" xMax="812" yMax="714">
      <contour>
        <pt x="446" y="-18" on="1"/>
        <pt x="358" y="-18" on="0"/>
        <pt x="218" y="36" on="0"/>
        <pt x="122" y="131" on="0"/>
        <pt x="70" y="263" on="0"/>
        <pt x="70" y="340" on="1"/>
        <pt x="70" y="417" on="0"/>
        <pt x="124" y="554" on="0"/>
        <pt x="225" y="655" on="0"/>
        <pt x="371" y="714" on="0"/>
        <pt x="463" y="714" on="1"/>
        <pt x="541" y="714" on="0"/>
        <pt x="685" y="668" on="0"/>
        <pt x="732" y="630" on="1"/>
        <pt x="732" y="523" on="1"/>
        <pt x="731" y="523" on="1"/>
        <pt x="676" y="566" on="0"/>
        <pt x="542" y="620" on="0"/>
        <pt x="462" y="620" on="1"/>
        <pt x="396" y="620" on="0"/>
        <pt x="289" y="579" on="0"/>
        <pt x="216" y="505" on="0"/>
        <pt x="177" y="402" on="0"/>
        <pt x="177" y="342" on="1"/>
        <pt x="177" y="284" on="0"/>
        <pt x="214" y="186" on="0"/>
        <pt x="284" y="116" on="0"/>
        <pt x="386" y="76" on="0"/>
        <pt x="451" y="76" on="1"/>
        <pt x="564" y="76" on="0"/>
        <pt x="703" y="193" on="0"/>
        <pt x="707" y="296" on="1"/>
        <pt x="418" y="296" on="1"/>
        <pt x="418" y="384" on="1"/>
        <pt x="811" y="384" on="1"/>
        <pt x="812" y="375" on="0"/>
        <pt x="812" y="354" on="0"/>
        <pt x="812" y="338" on="1"/>
        <pt x="812" y="247" on="0"/>
        <pt x="753" y="112" on="0"/>
        <pt x="654" y="25" on="0"/>
        <pt x="520" y="-18" on="0"/>
      </contour>
    </TTGlyph>
    <TTGlyph name="G.sc" xMin="73" yMin="-16" xMax="706" yMax="595">
      <component glyphName="g.sc" x="0" y="0" flags="0x204"/>
    </TTGlyph>
    <TTGlyph name="Gbreve" xMin="70" yMin="-18" xMax="812" yMax="993">
      <component glyphName="G" x="0" y="0" flags="0x204"/>
      <component glyphName="breve" x="190" y="182" flags="0x4"/>
    </TTGlyph>
    <TTGlyph name="Gbreve.sc" xMin="73" yMin="-16" xMax="706" yMax="873">
      <component glyphName="gbreve.sc" x="0" y="0" flags="0x204"/>
    </TTGlyph>
    <TTGlyph name="Gdotaccent" xMin="70" yMin="-18" xMax="812" yMax="933">
      <component glyphName="G" x="0" y="0" flags="0x204"/>
      <component glyphName="dotaccent" x="191" y="182" flags="0x4"/>
    </TTGlyph>
    <TTGlyph name="Gdotaccent.sc" xMin="73" yMin="-16" xMax="706" yMax="813">
      <component glyphName="gdotaccent.sc" x="0" y="0" flags="0x204"/>
    </TTGlyph>
    <TTGlyph name="H" xMin="117" yMin="0" xMax="759" yMax="700">
      <contour>
        <pt x="117" y="0" on="1"/>
        <pt x="117" y="700" on="1"/>
        <pt x="221" y="700" on="1"/>
        <pt x="221" y="410" on="1"/>
        <pt x="654" y="410" on="1"/>
        <pt x="654" y="700" on="1"/>
        <pt x="759" y="700" on="1"/>
        <pt x="759" y="0" on="1"/>
        <pt x="654" y="0" on="1"/>
        <pt x="654" y="314" on="1"/>
        <pt x="221" y="314" on="1"/>
        <pt x="221" y="0" on="1"/>
      </contour>
    </TTGlyph>
    <TTGlyph name="H.sc" xMin="118" yMin="0" xMax="682" yMax="582">
      <component glyphName="h.sc" x="0" y="0" flags="0x204"/>
    </TTGlyph>
    <TTGlyph name="Hbar" xMin="37" yMin="0" xMax="896" yMax="700">
      <contour>
        <pt x="145" y="0" on="1"/>
        <pt x="145" y="506" on="1"/>
        <pt x="37" y="506" on="1"/>
        <pt x="41" y="586" on="1"/>
        <pt x="145" y="586" on="1"/>
        <pt x="145" y="700" on="1"/>
        <pt x="250" y="700" on="1"/>
        <pt x="250" y="584" on="1"/>
        <pt x="683" y="584" on="1"/>
        <pt x="683" y="700" on="1"/>
        <pt x="787" y="700" on="1"/>
        <pt x="787" y="586" on="1"/>
        <pt x="892" y="586" on="1"/>
        <pt x="896" y="506" on="1"/>
        <pt x="787" y="506" on="1"/>
        <pt x="787" y="0" on="1"/>
        <pt x="683" y="0" on="1"/>
        <pt x="683" y="281" on="1"/>
        <pt x="250" y="281" on="1"/>
        <pt x="250" y="0" on="1"/>
      </contour>
      <contour>
        <pt x="250" y="378" on="1"/>
        <pt x="683" y="378" on="1"/>
        <pt x="683" y="509" on="1"/>
        <pt x="250" y="509" on="1"/>
      </contour>
    </TTGlyph>
    <TTGlyph name="Hbar.sc" xMin="46" yMin="0" xMax="810" yMax="582">
      <component glyphName="hbar.sc" x="0" y="0" flags="0x204"/>
    </TTGlyph>
    <TTGlyph name="I" xMin="120" yMin="0" xMax="224" yMax="700">
      <contour>
        <pt x="120" y="0" on="1"/>
        <pt x="120" y="700" on="1"/>
        <pt x="224" y="700" on="1"/>
        <pt x="224" y="0" on="1"/>
      </contour>
    </TTGlyph>
    <TTGlyph name="I.sc" xMin="121" yMin="0" xMax="221" yMax="582">
      <component glyphName="i.sc" x="0" y="0" flags="0x204"/>
    </TTGlyph>
    <TTGlyph name="Iacute" xMin="120" yMin="0" xMax="387" yMax="962">
      <component glyphName="I" x="0" y="0" flags="0x204"/>
      <component glyphName="acute" x="-11" y="168" flags="0x4"/>
    </TTGlyph>
    <TTGlyph name="Iacute.sc" xMin="121" yMin="0" xMax="386" yMax="844">
      <component glyphName="iacute.sc" x="0" y="0" flags="0x204"/>
    </TTGlyph>
    <TTGlyph name="Ibreve" xMin="-9" yMin="0" xMax="352" yMax="979">
      <component glyphName="I" x="0" y="0" flags="0x204"/>
      <component glyphName="breve" x="-78" y="168" flags="0x4"/>
    </TTGlyph>
    <TTGlyph name="Ibreve.sc" xMin="-10" yMin="0" xMax="351" yMax="861">
      <component glyphName="ibreve.sc" x="0" y="0" flags="0x204"/>
    </TTGlyph>
    <TTGlyph name="Icircumflex" xMin="-36" yMin="0" xMax="380" yMax="972">
      <component glyphName="I" x="0" y="0" flags="0x204"/>
      <component glyphName="circumflex" x="-78" y="168" flags="0x4"/>
    </TTGlyph>
    <TTGlyph name="Icircumflex.sc" xMin="-37" yMin="0" xMax="379" yMax="854">
      <component glyphName="icircumflex.sc" x="0" y="0" flags="0x204"/>
    </TTGlyph>
    <TTGlyph name="Idieresis" xMin="-19" yMin="0" xMax="364" yMax="913">
      <component glyphName="I" x="0" y="0" flags="0x204"/>
      <component glyphName="dieresis" x="-78" y="168" flags="0x4"/>
    </TTGlyph>
    <TTGlyph name="Idieresis.sc" xMin="-20" yMin="0" xMax="363" yMax="795">
      <component glyphName="idieresis.sc" x="0" y="0" flags="0x204"/>
    </TTGlyph>
    <TTGlyph name="Idotaccent" xMin="104" yMin="0" xMax="240" yMax="919">
      <component glyphName="I" x="0" y="0" flags="0x204"/>
      <component glyphName="dotaccent" x="-77" y="168" flags="0x4"/>
    </TTGlyph>
    <TTGlyph name="Idotaccent.sc" xMin="103" yMin="0" xMax="239" yMax="801">
      <component glyphName="idotaccent.sc" x="0" y="0" flags="0x204"/>
    </TTGlyph>
    <TTGlyph name="Igrave" xMin="-42" yMin="0" xMax="224" yMax="962">
      <component glyphName="I" x="0" y="0" flags="0x204"/>
      <component glyphName="grave" x="-144" y="168" flags="0x4"/>
    </TTGlyph>
    <TTGlyph name="Igrave.sc" xMin="-43" yMin="0" xMax="221" yMax="844">
      <component glyphName="igrave.sc" x="0" y="0" flags="0x204"/>
    </TTGlyph>
    <TTGlyph name="Imacron" xMin="-12" yMin="0" xMax="356" yMax="891">
      <component glyphName="I" x="0" y="0" flags="0x204"/>
      <component glyphName="macron" x="-78" y="168" flags="0x4"/>
    </TTGlyph>
    <TTGlyph name="Imacron.sc" xMin="-13" yMin="0" xMax="355" yMax="773">
      <component glyphName="imacron.sc" x="0" y="0" flags="0x204"/>
    </TTGlyph>
    <TTGlyph name="Iogonek" xMin="1" yMin="-289" xMax="254" yMax="700">
      <contour>
        <pt x="254" y="-268" on="1"/>
        <pt x="228" y="-278" on="0"/>
        <pt x="179" y="-289" on="0"/>
        <pt x="148" y="-289" on="1"/>
        <pt x="64" y="-289" on="0"/>
        <pt x="1" y="-220" on="0"/>
        <pt x="1" y="-180" on="1"/>
        <pt x="1" y="-140" on="0"/>
        <pt x="54" y="-65" on="0"/>
        <pt x="105" y="-18" on="1"/>
        <pt x="120" y="-4" on="1"/>
        <pt x="120" y="700" on="1"/>
        <pt x="224" y="700" on="1"/>
        <pt x="224" y="1" on="1"/>
        <pt x="225" y="0" on="1"/>
        <pt x="168" y="-55" on="1"/>
        <pt x="126" y="-97" on="0"/>
        <pt x="93" y="-141" on="0"/>
        <pt x="93" y="-163" on="1"/>
        <pt x="93" y="-188" on="0"/>
        <pt x="133" y="-214" on="0"/>
        <pt x="167" y="-214" on="1"/>
        <pt x="186" y="-214" on="0"/>
        <pt x="232" y="-203" on="0"/>
        <pt x="254" y="-190" on="1"/>
      </contour>
    </TTGlyph>
    <TTGlyph name="Iogonek.sc" xMin="-2" yMin="-289" xMax="251" yMax="582">
      <component glyphName="iogonek.sc" x="0" y="0" flags="0x204"/>
    </TTGlyph>
    <TTGlyph name="J" xMin="77" yMin="-15" xMax="612" yMax="700">
      <contour>
        <pt x="336" y="-15" on="1"/>
        <pt x="267" y="-15" on="0"/>
        <pt x="138" y="23" on="0"/>
        <pt x="77" y="64" on="1"/>
        <pt x="77" y="172" on="1"/>
        <pt x="78" y="172" on="1"/>
        <pt x="141" y="124" on="0"/>
        <pt x="274" y="80" on="0"/>
        <pt x="335" y="80" on="1"/>
        <pt x="416" y="80" on="0"/>
        <pt x="507" y="158" on="0"/>
        <pt x="507" y="242" on="1"/>
        <pt x="507" y="606" on="1"/>
        <pt x="213" y="606" on="1"/>
        <pt x="217" y="700" on="1"/>
        <pt x="612" y="700" on="1"/>
        <pt x="612" y="229" on="1"/>
        <pt x="612" y="106" on="0"/>
        <pt x="465" y="-15" on="0"/>
      </contour>
    </TTGlyph>
    <TTGlyph name="J.sc" xMin="78" yMin="-13" xMax="544" yMax="582">
      <component glyphName="j.sc" x="0" y="0" flags="0x204"/>
    </TTGlyph>
    <TTGlyph name="K" xMin="117" yMin="0" xMax="781" yMax="700">
      <contour>
        <pt x="117" y="0" on="1"/>
        <pt x="117" y="700" on="1"/>
        <pt x="221" y="700" on="1"/>
        <pt x="221" y="405" on="1"/>
        <pt x="379" y="405" on="1"/>
        <pt x="641" y="700" on="1"/>
        <pt x="762" y="700" on="1"/>
        <pt x="762" y="699" on="1"/>
        <pt x="463" y="362" on="1"/>
        <pt x="781" y="1" on="1"/>
        <pt x="781" y="0" on="1"/>
        <pt x="653" y="0" on="1"/>
        <pt x="375" y="311" on="1"/>
        <pt x="221" y="311" on="1"/>
        <pt x="221" y="0" on="1"/>
      </contour>
    </TTGlyph>
    <TTGlyph name="K.sc" xMin="118" yMin="0" xMax="696" yMax="582">
      <component glyphName="k.sc" x="0" y="0" flags="0x204"/>
    </TTGlyph>
    <TTGlyph name="L" xMin="117" yMin="0" xMax="652" yMax="700">
      <contour>
        <pt x="117" y="0" on="1"/>
        <pt x="117" y="700" on="1"/>
        <pt x="221" y="700" on="1"/>
        <pt x="221" y="96" on="1"/>
        <pt x="652" y="96" on="1"/>
        <pt x="648" y="0" on="1"/>
      </contour>
    </TTGlyph>
    <TTGlyph name="L.sc" xMin="118" yMin="0" xMax="584" yMax="582">
      <component glyphName="l.sc" x="0" y="0" flags="0x204"/>
    </TTGlyph>
    <TTGlyph name="Lacute" xMin="117" yMin="0" xMax="652" yMax="962">
      <component glyphName="L" x="0" y="0" flags="0x204"/>
      <component glyphName="acute" x="-15" y="168" flags="0x4"/>
    </TTGlyph>
    <TTGlyph name="Lacute.sc" xMin="118" yMin="0" xMax="584" yMax="844">
      <component glyphName="lacute.sc" x="0" y="0" flags="0x204"/>
    </TTGlyph>
    <TTGlyph name="Lcaron" xMin="117" yMin="0" xMax="652" yMax="700">
      <component glyphName="L" x="0" y="0" flags="0x204"/>
      <component glyphName="caron.alt" x="134" y="-73" flags="0x4"/>
    </TTGlyph>
    <TTGlyph name="Lcaron.sc" xMin="118" yMin="0" xMax="584" yMax="582">
      <component glyphName="lcaron.sc" x="0" y="0" flags="0x204"/>
    </TTGlyph>
    <TTGlyph name="Ldot" xMin="117" yMin="0" xMax="652" yMax="700">
      <contour>
        <pt x="117" y="0" on="1"/>
        <pt x="117" y="700" on="1"/>
        <pt x="221" y="700" on="1"/>
        <pt x="221" y="96" on="1"/>
        <pt x="652" y="96" on="1"/>
        <pt x="648" y="0" on="1"/>
      </contour>
      <contour>
        <pt x="519" y="360" on="1"/>
        <pt x="488" y="360" on="0"/>
        <pt x="451" y="397" on="0"/>
        <pt x="451" y="422" on="1"/>
        <pt x="451" y="423" on="1"/>
        <pt x="451" y="448" on="0"/>
        <pt x="488" y="485" on="0"/>
        <pt x="519" y="485" on="1"/>
        <pt x="551" y="485" on="0"/>
        <pt x="587" y="448" on="0"/>
        <pt x="587" y="423" on="1"/>
        <pt x="587" y="422" on="1"/>
        <pt x="587" y="397" on="0"/>
        <pt x="551" y="360" on="0"/>
      </contour>
    </TTGlyph>
    <TTGlyph name="Ldot.sc" xMin="118" yMin="0" xMax="584" yMax="582">
      <component glyphName="ldot.sc" x="0" y="0" flags="0x204"/>
    </TTGlyph>
    <TTGlyph name="Lslash" xMin="36" yMin="0" xMax="674" yMax="700">
      <contour>
        <pt x="139" y="0" on="1"/>
        <pt x="139" y="242" on="1"/>
        <pt x="36" y="186" on="1"/>
        <pt x="36" y="283" on="1"/>
        <pt x="139" y="339" on="1"/>
        <pt x="139" y="700" on="1"/>
        <pt x="243" y="700" on="1"/>
        <pt x="243" y="395" on="1"/>
        <pt x="500" y="536" on="1"/>
        <pt x="500" y="440" on="1"/>
        <pt x="243" y="298" on="1"/>
        <pt x="243" y="96" on="1"/>
        <pt x="674" y="96" on="1"/>
        <pt x="670" y="0" on="1"/>
      </contour>
    </TTGlyph>
    <TTGlyph name="Lslash.sc" xMin="48" yMin="0" xMax="614" yMax="582">
      <component glyphName="lslash.sc" x="0" y="0" flags="0x204"/>
    </TTGlyph>
    <TTGlyph name="M" xMin="117" yMin="0" xMax="904" yMax="700">
      <contour>
        <pt x="117" y="0" on="1"/>
        <pt x="117" y="700" on="1"/>
        <pt x="247" y="700" on="1"/>
        <pt x="511" y="236" on="1"/>
        <pt x="772" y="700" on="1"/>
        <pt x="904" y="700" on="1"/>
        <pt x="904" y="0" on="1"/>
        <pt x="800" y="0" on="1"/>
        <pt x="800" y="540" on="1"/>
        <pt x="791" y="540" on="1"/>
        <pt x="514" y="55" on="1"/>
        <pt x="504" y="55" on="1"/>
        <pt x="228" y="540" on="1"/>
        <pt x="219" y="540" on="1"/>
        <pt x="219" y="0" on="1"/>
      </contour>
    </TTGlyph>
    <TTGlyph name="M.sc" xMin="118" yMin="0" xMax="807" yMax="582">
      <component glyphName="m.sc" x="0" y="0" flags="0x204"/>
    </TTGlyph>
    <TTGlyph name="N" xMin="117" yMin="0" xMax="762" yMax="700">
      <contour>
        <pt x="117" y="0" on="1"/>
        <pt x="117" y="700" on="1"/>
        <pt x="242" y="700" on="1"/>
        <pt x="651" y="154" on="1"/>
        <pt x="660" y="154" on="1"/>
        <pt x="660" y="700" on="1"/>
        <pt x="762" y="700" on="1"/>
        <pt x="762" y="0" on="1"/>
        <pt x="643" y="0" on="1"/>
        <pt x="227" y="556" on="1"/>
        <pt x="219" y="556" on="1"/>
        <pt x="219" y="0" on="1"/>
      </contour>
    </TTGlyph>
    <TTGlyph name="N.sc" xMin="118" yMin="0" xMax="684" yMax="582">
      <component glyphName="n.sc" x="0" y="0" flags="0x204"/>
    </TTGlyph>
    <TTGlyph name="Nacute" xMin="117" yMin="0" xMax="762" yMax="937">
      <component glyphName="N" x="0" y="0" flags="0x204"/>
      <component glyphName="acute" x="260" y="143" flags="0x4"/>
    </TTGlyph>
    <TTGlyph name="Nacute.sc" xMin="118" yMin="0" xMax="684" yMax="820">
      <component glyphName="nacute.sc" x="0" y="0" flags="0x204"/>
    </TTGlyph>
    <TTGlyph name="Ncaron" xMin="117" yMin="0" xMax="762" yMax="947">
      <component glyphName="N" x="0" y="0" flags="0x204"/>
      <component glyphName="caron" x="207" y="143" flags="0x4"/>
    </TTGlyph>
    <TTGlyph name="Ncaron.sc" xMin="118" yMin="0" xMax="684" yMax="830">
      <component glyphName="ncaron.sc" x="0" y="0" flags="0x204"/>
    </TTGlyph>
    <TTGlyph name="Ntilde" xMin="117" yMin="0" xMax="762" yMax="940">
      <component glyphName="N" x="0" y="0" flags="0x204"/>
      <component glyphName="tilde" x="207" y="168" flags="0x4"/>
    </TTGlyph>
    <TTGlyph name="Ntilde.sc" xMin="118" yMin="0" xMax="684" yMax="822">
      <component glyphName="ntilde.sc" x="0" y="0" flags="0x204"/>
    </TTGlyph>
    <TTGlyph name="O" xMin="70" yMin="-18" xMax="834" yMax="718">
      <contour>
        <pt x="452" y="-18" on="1"/>
        <pt x="365" y="-18" on="0"/>
        <pt x="223" y="34" on="0"/>
        <pt x="124" y="130" on="0"/>
        <pt x="70" y="266" on="0"/>
        <pt x="70" y="350" on="1"/>
        <pt x="70" y="432" on="0"/>
        <pt x="124" y="569" on="0"/>
        <pt x="223" y="665" on="0"/>
        <pt x="365" y="718" on="0"/>
        <pt x="452" y="718" on="1"/>
        <pt x="539" y="718" on="0"/>
        <pt x="681" y="666" on="0"/>
        <pt x="780" y="570" on="0"/>
        <pt x="834" y="434" on="0"/>
        <pt x="834" y="350" on="1"/>
        <pt x="834" y="268" on="0"/>
        <pt x="780" y="131" on="0"/>
        <pt x="681" y="35" on="0"/>
        <pt x="539" y="-18" on="0"/>
      </contour>
      <contour>
        <pt x="452" y="77" on="1"/>
        <pt x="580" y="77" on="0"/>
        <pt x="727" y="225" on="0"/>
        <pt x="727" y="350" on="1"/>
        <pt x="727" y="475" on="0"/>
        <pt x="581" y="623" on="0"/>
        <pt x="453" y="623" on="1"/>
        <pt x="325" y="623" on="0"/>
        <pt x="177" y="475" on="0"/>
        <pt x="177" y="350" on="1"/>
        <pt x="177" y="225" on="0"/>
        <pt x="324" y="77" on="0"/>
      </contour>
    </TTGlyph>
    <TTGlyph name="O.sc" xMin="73" yMin="-19" xMax="731" yMax="600">
      <component glyphName="o.sc" x="0" y="0" flags="0x204"/>
    </TTGlyph>
    <TTGlyph name="OE" xMin="71" yMin="0" xMax="1232" yMax="700">
      <contour>
        <pt x="71" y="349" on="1"/>
        <pt x="71" y="511" on="0"/>
        <pt x="256" y="700" on="0"/>
        <pt x="423" y="700" on="1"/>
        <pt x="1211" y="700" on="1"/>
        <pt x="1216" y="606" on="1"/>
        <pt x="748" y="606" on="1"/>
        <pt x="748" y="409" on="1"/>
        <pt x="1132" y="409" on="1"/>
        <pt x="1132" y="315" on="1"/>
        <pt x="748" y="315" on="1"/>
        <pt x="748" y="94" on="1"/>
        <pt x="1232" y="94" on="1"/>
        <pt x="1228" y="0" on="1"/>
        <pt x="423" y="0" on="1"/>
        <pt x="256" y="0" on="0"/>
        <pt x="71" y="186" on="0"/>
      </contour>
      <contour>
        <pt x="643" y="606" on="1"/>
        <pt x="424" y="606" on="1"/>
        <pt x="306" y="606" on="0"/>
        <pt x="178" y="476" on="0"/>
        <pt x="178" y="351" on="1"/>
        <pt x="178" y="226" on="0"/>
        <pt x="306" y="94" on="0"/>
        <pt x="424" y="94" on="1"/>
        <pt x="643" y="94" on="1"/>
      </contour>
    </TTGlyph>
    <TTGlyph name="OE.sc" xMin="74" yMin="0" xMax="1067" yMax="582">
      <component glyphName="oe.sc" x="0" y="0" flags="0x204"/>
    </TTGlyph>
    <TTGlyph name="Oacute" xMin="70" yMin="-18" xMax="834" yMax="979">
      <component glyphName="O" x="0" y="0" flags="0x204"/>
      <component glyphName="acute" x="255" y="185" flags="0x4"/>
    </TTGlyph>
    <TTGlyph name="Oacute.sc" xMin="73" yMin="-19" xMax="731" yMax="862">
      <component glyphName="oacute.sc" x="0" y="0" flags="0x204"/>
    </TTGlyph>
    <TTGlyph name="Obreve" xMin="70" yMin="-18" xMax="834" yMax="996">
      <component glyphName="O" x="0" y="0" flags="0x204"/>
      <component glyphName="breve" x="202" y="185" flags="0x4"/>
    </TTGlyph>
    <TTGlyph name="Obreve.sc" xMin="73" yMin="-19" xMax="731" yMax="879">
      <component glyphName="obreve.sc" x="0" y="0" flags="0x204"/>
    </TTGlyph>
    <TTGlyph name="Ocircumflex" xMin="70" yMin="-18" xMax="834" yMax="989">
      <component glyphName="O" x="0" y="0" flags="0x204"/>
      <component glyphName="circumflex" x="202" y="185" flags="0x4"/>
    </TTGlyph>
    <TTGlyph name="Ocircumflex.sc" xMin="73" yMin="-19" xMax="731" yMax="872">
      <component glyphName="ocircumflex.sc" x="0" y="0" flags="0x204"/>
    </TTGlyph>
    <TTGlyph name="Odieresis" xMin="70" yMin="-18" xMax="834" yMax="930">
      <component glyphName="O" x="0" y="0" flags="0x204"/>
      <component glyphName="dieresis" x="202" y="185" flags="0x4"/>
    </TTGlyph>
    <TTGlyph name="Odieresis.sc" xMin="73" yMin="-19" xMax="731" yMax="813">
      <component glyphName="odieresis.sc" x="0" y="0" flags="0x204"/>
    </TTGlyph>
    <TTGlyph name="Ograve" xMin="70" yMin="-18" xMax="834" yMax="979">
      <component glyphName="O" x="0" y="0" flags="0x204"/>
      <component glyphName="grave" x="150" y="185" flags="0x4"/>
    </TTGlyph>
    <TTGlyph name="Ograve.sc" xMin="73" yMin="-19" xMax="731" yMax="862">
      <component glyphName="ograve.sc" x="0" y="0" flags="0x204"/>
    </TTGlyph>
    <TTGlyph name="Ohungarumlaut" xMin="70" yMin="-18" xMax="834" yMax="979">
      <component glyphName="O" x="0" y="0" flags="0x204"/>
      <component glyphName="hungarumlaut" x="275" y="185" flags="0x4"/>
    </TTGlyph>
    <TTGlyph name="Ohungarumlaut.sc" xMin="73" yMin="-19" xMax="731" yMax="862">
      <component glyphName="ohungarumlaut.sc" x="0" y="0" flags="0x204"/>
    </TTGlyph>
    <TTGlyph name="Omacron" xMin="70" yMin="-18" xMax="834" yMax="908">
      <component glyphName="O" x="0" y="0" flags="0x204"/>
      <component glyphName="macron" x="202" y="185" flags="0x4"/>
    </TTGlyph>
    <TTGlyph name="Omacron.sc" xMin="73" yMin="-19" xMax="731" yMax="791">
      <component glyphName="omacron.sc" x="0" y="0" flags="0x204"/>
    </TTGlyph>
    <TTGlyph name="Oslash" xMin="60" yMin="-61" xMax="845" yMax="761">
      <contour>
        <pt x="60" y="-61" on="1"/>
        <pt x="175" y="81" on="1"/>
        <pt x="124" y="129" on="0"/>
        <pt x="70" y="266" on="0"/>
        <pt x="70" y="350" on="1"/>
        <pt x="70" y="432" on="0"/>
        <pt x="124" y="569" on="0"/>
        <pt x="223" y="665" on="0"/>
        <pt x="365" y="718" on="0"/>
        <pt x="452" y="718" on="1"/>
        <pt x="511" y="718" on="0"/>
        <pt x="615" y="693" on="0"/>
        <pt x="658" y="671" on="1"/>
        <pt x="731" y="761" on="1"/>
        <pt x="845" y="761" on="1"/>
        <pt x="730" y="619" on="1"/>
        <pt x="780" y="571" on="0"/>
        <pt x="834" y="434" on="0"/>
        <pt x="834" y="350" on="1"/>
        <pt x="834" y="268" on="0"/>
        <pt x="780" y="131" on="0"/>
        <pt x="681" y="35" on="0"/>
        <pt x="539" y="-18" on="0"/>
        <pt x="452" y="-18" on="1"/>
        <pt x="393" y="-18" on="0"/>
        <pt x="290" y="6" on="0"/>
        <pt x="247" y="29" on="1"/>
        <pt x="174" y="-61" on="1"/>
      </contour>
      <contour>
        <pt x="175" y="350" on="1"/>
        <pt x="175" y="290" on="0"/>
        <pt x="209" y="191" on="0"/>
        <pt x="242" y="155" on="1"/>
        <pt x="600" y="593" on="1"/>
        <pt x="570" y="609" on="0"/>
        <pt x="496" y="626" on="0"/>
        <pt x="453" y="626" on="1"/>
        <pt x="324" y="626" on="0"/>
        <pt x="175" y="476" on="0"/>
      </contour>
      <contour>
        <pt x="452" y="74" on="1"/>
        <pt x="581" y="74" on="0"/>
        <pt x="730" y="224" on="0"/>
        <pt x="730" y="350" on="1"/>
        <pt x="730" y="410" on="0"/>
        <pt x="695" y="509" on="0"/>
        <pt x="663" y="545" on="1"/>
        <pt x="304" y="107" on="1"/>
        <pt x="335" y="91" on="0"/>
        <pt x="409" y="74" on="0"/>
      </contour>
    </TTGlyph>
    <TTGlyph name="Oslash.sc" xMin="47" yMin="-56" xMax="757" yMax="637">
      <component glyphName="oslash.sc" x="0" y="0" flags="0x204"/>
    </TTGlyph>
    <TTGlyph name="Oslashacute" xMin="60" yMin="-61" xMax="845" yMax="978">
      <component glyphName="Oslash" x="0" y="0" flags="0x204"/>
      <component glyphName="acute" x="255" y="184" flags="0x4"/>
    </TTGlyph>
    <TTGlyph name="Oslashacute.sc" xMin="47" yMin="-56" xMax="757" yMax="859">
      <component glyphName="oslashacute.sc" x="0" y="0" flags="0x204"/>
    </TTGlyph>
    <TTGlyph name="Otilde" xMin="70" yMin="-18" xMax="834" yMax="957">
      <component glyphName="O" x="0" y="0" flags="0x204"/>
      <component glyphName="tilde" x="202" y="185" flags="0x4"/>
    </TTGlyph>
    <TTGlyph name="Otilde.sc" xMin="73" yMin="-19" xMax="731" yMax="840">
      <component glyphName="otilde.sc" x="0" y="0" flags="0x204"/>
    </TTGlyph>
    <TTGlyph name="P" xMin="117" yMin="0" xMax="722" yMax="700">
      <contour>
        <pt x="117" y="0" on="1"/>
        <pt x="117" y="700" on="1"/>
        <pt x="459" y="700" on="1"/>
        <pt x="588" y="700" on="0"/>
        <pt x="722" y="573" on="0"/>
        <pt x="722" y="460" on="1"/>
        <pt x="722" y="336" on="0"/>
        <pt x="575" y="212" on="0"/>
        <pt x="450" y="212" on="1"/>
        <pt x="221" y="212" on="1"/>
        <pt x="221" y="0" on="1"/>
      </contour>
      <contour>
        <pt x="221" y="306" on="1"/>
        <pt x="452" y="306" on="1"/>
        <pt x="536" y="306" on="0"/>
        <pt x="616" y="387" on="0"/>
        <pt x="616" y="456" on="1"/>
        <pt x="616" y="528" on="0"/>
        <pt x="534" y="606" on="0"/>
        <pt x="450" y="606" on="1"/>
        <pt x="221" y="606" on="1"/>
      </contour>
    </TTGlyph>
    <TTGlyph name="P.sc" xMin="118" yMin="0" xMax="652" yMax="582">
      <component glyphName="p.sc" x="0" y="0" flags="0x204"/>
    </TTGlyph>
    <TTGlyph name="Q" xMin="70" yMin="-35" xMax="860" yMax="718">
      <contour>
        <pt x="452" y="718" on="1"/>
        <pt x="539" y="718" on="0"/>
        <pt x="681" y="666" on="0"/>
        <pt x="780" y="570" on="0"/>
        <pt x="834" y="434" on="0"/>
        <pt x="834" y="350" on="1"/>
        <pt x="834" y="290" on="0"/>
        <pt x="802" y="181" on="0"/>
        <pt x="772" y="136" on="1"/>
        <pt x="860" y="74" on="1"/>
        <pt x="860" y="-35" on="1"/>
        <pt x="859" y="-35" on="1"/>
        <pt x="712" y="69" on="1"/>
        <pt x="663" y="27" on="0"/>
        <pt x="530" y="-18" on="0"/>
        <pt x="452" y="-18" on="1"/>
        <pt x="365" y="-18" on="0"/>
        <pt x="223" y="34" on="0"/>
        <pt x="124" y="130" on="0"/>
        <pt x="70" y="266" on="0"/>
        <pt x="70" y="350" on="1"/>
        <pt x="70" y="432" on="0"/>
        <pt x="124" y="569" on="0"/>
        <pt x="223" y="665" on="0"/>
        <pt x="365" y="718" on="0"/>
      </contour>
      <contour>
        <pt x="453" y="623" on="1"/>
        <pt x="325" y="623" on="0"/>
        <pt x="177" y="475" on="0"/>
        <pt x="177" y="350" on="1"/>
        <pt x="177" y="225" on="0"/>
        <pt x="325" y="76" on="0"/>
        <pt x="453" y="76" on="1"/>
        <pt x="507" y="76" on="0"/>
        <pt x="597" y="102" on="0"/>
        <pt x="631" y="127" on="1"/>
        <pt x="420" y="271" on="1"/>
        <pt x="475" y="346" on="1"/>
        <pt x="691" y="194" on="1"/>
        <pt x="710" y="225" on="0"/>
        <pt x="729" y="304" on="0"/>
        <pt x="729" y="350" on="1"/>
        <pt x="729" y="475" on="0"/>
        <pt x="581" y="623" on="0"/>
      </contour>
    </TTGlyph>
    <TTGlyph name="Q.sc" xMin="73" yMin="-33" xMax="743" yMax="600">
      <component glyphName="q.sc" x="0" y="0" flags="0x204"/>
    </TTGlyph>
    <TTGlyph name="R" xMin="117" yMin="0" xMax="756" yMax="700">
      <contour>
        <pt x="117" y="0" on="1"/>
        <pt x="117" y="700" on="1"/>
        <pt x="475" y="700" on="1"/>
        <pt x="603" y="700" on="0"/>
        <pt x="732" y="579" on="0"/>
        <pt x="732" y="470" on="1"/>
        <pt x="732" y="384" on="0"/>
        <pt x="646" y="270" on="0"/>
        <pt x="562" y="251" on="1"/>
        <pt x="756" y="0" on="1"/>
        <pt x="632" y="0" on="1"/>
        <pt x="458" y="233" on="1"/>
        <pt x="221" y="233" on="1"/>
        <pt x="221" y="0" on="1"/>
      </contour>
      <contour>
        <pt x="221" y="325" on="1"/>
        <pt x="473" y="325" on="1"/>
        <pt x="556" y="325" on="0"/>
        <pt x="626" y="407" on="0"/>
        <pt x="626" y="466" on="1"/>
        <pt x="626" y="525" on="0"/>
        <pt x="556" y="606" on="0"/>
        <pt x="473" y="606" on="1"/>
        <pt x="221" y="606" on="1"/>
      </contour>
    </TTGlyph>
    <TTGlyph name="R.sc" xMin="118" yMin="0" xMax="683" yMax="582">
      <component glyphName="r.sc" x="0" y="0" flags="0x204"/>
    </TTGlyph>
    <TTGlyph name="R_p" xMin="131" yMin="-190" xMax="1405" yMax="700">
      <contour>
        <pt x="131" y="0" on="1"/>
        <pt x="131" y="700" on="1"/>
        <pt x="461" y="700" on="1"/>
        <pt x="589" y="700" on="0"/>
        <pt x="718" y="579" on="0"/>
        <pt x="718" y="470" on="1"/>
        <pt x="718" y="385" on="0"/>
        <pt x="632" y="271" on="0"/>
        <pt x="548" y="252" on="1"/>
        <pt x="741" y="0" on="1"/>
        <pt x="622" y="0" on="1"/>
        <pt x="446" y="234" on="1"/>
        <pt x="231" y="234" on="1"/>
        <pt x="231" y="0" on="1"/>
      </contour>
      <contour>
        <pt x="231" y="324" on="1"/>
        <pt x="459" y="324" on="1"/>
        <pt x="543" y="324" on="0"/>
        <pt x="616" y="406" on="0"/>
        <pt x="616" y="467" on="1"/>
        <pt x="616" y="529" on="0"/>
        <pt x="543" y="609" on="0"/>
        <pt x="459" y="609" on="1"/>
        <pt x="231" y="609" on="1"/>
      </contour>
      <contour>
        <pt x="863" y="-190" on="1"/>
        <pt x="863" y="532" on="1"/>
        <pt x="961" y="532" on="1"/>
        <pt x="962" y="456" on="1"/>
        <pt x="993" y="491" on="0"/>
        <pt x="1092" y="547" on="0"/>
        <pt x="1158" y="547" on="1"/>
        <pt x="1209" y="547" on="0"/>
        <pt x="1299" y="511" on="0"/>
        <pt x="1366" y="441" on="0"/>
        <pt x="1405" y="339" on="0"/>
        <pt x="1405" y="273" on="1"/>
        <pt x="1405" y="212" on="0"/>
        <pt x="1362" y="106" on="0"/>
        <pt x="1286" y="29" on="0"/>
        <pt x="1181" y="-15" on="0"/>
        <pt x="1120" y="-15" on="1"/>
        <pt x="1069" y="-15" on="0"/>
        <pt x="994" y="11" on="0"/>
        <pt x="963" y="32" on="1"/>
        <pt x="963" y="-190" on="1"/>
      </contour>
      <contour>
        <pt x="1112" y="71" on="1"/>
        <pt x="1199" y="71" on="0"/>
        <pt x="1304" y="184" on="0"/>
        <pt x="1304" y="268" on="1"/>
        <pt x="1304" y="317" on="0"/>
        <pt x="1276" y="390" on="0"/>
        <pt x="1228" y="438" on="0"/>
        <pt x="1164" y="462" on="0"/>
        <pt x="1127" y="462" on="1"/>
        <pt x="1078" y="462" on="0"/>
        <pt x="991" y="418" on="0"/>
        <pt x="963" y="388" on="1"/>
        <pt x="963" y="131" on="1"/>
        <pt x="994" y="103" on="0"/>
        <pt x="1065" y="71" on="0"/>
      </contour>
    </TTGlyph>
    <TTGlyph name="Racute" xMin="117" yMin="0" xMax="756" yMax="962">
      <component glyphName="R" x="0" y="0" flags="0x204"/>
      <component glyphName="acute" x="207" y="168" flags="0x4"/>
    </TTGlyph>
    <TTGlyph name="Racute.sc" xMin="118" yMin="0" xMax="683" yMax="844">
      <component glyphName="racute.sc" x="0" y="0" flags="0x204"/>
    </TTGlyph>
    <TTGlyph name="Rcaron" xMin="117" yMin="0" xMax="756" yMax="972">
      <component glyphName="R" x="0" y="0" flags="0x204"/>
      <component glyphName="caron" x="154" y="168" flags="0x4"/>
    </TTGlyph>
    <TTGlyph name="Rcaron.sc" xMin="118" yMin="0" xMax="683" yMax="854">
      <component glyphName="rcaron.sc" x="0" y="0" flags="0x204"/>
    </TTGlyph>
    <TTGlyph name="S" xMin="81" yMin="-16" xMax="691" yMax="716">
      <contour>
        <pt x="396" y="-16" on="1"/>
        <pt x="299" y="-16" on="0"/>
        <pt x="144" y="27" on="0"/>
        <pt x="81" y="61" on="1"/>
        <pt x="81" y="169" on="1"/>
        <pt x="82" y="169" on="1"/>
        <pt x="154" y="127" on="0"/>
        <pt x="319" y="80" on="0"/>
        <pt x="397" y="80" on="1"/>
        <pt x="486" y="80" on="0"/>
        <pt x="582" y="140" on="0"/>
        <pt x="582" y="191" on="1"/>
        <pt x="582" y="216" on="0"/>
        <pt x="561" y="250" on="0"/>
        <pt x="511" y="277" on="0"/>
        <pt x="425" y="298" on="0"/>
        <pt x="360" y="310" on="1"/>
        <pt x="302" y="321" on="0"/>
        <pt x="204" y="349" on="0"/>
        <pt x="133" y="392" on="0"/>
        <pt x="93" y="456" on="0"/>
        <pt x="93" y="503" on="1"/>
        <pt x="93" y="546" on="0"/>
        <pt x="131" y="623" on="0"/>
        <pt x="205" y="681" on="0"/>
        <pt x="317" y="716" on="0"/>
        <pt x="390" y="716" on="1"/>
        <pt x="456" y="716" on="0"/>
        <pt x="599" y="681" on="0"/>
        <pt x="656" y="648" on="1"/>
        <pt x="656" y="540" on="1"/>
        <pt x="655" y="540" on="1"/>
        <pt x="594" y="580" on="0"/>
        <pt x="450" y="620" on="0"/>
        <pt x="383" y="620" on="1"/>
        <pt x="296" y="620" on="0"/>
        <pt x="202" y="561" on="0"/>
        <pt x="202" y="513" on="1"/>
        <pt x="202" y="460" on="0"/>
        <pt x="316" y="418" on="0"/>
        <pt x="422" y="399" on="1"/>
        <pt x="481" y="388" on="0"/>
        <pt x="580" y="360" on="0"/>
        <pt x="651" y="315" on="0"/>
        <pt x="691" y="248" on="0"/>
        <pt x="691" y="198" on="1"/>
        <pt x="691" y="162" on="0"/>
        <pt x="663" y="86" on="0"/>
        <pt x="595" y="24" on="0"/>
        <pt x="481" y="-16" on="0"/>
      </contour>
    </TTGlyph>
    <TTGlyph name="S.sc" xMin="84" yMin="-16" xMax="609" yMax="596">
      <component glyphName="s.sc" x="0" y="0" flags="0x204"/>
    </TTGlyph>
    <TTGlyph name="Sacute" xMin="81" yMin="-16" xMax="691" yMax="978">
      <component glyphName="S" x="0" y="0" flags="0x204"/>
      <component glyphName="acute" x="208" y="184" flags="0x4"/>
    </TTGlyph>
    <TTGlyph name="Sacute.sc" xMin="84" yMin="-16" xMax="609" yMax="858">
      <component glyphName="sacute.sc" x="0" y="0" flags="0x204"/>
    </TTGlyph>
    <TTGlyph name="Scaron" xMin="81" yMin="-16" xMax="691" yMax="988">
      <component glyphName="S" x="0" y="0" flags="0x204"/>
      <component glyphName="caron" x="155" y="184" flags="0x4"/>
    </TTGlyph>
    <TTGlyph name="Scaron.sc" xMin="84" yMin="-16" xMax="609" yMax="868">
      <component glyphName="scaron.sc" x="0" y="0" flags="0x204"/>
    </TTGlyph>
    <TTGlyph name="Scedilla" xMin="81" yMin="-188" xMax="691" yMax="716">
      <contour>
        <pt x="691" y="198" on="1"/>
        <pt x="691" y="165" on="0"/>
        <pt x="667" y="94" on="0"/>
        <pt x="609" y="34" on="0"/>
        <pt x="513" y="-9" on="0"/>
        <pt x="442" y="-14" on="1"/>
        <pt x="335" y="-188" on="1"/>
        <pt x="206" y="-188" on="1"/>
        <pt x="206" y="-183" on="1"/>
        <pt x="352" y="-15" on="1"/>
        <pt x="271" y="-10" on="0"/>
        <pt x="136" y="31" on="0"/>
        <pt x="81" y="61" on="1"/>
        <pt x="81" y="169" on="1"/>
        <pt x="82" y="169" on="1"/>
        <pt x="154" y="127" on="0"/>
        <pt x="319" y="80" on="0"/>
        <pt x="397" y="80" on="1"/>
        <pt x="486" y="80" on="0"/>
        <pt x="582" y="140" on="0"/>
        <pt x="582" y="191" on="1"/>
        <pt x="582" y="216" on="0"/>
        <pt x="561" y="250" on="0"/>
        <pt x="511" y="277" on="0"/>
        <pt x="425" y="298" on="0"/>
        <pt x="360" y="310" on="1"/>
        <pt x="302" y="321" on="0"/>
        <pt x="204" y="349" on="0"/>
        <pt x="133" y="392" on="0"/>
        <pt x="93" y="456" on="0"/>
        <pt x="93" y="503" on="1"/>
        <pt x="93" y="546" on="0"/>
        <pt x="131" y="623" on="0"/>
        <pt x="205" y="681" on="0"/>
        <pt x="317" y="716" on="0"/>
        <pt x="390" y="716" on="1"/>
        <pt x="456" y="716" on="0"/>
        <pt x="599" y="681" on="0"/>
        <pt x="656" y="648" on="1"/>
        <pt x="656" y="540" on="1"/>
        <pt x="655" y="540" on="1"/>
        <pt x="594" y="580" on="0"/>
        <pt x="450" y="620" on="0"/>
        <pt x="383" y="620" on="1"/>
        <pt x="296" y="620" on="0"/>
        <pt x="202" y="561" on="0"/>
        <pt x="202" y="513" on="1"/>
        <pt x="202" y="460" on="0"/>
        <pt x="316" y="418" on="0"/>
        <pt x="422" y="399" on="1"/>
        <pt x="481" y="388" on="0"/>
        <pt x="580" y="360" on="0"/>
        <pt x="651" y="315" on="0"/>
        <pt x="691" y="248" on="0"/>
      </contour>
    </TTGlyph>
    <TTGlyph name="Scedilla.sc" xMin="84" yMin="-188" xMax="609" yMax="596">
      <component glyphName="scedilla.sc" x="0" y="0" flags="0x204"/>
    </TTGlyph>
    <TTGlyph name="T" xMin="44" yMin="0" xMax="707" yMax="700">
      <contour>
        <pt x="323" y="0" on="1"/>
        <pt x="323" y="604" on="1"/>
        <pt x="44" y="604" on="1"/>
        <pt x="48" y="700" on="1"/>
        <pt x="703" y="700" on="1"/>
        <pt x="707" y="604" on="1"/>
        <pt x="428" y="604" on="1"/>
        <pt x="428" y="0" on="1"/>
      </contour>
    </TTGlyph>
    <TTGlyph name="T.sc" xMin="54" yMin="0" xMax="638" yMax="582">
      <component glyphName="t.sc" x="0" y="0" flags="0x204"/>
    </TTGlyph>
    <TTGlyph name="Tcaron" xMin="44" yMin="0" xMax="707" yMax="972">
      <component glyphName="T" x="0" y="0" flags="0x204"/>
      <component glyphName="caron" x="126" y="168" flags="0x4"/>
    </TTGlyph>
    <TTGlyph name="Tcaron.sc" xMin="54" yMin="0" xMax="638" yMax="854">
      <component glyphName="tcaron.sc" x="0" y="0" flags="0x204"/>
    </TTGlyph>
    <TTGlyph name="Thorn" xMin="117" yMin="0" xMax="729" yMax="700">
      <contour>
        <pt x="117" y="0" on="1"/>
        <pt x="117" y="700" on="1"/>
        <pt x="221" y="700" on="1"/>
        <pt x="221" y="591" on="1"/>
        <pt x="461" y="591" on="1"/>
        <pt x="595" y="591" on="0"/>
        <pt x="729" y="466" on="0"/>
        <pt x="729" y="356" on="1"/>
        <pt x="729" y="236" on="0"/>
        <pt x="580" y="113" on="0"/>
        <pt x="452" y="113" on="1"/>
        <pt x="221" y="113" on="1"/>
        <pt x="221" y="0" on="1"/>
      </contour>
      <contour>
        <pt x="221" y="208" on="1"/>
        <pt x="453" y="208" on="1"/>
        <pt x="541" y="208" on="0"/>
        <pt x="624" y="287" on="0"/>
        <pt x="624" y="353" on="1"/>
        <pt x="624" y="422" on="0"/>
        <pt x="539" y="497" on="0"/>
        <pt x="452" y="497" on="1"/>
        <pt x="221" y="497" on="1"/>
      </contour>
    </TTGlyph>
    <TTGlyph name="Thorn.sc" xMin="118" yMin="0" xMax="659" yMax="582">
      <component glyphName="thorn.sc" x="0" y="0" flags="0x204"/>
    </TTGlyph>
    <TTGlyph name="U" xMin="108" yMin="-17" xMax="755" yMax="700">
      <contour>
        <pt x="431" y="-17" on="1"/>
        <pt x="361" y="-17" on="0"/>
        <pt x="242" y="15" on="0"/>
        <pt x="156" y="82" on="0"/>
        <pt x="108" y="191" on="0"/>
        <pt x="108" y="267" on="1"/>
        <pt x="108" y="700" on="1"/>
        <pt x="212" y="700" on="1"/>
        <pt x="212" y="273" on="1"/>
        <pt x="212" y="220" on="0"/>
        <pt x="246" y="145" on="0"/>
        <pt x="305" y="100" on="0"/>
        <pt x="386" y="79" on="0"/>
        <pt x="432" y="79" on="1"/>
        <pt x="478" y="79" on="0"/>
        <pt x="558" y="99" on="0"/>
        <pt x="617" y="144" on="0"/>
        <pt x="651" y="217" on="0"/>
        <pt x="651" y="270" on="1"/>
        <pt x="651" y="700" on="1"/>
        <pt x="755" y="700" on="1"/>
        <pt x="755" y="270" on="1"/>
        <pt x="755" y="192" on="0"/>
        <pt x="706" y="83" on="0"/>
        <pt x="621" y="14" on="0"/>
        <pt x="501" y="-17" on="0"/>
      </contour>
    </TTGlyph>
    <TTGlyph name="U.sc" xMin="108" yMin="-14" xMax="666" yMax="582">
      <component glyphName="u.sc" x="0" y="0" flags="0x204"/>
    </TTGlyph>
    <TTGlyph name="Uacute" xMin="108" yMin="-17" xMax="755" yMax="938">
      <component glyphName="U" x="0" y="0" flags="0x204"/>
      <component glyphName="acute" x="235" y="144" flags="0x4"/>
    </TTGlyph>
    <TTGlyph name="Uacute.sc" xMin="108" yMin="-14" xMax="666" yMax="820">
      <component glyphName="uacute.sc" x="0" y="0" flags="0x204"/>
    </TTGlyph>
    <TTGlyph name="Ubreve" xMin="108" yMin="-17" xMax="755" yMax="955">
      <component glyphName="U" x="0" y="0" flags="0x204"/>
      <component glyphName="breve" x="182" y="144" flags="0x4"/>
    </TTGlyph>
    <TTGlyph name="Ubreve.sc" xMin="108" yMin="-14" xMax="666" yMax="837">
      <component glyphName="ubreve.sc" x="0" y="0" flags="0x204"/>
    </TTGlyph>
    <TTGlyph name="Ucircumflex" xMin="108" yMin="-17" xMax="755" yMax="972">
      <component glyphName="U" x="0" y="0" flags="0x204"/>
      <component glyphName="circumflex" x="182" y="168" flags="0x4"/>
    </TTGlyph>
    <TTGlyph name="Ucircumflex.sc" xMin="108" yMin="-14" xMax="666" yMax="854">
      <component glyphName="ucircumflex.sc" x="0" y="0" flags="0x204"/>
    </TTGlyph>
    <TTGlyph name="Udieresis" xMin="108" yMin="-17" xMax="755" yMax="913">
      <component glyphName="U" x="0" y="0" flags="0x204"/>
      <component glyphName="dieresis" x="182" y="168" flags="0x4"/>
    </TTGlyph>
    <TTGlyph name="Udieresis.sc" xMin="108" yMin="-14" xMax="666" yMax="795">
      <component glyphName="udieresis.sc" x="0" y="0" flags="0x204"/>
    </TTGlyph>
    <TTGlyph name="Ugrave" xMin="108" yMin="-17" xMax="755" yMax="938">
      <component glyphName="U" x="0" y="0" flags="0x204"/>
      <component glyphName="grave" x="130" y="144" flags="0x4"/>
    </TTGlyph>
    <TTGlyph name="Ugrave.sc" xMin="108" yMin="-14" xMax="666" yMax="820">
      <component glyphName="ugrave.sc" x="0" y="0" flags="0x204"/>
    </TTGlyph>
    <TTGlyph name="Uhungarumlaut" xMin="108" yMin="-17" xMax="755" yMax="962">
      <component glyphName="U" x="0" y="0" flags="0x204"/>
      <component glyphName="hungarumlaut" x="235" y="168" flags="0x4"/>
    </TTGlyph>
    <TTGlyph name="Uhungarumlaut.sc" xMin="108" yMin="-14" xMax="682" yMax="844">
      <component glyphName="uhungarumlaut.sc" x="0" y="0" flags="0x204"/>
    </TTGlyph>
    <TTGlyph name="Umacron" xMin="108" yMin="-17" xMax="755" yMax="891">
      <component glyphName="U" x="0" y="0" flags="0x204"/>
      <component glyphName="macron" x="182" y="168" flags="0x4"/>
    </TTGlyph>
    <TTGlyph name="Umacron.sc" xMin="108" yMin="-14" xMax="666" yMax="773">
      <component glyphName="umacron.sc" x="0" y="0" flags="0x204"/>
    </TTGlyph>
    <TTGlyph name="Uogonek" xMin="108" yMin="-296" xMax="755" yMax="700">
      <contour>
        <pt x="558" y="-275" on="1"/>
        <pt x="532" y="-285" on="0"/>
        <pt x="483" y="-296" on="0"/>
        <pt x="452" y="-296" on="1"/>
        <pt x="368" y="-296" on="0"/>
        <pt x="305" y="-227" on="0"/>
        <pt x="305" y="-187" on="1"/>
        <pt x="305" y="-147" on="0"/>
        <pt x="358" y="-72" on="0"/>
        <pt x="409" y="-25" on="1"/>
        <pt x="418" y="-17" on="1"/>
        <pt x="350" y="-16" on="0"/>
        <pt x="236" y="18" on="0"/>
        <pt x="154" y="86" on="0"/>
        <pt x="108" y="193" on="0"/>
        <pt x="108" y="267" on="1"/>
        <pt x="108" y="700" on="1"/>
        <pt x="212" y="700" on="1"/>
        <pt x="212" y="273" on="1"/>
        <pt x="212" y="220" on="0"/>
        <pt x="246" y="145" on="0"/>
        <pt x="305" y="100" on="0"/>
        <pt x="386" y="79" on="0"/>
        <pt x="432" y="79" on="1"/>
        <pt x="478" y="79" on="0"/>
        <pt x="558" y="99" on="0"/>
        <pt x="617" y="144" on="0"/>
        <pt x="651" y="217" on="0"/>
        <pt x="651" y="270" on="1"/>
        <pt x="651" y="700" on="1"/>
        <pt x="755" y="700" on="1"/>
        <pt x="755" y="270" on="1"/>
        <pt x="755" y="142" on="0"/>
        <pt x="629" y="10" on="0"/>
        <pt x="527" y="-9" on="1"/>
        <pt x="472" y="-62" on="1"/>
        <pt x="430" y="-104" on="0"/>
        <pt x="397" y="-148" on="0"/>
        <pt x="397" y="-170" on="1"/>
        <pt x="397" y="-195" on="0"/>
        <pt x="437" y="-221" on="0"/>
        <pt x="471" y="-221" on="1"/>
        <pt x="490" y="-221" on="0"/>
        <pt x="536" y="-210" on="0"/>
        <pt x="558" y="-197" on="1"/>
      </contour>
    </TTGlyph>
    <TTGlyph name="Uogonek.sc" xMin="108" yMin="-288" xMax="666" yMax="582">
      <component glyphName="uogonek.sc" x="0" y="0" flags="0x204"/>
    </TTGlyph>
    <TTGlyph name="Uring" xMin="108" yMin="-17" xMax="755" yMax="1043">
      <component glyphName="U" x="0" y="0" flags="0x204"/>
      <component glyphName="ring" x="126" y="144" flags="0x4"/>
    </TTGlyph>
    <TTGlyph name="Uring.sc" xMin="108" yMin="-14" xMax="666" yMax="925">
      <component glyphName="uring.sc" x="0" y="0" flags="0x204"/>
    </TTGlyph>
    <TTGlyph name="V" xMin="47" yMin="0" xMax="765" yMax="700">
      <contour>
        <pt x="311" y="0" on="1"/>
        <pt x="47" y="700" on="1"/>
        <pt x="160" y="700" on="1"/>
        <pt x="386" y="98" on="1"/>
        <pt x="427" y="98" on="1"/>
        <pt x="653" y="700" on="1"/>
        <pt x="765" y="700" on="1"/>
        <pt x="501" y="0" on="1"/>
      </contour>
    </TTGlyph>
    <TTGlyph name="V.sc" xMin="52" yMin="0" xMax="681" yMax="582">
      <component glyphName="v.sc" x="0" y="0" flags="0x204"/>
    </TTGlyph>
    <TTGlyph name="W" xMin="60" yMin="0" xMax="1182" yMax="700">
      <contour>
        <pt x="265" y="0" on="1"/>
        <pt x="60" y="700" on="1"/>
        <pt x="170" y="700" on="1"/>
        <pt x="339" y="103" on="1"/>
        <pt x="367" y="103" on="1"/>
        <pt x="569" y="700" on="1"/>
        <pt x="680" y="700" on="1"/>
        <pt x="880" y="103" on="1"/>
        <pt x="908" y="103" on="1"/>
        <pt x="1074" y="700" on="1"/>
        <pt x="1182" y="700" on="1"/>
        <pt x="978" y="0" on="1"/>
        <pt x="814" y="0" on="1"/>
        <pt x="628" y="555" on="1"/>
        <pt x="617" y="555" on="1"/>
        <pt x="430" y="0" on="1"/>
      </contour>
    </TTGlyph>
    <TTGlyph name="W.sc" xMin="60" yMin="0" xMax="1012" yMax="582">
      <component glyphName="w.sc" x="0" y="0" flags="0x204"/>
    </TTGlyph>
    <TTGlyph name="Wacute" xMin="60" yMin="0" xMax="1182" yMax="962">
      <component glyphName="W" x="0" y="0" flags="0x204"/>
      <component glyphName="acute" x="442" y="168" flags="0x4"/>
    </TTGlyph>
    <TTGlyph name="Wacute.sc" xMin="60" yMin="0" xMax="1012" yMax="844">
      <component glyphName="wacute.sc" x="0" y="0" flags="0x204"/>
    </TTGlyph>
    <TTGlyph name="Wcircumflex" xMin="60" yMin="0" xMax="1182" yMax="972">
      <component glyphName="W" x="0" y="0" flags="0x204"/>
      <component glyphName="circumflex" x="371" y="168" flags="0x4"/>
    </TTGlyph>
    <TTGlyph name="Wcircumflex.sc" xMin="60" yMin="0" xMax="1012" yMax="854">
      <component glyphName="wcircumflex.sc" x="0" y="0" flags="0x204"/>
    </TTGlyph>
    <TTGlyph name="Wdieresis" xMin="60" yMin="0" xMax="1182" yMax="913">
      <component glyphName="W" x="0" y="0" flags="0x204"/>
      <component glyphName="dieresis" x="371" y="168" flags="0x4"/>
    </TTGlyph>
    <TTGlyph name="Wdieresis.sc" xMin="60" yMin="0" xMax="1012" yMax="795">
      <component glyphName="wdieresis.sc" x="0" y="0" flags="0x204"/>
    </TTGlyph>
    <TTGlyph name="Wgrave" xMin="60" yMin="0" xMax="1182" yMax="962">
      <component glyphName="W" x="0" y="0" flags="0x204"/>
      <component glyphName="grave" x="309" y="168" flags="0x4"/>
    </TTGlyph>
    <TTGlyph name="Wgrave.sc" xMin="60" yMin="0" xMax="1012" yMax="844">
      <component glyphName="wgrave.sc" x="0" y="0" flags="0x204"/>
    </TTGlyph>
    <TTGlyph name="X" xMin="41" yMin="0" xMax="777" yMax="700">
      <contour>
        <pt x="166" y="0" on="1"/>
        <pt x="41" y="0" on="1"/>
        <pt x="41" y="1" on="1"/>
        <pt x="342" y="362" on="1"/>
        <pt x="62" y="699" on="1"/>
        <pt x="62" y="700" on="1"/>
        <pt x="188" y="700" on="1"/>
        <pt x="410" y="428" on="1"/>
        <pt x="633" y="700" on="1"/>
        <pt x="757" y="700" on="1"/>
        <pt x="757" y="699" on="1"/>
        <pt x="479" y="363" on="1"/>
        <pt x="777" y="1" on="1"/>
        <pt x="777" y="0" on="1"/>
        <pt x="650" y="0" on="1"/>
        <pt x="409" y="296" on="1"/>
      </contour>
    </TTGlyph>
    <TTGlyph name="X.sc" xMin="48" yMin="0" xMax="680" yMax="582">
      <component glyphName="x.sc" x="0" y="0" flags="0x204"/>
    </TTGlyph>
    <TTGlyph name="Y" xMin="32" yMin="0" xMax="768" yMax="700">
      <contour>
        <pt x="348" y="0" on="1"/>
        <pt x="348" y="240" on="1"/>
        <pt x="32" y="700" on="1"/>
        <pt x="154" y="700" on="1"/>
        <pt x="397" y="341" on="1"/>
        <pt x="404" y="341" on="1"/>
        <pt x="650" y="700" on="1"/>
        <pt x="768" y="700" on="1"/>
        <pt x="452" y="242" on="1"/>
        <pt x="452" y="0" on="1"/>
      </contour>
    </TTGlyph>
    <TTGlyph name="Y.sc" xMin="34" yMin="0" xMax="677" yMax="582">
      <component glyphName="y.sc" x="0" y="0" flags="0x204"/>
    </TTGlyph>
    <TTGlyph name="Yacute" xMin="32" yMin="0" xMax="768" yMax="938">
      <component glyphName="Y" x="0" y="0" flags="0x204"/>
      <component glyphName="acute" x="203" y="144" flags="0x4"/>
    </TTGlyph>
    <TTGlyph name="Yacute.sc" xMin="34" yMin="0" xMax="677" yMax="820">
      <component glyphName="yacute.sc" x="0" y="0" flags="0x204"/>
    </TTGlyph>
    <TTGlyph name="Ycircumflex" xMin="32" yMin="0" xMax="768" yMax="972">
      <component glyphName="Y" x="0" y="0" flags="0x204"/>
      <component glyphName="circumflex" x="150" y="168" flags="0x4"/>
    </TTGlyph>
    <TTGlyph name="Ycircumflex.sc" xMin="34" yMin="0" xMax="677" yMax="854">
      <component glyphName="ycircumflex.sc" x="0" y="0" flags="0x204"/>
    </TTGlyph>
    <TTGlyph name="Ydieresis" xMin="32" yMin="0" xMax="768" yMax="913">
      <component glyphName="Y" x="0" y="0" flags="0x204"/>
      <component glyphName="dieresis" x="150" y="168" flags="0x4"/>
    </TTGlyph>
    <TTGlyph name="Ydieresis.sc" xMin="34" yMin="0" xMax="677" yMax="795">
      <component glyphName="ydieresis.sc" x="0" y="0" flags="0x204"/>
    </TTGlyph>
    <TTGlyph name="Ygrave" xMin="32" yMin="0" xMax="768" yMax="938">
      <component glyphName="Y" x="0" y="0" flags="0x204"/>
      <component glyphName="grave" x="98" y="144" flags="0x4"/>
    </TTGlyph>
    <TTGlyph name="Ygrave.sc" xMin="34" yMin="0" xMax="677" yMax="820">
      <component glyphName="ygrave.sc" x="0" y="0" flags="0x204"/>
    </TTGlyph>
    <TTGlyph name="Z" xMin="80" yMin="0" xMax="707" yMax="700">
      <contour>
        <pt x="80" y="0" on="1"/>
        <pt x="80" y="99" on="1"/>
        <pt x="568" y="606" on="1"/>
        <pt x="93" y="606" on="1"/>
        <pt x="97" y="700" on="1"/>
        <pt x="707" y="700" on="1"/>
        <pt x="707" y="610" on="1"/>
        <pt x="210" y="94" on="1"/>
        <pt x="707" y="94" on="1"/>
        <pt x="707" y="0" on="1"/>
      </contour>
    </TTGlyph>
    <TTGlyph name="Z.sc" xMin="80" yMin="0" xMax="624" yMax="582">
      <component glyphName="z.sc" x="0" y="0" flags="0x204"/>
    </TTGlyph>
    <TTGlyph name="Zacute" xMin="80" yMin="0" xMax="707" yMax="962">
      <component glyphName="Z" x="0" y="0" flags="0x204"/>
      <component glyphName="acute" x="201" y="168" flags="0x4"/>
    </TTGlyph>
    <TTGlyph name="Zacute.sc" xMin="80" yMin="0" xMax="624" yMax="844">
      <component glyphName="zacute.sc" x="0" y="0" flags="0x204"/>
    </TTGlyph>
    <TTGlyph name="Zcaron" xMin="80" yMin="0" xMax="707" yMax="972">
      <component glyphName="Z" x="0" y="0" flags="0x204"/>
      <component glyphName="caron" x="148" y="168" flags="0x4"/>
    </TTGlyph>
    <TTGlyph name="Zcaron.sc" xMin="80" yMin="0" xMax="624" yMax="854">
      <component glyphName="zcaron.sc" x="0" y="0" flags="0x204"/>
    </TTGlyph>
    <TTGlyph name="Zdotaccent" xMin="80" yMin="0" xMax="707" yMax="919">
      <component glyphName="Z" x="0" y="0" flags="0x204"/>
      <component glyphName="dotaccent" x="148" y="168" flags="0x4"/>
    </TTGlyph>
    <TTGlyph name="Zdotaccent.sc" xMin="80" yMin="0" xMax="624" yMax="801">
      <component glyphName="zdotaccent.sc" x="0" y="0" flags="0x204"/>
    </TTGlyph>
    <TTGlyph name="a" xMin="63" yMin="-14" xMax="543" yMax="547">
      <contour>
        <pt x="240" y="-14" on="1"/>
        <pt x="155" y="-14" on="0"/>
        <pt x="63" y="66" on="0"/>
        <pt x="63" y="129" on="1"/>
        <pt x="63" y="160" on="0"/>
        <pt x="86" y="212" on="0"/>
        <pt x="105" y="231" on="1"/>
        <pt x="136" y="262" on="0"/>
        <pt x="292" y="314" on="0"/>
        <pt x="444" y="321" on="1"/>
        <pt x="444" y="344" on="1"/>
        <pt x="444" y="400" on="0"/>
        <pt x="380" y="461" on="0"/>
        <pt x="316" y="461" on="1"/>
        <pt x="262" y="461" on="0"/>
        <pt x="151" y="419" on="0"/>
        <pt x="102" y="382" on="1"/>
        <pt x="101" y="382" on="1"/>
        <pt x="101" y="478" on="1"/>
        <pt x="155" y="512" on="0"/>
        <pt x="272" y="547" on="0"/>
        <pt x="329" y="547" on="1"/>
        <pt x="435" y="547" on="0"/>
        <pt x="543" y="439" on="0"/>
        <pt x="543" y="341" on="1"/>
        <pt x="543" y="0" on="1"/>
        <pt x="450" y="0" on="1"/>
        <pt x="448" y="81" on="1"/>
        <pt x="407" y="37" on="0"/>
        <pt x="304" y="-14" on="0"/>
      </contour>
      <contour>
        <pt x="262" y="61" on="1"/>
        <pt x="317" y="61" on="0"/>
        <pt x="411" y="110" on="0"/>
        <pt x="444" y="145" on="1"/>
        <pt x="444" y="255" on="1"/>
        <pt x="331" y="248" on="0"/>
        <pt x="210" y="216" on="0"/>
        <pt x="183" y="190" on="1"/>
        <pt x="171" y="178" on="0"/>
        <pt x="161" y="149" on="0"/>
        <pt x="161" y="136" on="1"/>
        <pt x="161" y="101" on="0"/>
        <pt x="216" y="61" on="0"/>
      </contour>
    </TTGlyph>
    <TTGlyph name="a.sc" xMin="51" yMin="0" xMax="697" yMax="582">
      <contour>
        <pt x="51" y="0" on="1"/>
        <pt x="275" y="582" on="1"/>
        <pt x="474" y="582" on="1"/>
        <pt x="697" y="0" on="1"/>
        <pt x="593" y="0" on="1"/>
        <pt x="540" y="140" on="1"/>
        <pt x="207" y="140" on="1"/>
        <pt x="155" y="0" on="1"/>
      </contour>
      <contour>
        <pt x="344" y="496" on="1"/>
        <pt x="238" y="224" on="1"/>
        <pt x="508" y="224" on="1"/>
        <pt x="403" y="496" on="1"/>
      </contour>
    </TTGlyph>
    <TTGlyph name="aacute" xMin="63" yMin="-14" xMax="543" yMax="809">
      <component glyphName="a" x="0" y="0" flags="0x204"/>
      <component glyphName="acute" x="126" y="15" flags="0x4"/>
    </TTGlyph>
    <TTGlyph name="aacute.sc" xMin="51" yMin="0" xMax="697" yMax="844">
      <component glyphName="a.sc" x="0" y="0" flags="0x204"/>
      <component glyphName="acute" x="179" y="50" flags="0x4"/>
    </TTGlyph>
    <TTGlyph name="abreve" xMin="63" yMin="-14" xMax="543" yMax="826">
      <component glyphName="a" x="0" y="0" flags="0x204"/>
      <component glyphName="breve" x="73" y="15" flags="0x4"/>
    </TTGlyph>
    <TTGlyph name="abreve.sc" xMin="51" yMin="0" xMax="697" yMax="861">
      <component glyphName="a.sc" x="0" y="0" flags="0x204"/>
      <component glyphName="breve" x="126" y="50" flags="0x4"/>
    </TTGlyph>
    <TTGlyph name="acircumflex" xMin="63" yMin="-14" xMax="543" yMax="819">
      <component glyphName="a" x="0" y="0" flags="0x204"/>
      <component glyphName="circumflex" x="73" y="15" flags="0x4"/>
    </TTGlyph>
    <TTGlyph name="acircumflex.sc" xMin="51" yMin="0" xMax="697" yMax="854">
      <component glyphName="a.sc" x="0" y="0" flags="0x204"/>
      <component glyphName="circumflex" x="126" y="50" flags="0x4"/>
    </TTGlyph>
    <TTGlyph name="acute" xMin="137" yMin="630" xMax="398" yMax="794">
      <contour>
        <pt x="137" y="630" on="1"/>
        <pt x="266" y="794" on="1"/>
        <pt x="398" y="794" on="1"/>
        <pt x="398" y="789" on="1"/>
        <pt x="231" y="630" on="1"/>
      </contour>
    </TTGlyph>
    <TTGlyph name="adieresis" xMin="63" yMin="-14" xMax="543" yMax="760">
      <component glyphName="a" x="0" y="0" flags="0x204"/>
      <component glyphName="dieresis" x="73" y="15" flags="0x4"/>
    </TTGlyph>
    <TTGlyph name="adieresis.sc" xMin="51" yMin="0" xMax="697" yMax="795">
      <component glyphName="a.sc" x="0" y="0" flags="0x204"/>
      <component glyphName="dieresis" x="126" y="50" flags="0x4"/>
    </TTGlyph>
    <TTGlyph name="ae" xMin="63" yMin="-14" xMax="975" yMax="547">
      <contour>
        <pt x="947" y="43" on="1"/>
        <pt x="910" y="20" on="0"/>
        <pt x="802" y="-14" on="0"/>
        <pt x="739" y="-14" on="1"/>
        <pt x="649" y="-14" on="0"/>
        <pt x="523" y="46" on="0"/>
        <pt x="489" y="97" on="1"/>
        <pt x="433" y="38" on="0"/>
        <pt x="311" y="-14" on="0"/>
        <pt x="242" y="-14" on="1"/>
        <pt x="154" y="-14" on="0"/>
        <pt x="63" y="65" on="0"/>
        <pt x="63" y="129" on="1"/>
        <pt x="63" y="161" on="0"/>
        <pt x="87" y="213" on="0"/>
        <pt x="105" y="230" on="1"/>
        <pt x="121" y="246" on="0"/>
        <pt x="172" y="275" on="0"/>
        <pt x="252" y="298" on="0"/>
        <pt x="367" y="316" on="0"/>
        <pt x="446" y="320" on="1"/>
        <pt x="446" y="347" on="1"/>
        <pt x="446" y="404" on="0"/>
        <pt x="378" y="461" on="0"/>
        <pt x="316" y="461" on="1"/>
        <pt x="262" y="461" on="0"/>
        <pt x="151" y="419" on="0"/>
        <pt x="102" y="382" on="1"/>
        <pt x="101" y="382" on="1"/>
        <pt x="101" y="477" on="1"/>
        <pt x="155" y="512" on="0"/>
        <pt x="270" y="547" on="0"/>
        <pt x="326" y="547" on="1"/>
        <pt x="398" y="547" on="0"/>
        <pt x="497" y="492" on="0"/>
        <pt x="515" y="441" on="1"/>
        <pt x="545" y="489" on="0"/>
        <pt x="654" y="547" on="0"/>
        <pt x="722" y="547" on="1"/>
        <pt x="787" y="547" on="0"/>
        <pt x="883" y="503" on="0"/>
        <pt x="945" y="429" on="0"/>
        <pt x="975" y="330" on="0"/>
        <pt x="975" y="276" on="1"/>
        <pt x="975" y="269" on="0"/>
        <pt x="975" y="252" on="0"/>
        <pt x="974" y="245" on="1"/>
        <pt x="542" y="245" on="1"/>
        <pt x="546" y="161" on="0"/>
        <pt x="653" y="70" on="0"/>
        <pt x="743" y="70" on="1"/>
        <pt x="800" y="70" on="0"/>
        <pt x="900" y="103" on="0"/>
        <pt x="946" y="133" on="1"/>
        <pt x="947" y="133" on="1"/>
      </contour>
      <contour>
        <pt x="719" y="465" on="1"/>
        <pt x="653" y="465" on="0"/>
        <pt x="560" y="383" on="0"/>
        <pt x="547" y="314" on="1"/>
        <pt x="880" y="314" on="1"/>
        <pt x="876" y="377" on="0"/>
        <pt x="796" y="465" on="0"/>
      </contour>
      <contour>
        <pt x="161" y="136" on="1"/>
        <pt x="161" y="99" on="0"/>
        <pt x="216" y="61" on="0"/>
        <pt x="262" y="61" on="1"/>
        <pt x="323" y="61" on="0"/>
        <pt x="423" y="109" on="0"/>
        <pt x="463" y="149" on="1"/>
        <pt x="454" y="172" on="0"/>
        <pt x="445" y="225" on="0"/>
        <pt x="444" y="253" on="1"/>
        <pt x="326" y="246" on="0"/>
        <pt x="210" y="215" on="0"/>
        <pt x="184" y="190" on="1"/>
        <pt x="174" y="180" on="0"/>
        <pt x="161" y="152" on="0"/>
      </contour>
    </TTGlyph>
    <TTGlyph name="ae.sc" xMin="32" yMin="0" xMax="1040" yMax="582">
      <contour>
        <pt x="529" y="0" on="1"/>
        <pt x="529" y="146" on="1"/>
        <pt x="235" y="146" on="1"/>
        <pt x="142" y="0" on="1"/>
        <pt x="32" y="0" on="1"/>
        <pt x="406" y="582" on="1"/>
        <pt x="1021" y="582" on="1"/>
        <pt x="1025" y="497" on="1"/>
        <pt x="629" y="497" on="1"/>
        <pt x="629" y="337" on="1"/>
        <pt x="950" y="337" on="1"/>
        <pt x="950" y="254" on="1"/>
        <pt x="629" y="254" on="1"/>
        <pt x="629" y="86" on="1"/>
        <pt x="1040" y="86" on="1"/>
        <pt x="1036" y="0" on="1"/>
      </contour>
      <contour>
        <pt x="461" y="498" on="1"/>
        <pt x="288" y="230" on="1"/>
        <pt x="529" y="230" on="1"/>
        <pt x="529" y="498" on="1"/>
      </contour>
    </TTGlyph>
    <TTGlyph name="aeacute" xMin="63" yMin="-14" xMax="975" yMax="793">
      <component glyphName="ae" x="0" y="0" flags="0x204"/>
      <component glyphName="acute" x="337" y="-1" flags="0x4"/>
    </TTGlyph>
    <TTGlyph name="aeacute.sc" xMin="32" yMin="0" xMax="1040" yMax="844">
      <component glyphName="ae.sc" x="0" y="0" flags="0x204"/>
      <component glyphName="acute" x="419" y="50" flags="0x4"/>
    </TTGlyph>
    <TTGlyph name="agrave" xMin="63" yMin="-14" xMax="543" yMax="809">
      <component glyphName="a" x="0" y="0" flags="0x204"/>
      <component glyphName="grave" x="21" y="15" flags="0x4"/>
    </TTGlyph>
    <TTGlyph name="agrave.sc" xMin="51" yMin="0" xMax="697" yMax="844">
      <component glyphName="a.sc" x="0" y="0" flags="0x204"/>
      <component glyphName="grave" x="74" y="50" flags="0x4"/>
    </TTGlyph>
    <TTGlyph name="amacron" xMin="63" yMin="-14" xMax="543" yMax="738">
      <component glyphName="a" x="0" y="0" flags="0x204"/>
      <component glyphName="macron" x="73" y="15" flags="0x4"/>
    </TTGlyph>
    <TTGlyph name="amacron.sc" xMin="51" yMin="0" xMax="697" yMax="773">
      <component glyphName="a.sc" x="0" y="0" flags="0x204"/>
      <component glyphName="macron" x="126" y="50" flags="0x4"/>
    </TTGlyph>
    <TTGlyph name="ampersand" xMin="69" yMin="-16" xMax="821" yMax="700">
      <contour>
        <pt x="276" y="-16" on="1"/>
        <pt x="186" y="-16" on="0"/>
        <pt x="69" y="74" on="0"/>
        <pt x="69" y="159" on="1"/>
        <pt x="69" y="234" on="0"/>
        <pt x="183" y="352" on="0"/>
        <pt x="290" y="415" on="1"/>
        <pt x="316" y="430" on="1"/>
        <pt x="165" y="600" on="1"/>
        <pt x="165" y="700" on="1"/>
        <pt x="672" y="700" on="1"/>
        <pt x="676" y="613" on="1"/>
        <pt x="284" y="613" on="1"/>
        <pt x="601" y="253" on="1"/>
        <pt x="794" y="432" on="1"/>
        <pt x="795" y="432" on="1"/>
        <pt x="795" y="316" on="1"/>
        <pt x="654" y="189" on="1"/>
        <pt x="821" y="0" on="1"/>
        <pt x="697" y="0" on="1"/>
        <pt x="585" y="125" on="1"/>
        <pt x="507" y="61" on="0"/>
        <pt x="363" y="-16" on="0"/>
      </contour>
      <contour>
        <pt x="172" y="167" on="1"/>
        <pt x="172" y="123" on="0"/>
        <pt x="236" y="73" on="0"/>
        <pt x="287" y="73" on="1"/>
        <pt x="341" y="73" on="0"/>
        <pt x="456" y="129" on="0"/>
        <pt x="531" y="190" on="1"/>
        <pt x="373" y="367" on="1"/>
        <pt x="353" y="355" on="1"/>
        <pt x="259" y="299" on="0"/>
        <pt x="172" y="217" on="0"/>
      </contour>
    </TTGlyph>
    <TTGlyph name="ampersand.sc" xMin="76" yMin="-15" xMax="762" yMax="582">
      <contour>
        <pt x="252" y="-15" on="1"/>
        <pt x="174" y="-15" on="0"/>
        <pt x="76" y="61" on="0"/>
        <pt x="76" y="129" on="1"/>
        <pt x="76" y="193" on="0"/>
        <pt x="164" y="288" on="0"/>
        <pt x="254" y="346" on="1"/>
        <pt x="281" y="363" on="1"/>
        <pt x="155" y="490" on="1"/>
        <pt x="155" y="582" on="1"/>
        <pt x="616" y="582" on="1"/>
        <pt x="619" y="502" on="1"/>
        <pt x="269" y="502" on="1"/>
        <pt x="544" y="221" on="1"/>
        <pt x="719" y="366" on="1"/>
        <pt x="719" y="260" on="1"/>
        <pt x="600" y="162" on="1"/>
        <pt x="762" y="0" on="1"/>
        <pt x="641" y="0" on="1"/>
        <pt x="534" y="107" on="1"/>
        <pt x="450" y="43" on="0"/>
        <pt x="322" y="-15" on="0"/>
      </contour>
      <contour>
        <pt x="175" y="140" on="1"/>
        <pt x="175" y="105" on="0"/>
        <pt x="223" y="69" on="0"/>
        <pt x="259" y="69" on="1"/>
        <pt x="300" y="69" on="0"/>
        <pt x="397" y="108" on="0"/>
        <pt x="475" y="168" on="1"/>
        <pt x="338" y="306" on="1"/>
        <pt x="315" y="292" on="1"/>
        <pt x="237" y="243" on="0"/>
        <pt x="175" y="176" on="0"/>
      </contour>
    </TTGlyph>
    <TTGlyph name="aogonek" xMin="63" yMin="-289" xMax="572" yMax="547">
      <contour>
        <pt x="240" y="-14" on="1"/>
        <pt x="155" y="-14" on="0"/>
        <pt x="63" y="66" on="0"/>
        <pt x="63" y="129" on="1"/>
        <pt x="63" y="160" on="0"/>
        <pt x="86" y="212" on="0"/>
        <pt x="105" y="231" on="1"/>
        <pt x="136" y="262" on="0"/>
        <pt x="292" y="314" on="0"/>
        <pt x="444" y="321" on="1"/>
        <pt x="444" y="344" on="1"/>
        <pt x="444" y="400" on="0"/>
        <pt x="380" y="461" on="0"/>
        <pt x="316" y="461" on="1"/>
        <pt x="262" y="461" on="0"/>
        <pt x="151" y="419" on="0"/>
        <pt x="102" y="382" on="1"/>
        <pt x="101" y="382" on="1"/>
        <pt x="101" y="478" on="1"/>
        <pt x="155" y="512" on="0"/>
        <pt x="272" y="547" on="0"/>
        <pt x="329" y="547" on="1"/>
        <pt x="435" y="547" on="0"/>
        <pt x="543" y="439" on="0"/>
        <pt x="543" y="341" on="1"/>
        <pt x="543" y="0" on="1"/>
        <pt x="486" y="-55" on="1"/>
        <pt x="444" y="-97" on="0"/>
        <pt x="411" y="-141" on="0"/>
        <pt x="411" y="-163" on="1"/>
        <pt x="411" y="-188" on="0"/>
        <pt x="451" y="-214" on="0"/>
        <pt x="485" y="-214" on="1"/>
        <pt x="504" y="-214" on="0"/>
        <pt x="550" y="-203" on="0"/>
        <pt x="572" y="-190" on="1"/>
        <pt x="572" y="-268" on="1"/>
        <pt x="546" y="-278" on="0"/>
        <pt x="497" y="-289" on="0"/>
        <pt x="466" y="-289" on="1"/>
        <pt x="382" y="-289" on="0"/>
        <pt x="319" y="-220" on="0"/>
        <pt x="319" y="-180" on="1"/>
        <pt x="319" y="-140" on="0"/>
        <pt x="372" y="-65" on="0"/>
        <pt x="423" y="-18" on="1"/>
        <pt x="450" y="6" on="1"/>
        <pt x="448" y="81" on="1"/>
        <pt x="407" y="37" on="0"/>
        <pt x="304" y="-14" on="0"/>
      </contour>
      <contour>
        <pt x="262" y="61" on="1"/>
        <pt x="317" y="61" on="0"/>
        <pt x="411" y="110" on="0"/>
        <pt x="444" y="145" on="1"/>
        <pt x="444" y="255" on="1"/>
        <pt x="331" y="248" on="0"/>
        <pt x="210" y="216" on="0"/>
        <pt x="183" y="190" on="1"/>
        <pt x="171" y="178" on="0"/>
        <pt x="161" y="149" on="0"/>
        <pt x="161" y="136" on="1"/>
        <pt x="161" y="101" on="0"/>
        <pt x="216" y="61" on="0"/>
      </contour>
    </TTGlyph>
    <TTGlyph name="aogonek.sc" xMin="51" yMin="-289" xMax="726" yMax="582">
      <contour>
        <pt x="51" y="0" on="1"/>
        <pt x="275" y="582" on="1"/>
        <pt x="474" y="582" on="1"/>
        <pt x="697" y="0" on="1"/>
        <pt x="640" y="-55" on="1"/>
        <pt x="598" y="-97" on="0"/>
        <pt x="565" y="-141" on="0"/>
        <pt x="565" y="-163" on="1"/>
        <pt x="565" y="-188" on="0"/>
        <pt x="605" y="-214" on="0"/>
        <pt x="639" y="-214" on="1"/>
        <pt x="658" y="-214" on="0"/>
        <pt x="704" y="-203" on="0"/>
        <pt x="726" y="-190" on="1"/>
        <pt x="726" y="-268" on="1"/>
        <pt x="700" y="-278" on="0"/>
        <pt x="651" y="-289" on="0"/>
        <pt x="620" y="-289" on="1"/>
        <pt x="536" y="-289" on="0"/>
        <pt x="473" y="-220" on="0"/>
        <pt x="473" y="-180" on="1"/>
        <pt x="473" y="-140" on="0"/>
        <pt x="526" y="-65" on="0"/>
        <pt x="577" y="-18" on="1"/>
        <pt x="594" y="-3" on="1"/>
        <pt x="540" y="140" on="1"/>
        <pt x="207" y="140" on="1"/>
        <pt x="155" y="0" on="1"/>
      </contour>
      <contour>
        <pt x="344" y="496" on="1"/>
        <pt x="238" y="224" on="1"/>
        <pt x="508" y="224" on="1"/>
        <pt x="403" y="496" on="1"/>
      </contour>
    </TTGlyph>
    <TTGlyph name="aring" xMin="63" yMin="-14" xMax="543" yMax="914">
      <component glyphName="a" x="0" y="0" flags="0x204"/>
      <component glyphName="ring" x="17" y="15" flags="0x4"/>
    </TTGlyph>
    <TTGlyph name="aring.sc" xMin="51" yMin="0" xMax="697" yMax="949">
      <component glyphName="a.sc" x="0" y="0" flags="0x204"/>
      <component glyphName="ring" x="70" y="50" flags="0x4"/>
    </TTGlyph>
    <TTGlyph name="aringacute" xMin="63" yMin="-14" xMax="543" yMax="1152">
      <component glyphName="a" x="0" y="0" flags="0x204"/>
      <component glyphName="ring" x="17" y="15" flags="0x4"/>
      <component glyphName="acute" x="134" y="358" flags="0x4"/>
    </TTGlyph>
    <TTGlyph name="aringacute.sc" xMin="51" yMin="0" xMax="697" yMax="1187">
      <component glyphName="a.sc" x="0" y="0" flags="0x204"/>
      <component glyphName="ring" x="70" y="50" flags="0x4"/>
      <component glyphName="acute" x="179" y="393" flags="0x4"/>
    </TTGlyph>
    <TTGlyph name="asciicircum" xMin="84" yMin="370" xMax="623" yMax="700">
      <contour>
        <pt x="84" y="370" on="1"/>
        <pt x="276" y="700" on="1"/>
        <pt x="428" y="700" on="1"/>
        <pt x="623" y="370" on="1"/>
        <pt x="514" y="370" on="1"/>
        <pt x="376" y="607" on="1"/>
        <pt x="327" y="607" on="1"/>
        <pt x="191" y="370" on="1"/>
      </contour>
    </TTGlyph>
    <TTGlyph name="asciicircum.tab" xMin="92" yMin="370" xMax="631" yMax="700">
      <component glyphName="asciicircum" x="8" y="0" flags="0x4"/>
    </TTGlyph>
    <TTGlyph name="asciitilde" xMin="93" yMin="242" xMax="655" yMax="458">
      <contour>
        <pt x="93" y="366" on="1"/>
        <pt x="123" y="402" on="0"/>
        <pt x="199" y="449" on="0"/>
        <pt x="246" y="449" on="1"/>
        <pt x="286" y="449" on="0"/>
        <pt x="351" y="421" on="0"/>
        <pt x="395" y="393" on="1"/>
        <pt x="439" y="366" on="0"/>
        <pt x="480" y="350" on="0"/>
        <pt x="505" y="350" on="1"/>
        <pt x="544" y="350" on="0"/>
        <pt x="615" y="406" on="0"/>
        <pt x="654" y="458" on="1"/>
        <pt x="655" y="458" on="1"/>
        <pt x="655" y="335" on="1"/>
        <pt x="625" y="298" on="0"/>
        <pt x="550" y="251" on="0"/>
        <pt x="503" y="251" on="1"/>
        <pt x="462" y="251" on="0"/>
        <pt x="398" y="279" on="0"/>
        <pt x="353" y="307" on="1"/>
        <pt x="310" y="334" on="0"/>
        <pt x="268" y="351" on="0"/>
        <pt x="244" y="351" on="1"/>
        <pt x="205" y="351" on="0"/>
        <pt x="134" y="294" on="0"/>
        <pt x="94" y="242" on="1"/>
        <pt x="93" y="242" on="1"/>
      </contour>
    </TTGlyph>
    <TTGlyph name="asciitilde.tab" xMin="80" yMin="242" xMax="642" yMax="458">
      <component glyphName="asciitilde" x="-13" y="0" flags="0x4"/>
    </TTGlyph>
    <TTGlyph name="asterisk" xMin="74" yMin="342" xMax="436" yMax="713">
      <contour>
        <pt x="355" y="372" on="1"/>
        <pt x="269" y="433" on="1"/>
        <pt x="219" y="342" on="1"/>
        <pt x="194" y="347" on="1"/>
        <pt x="189" y="452" on="1"/>
        <pt x="85" y="433" on="1"/>
        <pt x="74" y="457" on="1"/>
        <pt x="154" y="527" on="1"/>
        <pt x="74" y="596" on="1"/>
        <pt x="86" y="620" on="1"/>
        <pt x="188" y="602" on="1"/>
        <pt x="193" y="707" on="1"/>
        <pt x="219" y="713" on="1"/>
        <pt x="270" y="619" on="1"/>
        <pt x="356" y="682" on="1"/>
        <pt x="376" y="666" on="1"/>
        <pt x="335" y="569" on="1"/>
        <pt x="436" y="541" on="1"/>
        <pt x="436" y="514" on="1"/>
        <pt x="334" y="486" on="1"/>
        <pt x="376" y="389" on="1"/>
      </contour>
    </TTGlyph>
    <TTGlyph name="at" xMin="99" yMin="-111" xMax="1006" yMax="765">
      <contour>
        <pt x="813" y="121" on="1"/>
        <pt x="764" y="121" on="0"/>
        <pt x="692" y="159" on="0"/>
        <pt x="676" y="201" on="1"/>
        <pt x="639" y="164" on="0"/>
        <pt x="556" y="123" on="0"/>
        <pt x="508" y="123" on="1"/>
        <pt x="443" y="123" on="0"/>
        <pt x="374" y="185" on="0"/>
        <pt x="374" y="233" on="1"/>
        <pt x="374" y="258" on="0"/>
        <pt x="391" y="297" on="0"/>
        <pt x="405" y="311" on="1"/>
        <pt x="428" y="334" on="0"/>
        <pt x="543" y="373" on="0"/>
        <pt x="661" y="380" on="1"/>
        <pt x="661" y="395" on="1"/>
        <pt x="661" y="437" on="0"/>
        <pt x="615" y="479" on="0"/>
        <pt x="570" y="479" on="1"/>
        <pt x="526" y="479" on="0"/>
        <pt x="443" y="448" on="0"/>
        <pt x="405" y="420" on="1"/>
        <pt x="405" y="497" on="1"/>
        <pt x="446" y="524" on="0"/>
        <pt x="534" y="550" on="0"/>
        <pt x="580" y="550" on="1"/>
        <pt x="661" y="550" on="0"/>
        <pt x="743" y="467" on="0"/>
        <pt x="743" y="393" on="1"/>
        <pt x="743" y="276" on="1"/>
        <pt x="743" y="229" on="0"/>
        <pt x="783" y="189" on="0"/>
        <pt x="818" y="189" on="1"/>
        <pt x="868" y="189" on="0"/>
        <pt x="927" y="279" on="0"/>
        <pt x="927" y="377" on="1"/>
        <pt x="927" y="441" on="0"/>
        <pt x="886" y="556" on="0"/>
        <pt x="802" y="640" on="0"/>
        <pt x="670" y="690" on="0"/>
        <pt x="580" y="690" on="1"/>
        <pt x="490" y="690" on="0"/>
        <pt x="343" y="639" on="0"/>
        <pt x="240" y="543" on="0"/>
        <pt x="183" y="401" on="0"/>
        <pt x="183" y="310" on="1"/>
        <pt x="183" y="138" on="0"/>
        <pt x="384" y="-36" on="0"/>
        <pt x="562" y="-36" on="1"/>
        <pt x="649" y="-36" on="0"/>
        <pt x="792" y="-2" on="0"/>
        <pt x="858" y="31" on="1"/>
        <pt x="858" y="-48" on="1"/>
        <pt x="801" y="-76" on="0"/>
        <pt x="644" y="-111" on="0"/>
        <pt x="562" y="-111" on="1"/>
        <pt x="449" y="-111" on="0"/>
        <pt x="275" y="-53" on="0"/>
        <pt x="159" y="55" on="0"/>
        <pt x="99" y="212" on="0"/>
        <pt x="99" y="310" on="1"/>
        <pt x="99" y="416" on="0"/>
        <pt x="170" y="586" on="0"/>
        <pt x="297" y="703" on="0"/>
        <pt x="474" y="765" on="0"/>
        <pt x="580" y="765" on="1"/>
        <pt x="684" y="765" on="0"/>
        <pt x="845" y="707" on="0"/>
        <pt x="951" y="605" on="0"/>
        <pt x="1006" y="462" on="0"/>
        <pt x="1006" y="378" on="1"/>
        <pt x="1006" y="323" on="0"/>
        <pt x="984" y="228" on="0"/>
        <pt x="937" y="160" on="0"/>
        <pt x="863" y="121" on="0"/>
      </contour>
      <contour>
        <pt x="526" y="185" on="1"/>
        <pt x="565" y="185" on="0"/>
        <pt x="635" y="220" on="0"/>
        <pt x="661" y="246" on="1"/>
        <pt x="661" y="326" on="1"/>
        <pt x="577" y="320" on="0"/>
        <pt x="490" y="297" on="0"/>
        <pt x="471" y="278" on="1"/>
        <pt x="461" y="268" on="0"/>
        <pt x="455" y="248" on="0"/>
        <pt x="455" y="239" on="1"/>
        <pt x="455" y="214" on="0"/>
        <pt x="493" y="185" on="0"/>
      </contour>
    </TTGlyph>
    <TTGlyph name="at.cap" xMin="99" yMin="-88" xMax="1006" yMax="788">
      <component glyphName="at" x="0" y="23" flags="0x4"/>
    </TTGlyph>
    <TTGlyph name="atilde" xMin="63" yMin="-14" xMax="543" yMax="787">
      <component glyphName="a" x="0" y="0" flags="0x204"/>
      <component glyphName="tilde" x="73" y="15" flags="0x4"/>
    </TTGlyph>
    <TTGlyph name="atilde.sc" xMin="51" yMin="0" xMax="697" yMax="822">
      <component glyphName="a.sc" x="0" y="0" flags="0x204"/>
      <component glyphName="tilde" x="126" y="50" flags="0x4"/>
    </TTGlyph>
    <TTGlyph name="b" xMin="95" yMin="-15" xMax="636" yMax="750">
      <contour>
        <pt x="195" y="750" on="1"/>
        <pt x="195" y="469" on="1"/>
        <pt x="226" y="500" on="0"/>
        <pt x="321" y="547" on="0"/>
        <pt x="384" y="547" on="1"/>
        <pt x="436" y="547" on="0"/>
        <pt x="528" y="510" on="0"/>
        <pt x="596" y="443" on="0"/>
        <pt x="636" y="345" on="0"/>
        <pt x="636" y="284" on="1"/>
        <pt x="636" y="218" on="0"/>
        <pt x="592" y="107" on="0"/>
        <pt x="515" y="29" on="0"/>
        <pt x="407" y="-15" on="0"/>
        <pt x="344" y="-15" on="1"/>
        <pt x="295" y="-15" on="0"/>
        <pt x="204" y="8" on="0"/>
        <pt x="163" y="27" on="1"/>
        <pt x="95" y="27" on="1"/>
        <pt x="95" y="750" on="1"/>
      </contour>
      <contour>
        <pt x="359" y="462" on="1"/>
        <pt x="306" y="462" on="0"/>
        <pt x="222" y="421" on="0"/>
        <pt x="195" y="393" on="1"/>
        <pt x="195" y="109" on="1"/>
        <pt x="226" y="91" on="0"/>
        <pt x="298" y="68" on="0"/>
        <pt x="340" y="68" on="1"/>
        <pt x="381" y="68" on="0"/>
        <pt x="452" y="97" on="0"/>
        <pt x="505" y="151" on="0"/>
        <pt x="536" y="229" on="0"/>
        <pt x="536" y="278" on="1"/>
        <pt x="536" y="366" on="0"/>
        <pt x="437" y="462" on="0"/>
      </contour>
    </TTGlyph>
    <TTGlyph name="b.sc" xMin="118" yMin="0" xMax="666" yMax="582">
      <contour>
        <pt x="118" y="0" on="1"/>
        <pt x="118" y="582" on="1"/>
        <pt x="452" y="582" on="1"/>
        <pt x="551" y="582" on="0"/>
        <pt x="654" y="508" on="0"/>
        <pt x="654" y="437" on="1"/>
        <pt x="654" y="388" on="0"/>
        <pt x="602" y="317" on="0"/>
        <pt x="537" y="302" on="1"/>
        <pt x="602" y="283" on="0"/>
        <pt x="666" y="216" on="0"/>
        <pt x="666" y="162" on="1"/>
        <pt x="666" y="75" on="0"/>
        <pt x="544" y="0" on="0"/>
        <pt x="436" y="0" on="1"/>
      </contour>
      <contour>
        <pt x="216" y="336" on="1"/>
        <pt x="429" y="336" on="1"/>
        <pt x="492" y="336" on="0"/>
        <pt x="555" y="377" on="0"/>
        <pt x="555" y="420" on="1"/>
        <pt x="555" y="460" on="0"/>
        <pt x="497" y="498" on="0"/>
        <pt x="438" y="498" on="1"/>
        <pt x="216" y="498" on="1"/>
      </contour>
      <contour>
        <pt x="216" y="84" on="1"/>
        <pt x="438" y="86" on="1"/>
        <pt x="507" y="86" on="0"/>
        <pt x="567" y="129" on="0"/>
        <pt x="567" y="174" on="1"/>
        <pt x="567" y="216" on="0"/>
        <pt x="500" y="260" on="0"/>
        <pt x="434" y="260" on="1"/>
        <pt x="216" y="260" on="1"/>
      </contour>
    </TTGlyph>
    <TTGlyph name="backslash" xMin="56" yMin="-190" xMax="467" yMax="750">
      <contour>
        <pt x="467" y="-190" on="1"/>
        <pt x="373" y="-190" on="1"/>
        <pt x="56" y="750" on="1"/>
        <pt x="150" y="750" on="1"/>
      </contour>
    </TTGlyph>
    <TTGlyph name="backslash.cap" xMin="60" yMin="-120" xMax="471" yMax="820">
      <component glyphName="backslash" x="4" y="70" flags="0x4"/>
    </TTGlyph>
    <TTGlyph name="bar" xMin="206" yMin="-190" xMax="299" yMax="750">
      <contour>
        <pt x="206" y="-190" on="1"/>
        <pt x="206" y="750" on="1"/>
        <pt x="299" y="750" on="1"/>
        <pt x="299" y="-190" on="1"/>
      </contour>
    </TTGlyph>
    <TTGlyph name="bar.cap" xMin="206" yMin="-120" xMax="299" yMax="820">
      <component glyphName="bar" x="0" y="70" flags="0x4"/>
    </TTGlyph>
    <TTGlyph name="bar.tab" xMin="224" yMin="-120" xMax="317" yMax="820">
      <component glyphName="bar" x="18" y="70" flags="0x4"/>
    </TTGlyph>
    <TTGlyph name="braceleft" xMin="36" yMin="-202" xMax="473" yMax="762">
      <contour>
        <pt x="36" y="271" on="1"/>
        <pt x="36" y="289" on="1"/>
        <pt x="181" y="418" on="1"/>
        <pt x="178" y="436" on="0"/>
        <pt x="173" y="474" on="0"/>
        <pt x="169" y="506" on="0"/>
        <pt x="167" y="530" on="0"/>
        <pt x="167" y="533" on="1"/>
        <pt x="166" y="542" on="0"/>
        <pt x="165" y="560" on="0"/>
        <pt x="165" y="568" on="1"/>
        <pt x="165" y="621" on="0"/>
        <pt x="197" y="695" on="0"/>
        <pt x="253" y="741" on="0"/>
        <pt x="328" y="762" on="0"/>
        <pt x="370" y="762" on="1"/>
        <pt x="400" y="762" on="0"/>
        <pt x="451" y="755" on="0"/>
        <pt x="473" y="748" on="1"/>
        <pt x="473" y="663" on="1"/>
        <pt x="472" y="663" on="1"/>
        <pt x="452" y="670" on="0"/>
        <pt x="407" y="677" on="0"/>
        <pt x="385" y="677" on="1"/>
        <pt x="329" y="677" on="0"/>
        <pt x="257" y="614" on="0"/>
        <pt x="264" y="527" on="1"/>
        <pt x="264" y="523" on="0"/>
        <pt x="267" y="492" on="0"/>
        <pt x="272" y="451" on="0"/>
        <pt x="278" y="404" on="0"/>
        <pt x="281" y="385" on="1"/>
        <pt x="154" y="280" on="1"/>
        <pt x="281" y="175" on="1"/>
        <pt x="278" y="156" on="0"/>
        <pt x="272" y="109" on="0"/>
        <pt x="267" y="68" on="0"/>
        <pt x="264" y="37" on="0"/>
        <pt x="264" y="33" on="1"/>
        <pt x="257" y="-54" on="0"/>
        <pt x="329" y="-114" on="0"/>
        <pt x="385" y="-114" on="1"/>
        <pt x="407" y="-114" on="0"/>
        <pt x="452" y="-107" on="0"/>
        <pt x="472" y="-100" on="1"/>
        <pt x="473" y="-100" on="1"/>
        <pt x="473" y="-188" on="1"/>
        <pt x="451" y="-195" on="0"/>
        <pt x="400" y="-202" on="0"/>
        <pt x="370" y="-202" on="1"/>
        <pt x="328" y="-202" on="0"/>
        <pt x="253" y="-181" on="0"/>
        <pt x="197" y="-135" on="0"/>
        <pt x="165" y="-61" on="0"/>
        <pt x="165" y="-8" on="1"/>
        <pt x="165" y="0" on="0"/>
        <pt x="166" y="18" on="0"/>
        <pt x="167" y="27" on="1"/>
        <pt x="167" y="30" on="0"/>
        <pt x="169" y="54" on="0"/>
        <pt x="173" y="86" on="0"/>
        <pt x="178" y="124" on="0"/>
        <pt x="181" y="142" on="1"/>
      </contour>
    </TTGlyph>
    <TTGlyph name="braceleft.cap" xMin="36" yMin="-132" xMax="473" yMax="832">
      <component glyphName="braceleft" x="0" y="70" flags="0x4"/>
    </TTGlyph>
    <TTGlyph name="braceright" xMin="61" yMin="-202" xMax="498" yMax="762">
      <contour>
        <pt x="498" y="289" on="1"/>
        <pt x="498" y="271" on="1"/>
        <pt x="353" y="142" on="1"/>
        <pt x="356" y="124" on="0"/>
        <pt x="361" y="86" on="0"/>
        <pt x="365" y="54" on="0"/>
        <pt x="367" y="30" on="0"/>
        <pt x="367" y="27" on="1"/>
        <pt x="368" y="18" on="0"/>
        <pt x="369" y="0" on="0"/>
        <pt x="369" y="-8" on="1"/>
        <pt x="369" y="-61" on="0"/>
        <pt x="337" y="-135" on="0"/>
        <pt x="281" y="-181" on="0"/>
        <pt x="206" y="-202" on="0"/>
        <pt x="164" y="-202" on="1"/>
        <pt x="134" y="-202" on="0"/>
        <pt x="83" y="-195" on="0"/>
        <pt x="61" y="-188" on="1"/>
        <pt x="61" y="-103" on="1"/>
        <pt x="62" y="-103" on="1"/>
        <pt x="82" y="-110" on="0"/>
        <pt x="127" y="-117" on="0"/>
        <pt x="149" y="-117" on="1"/>
        <pt x="205" y="-117" on="0"/>
        <pt x="277" y="-54" on="0"/>
        <pt x="270" y="33" on="1"/>
        <pt x="270" y="37" on="0"/>
        <pt x="267" y="68" on="0"/>
        <pt x="262" y="109" on="0"/>
        <pt x="256" y="156" on="0"/>
        <pt x="253" y="175" on="1"/>
        <pt x="380" y="280" on="1"/>
        <pt x="253" y="385" on="1"/>
        <pt x="256" y="404" on="0"/>
        <pt x="262" y="451" on="0"/>
        <pt x="267" y="492" on="0"/>
        <pt x="270" y="523" on="0"/>
        <pt x="270" y="527" on="1"/>
        <pt x="277" y="614" on="0"/>
        <pt x="205" y="674" on="0"/>
        <pt x="149" y="674" on="1"/>
        <pt x="127" y="674" on="0"/>
        <pt x="82" y="667" on="0"/>
        <pt x="62" y="660" on="1"/>
        <pt x="61" y="660" on="1"/>
        <pt x="61" y="748" on="1"/>
        <pt x="83" y="755" on="0"/>
        <pt x="134" y="762" on="0"/>
        <pt x="164" y="762" on="1"/>
        <pt x="206" y="762" on="0"/>
        <pt x="281" y="741" on="0"/>
        <pt x="337" y="695" on="0"/>
        <pt x="369" y="621" on="0"/>
        <pt x="369" y="568" on="1"/>
        <pt x="369" y="560" on="0"/>
        <pt x="368" y="542" on="0"/>
        <pt x="367" y="533" on="1"/>
        <pt x="367" y="530" on="0"/>
        <pt x="365" y="506" on="0"/>
        <pt x="361" y="474" on="0"/>
        <pt x="356" y="436" on="0"/>
        <pt x="353" y="418" on="1"/>
      </contour>
    </TTGlyph>
    <TTGlyph name="braceright.cap" xMin="61" yMin="-132" xMax="498" yMax="832">
      <component glyphName="braceright" x="0" y="70" flags="0x4"/>
    </TTGlyph>
    <TTGlyph name="bracketleft" xMin="101" yMin="-190" xMax="392" yMax="750">
      <contour>
        <pt x="101" y="-190" on="1"/>
        <pt x="101" y="750" on="1"/>
        <pt x="392" y="750" on="1"/>
        <pt x="392" y="671" on="1"/>
        <pt x="197" y="671" on="1"/>
        <pt x="197" y="-111" on="1"/>
        <pt x="392" y="-111" on="1"/>
        <pt x="392" y="-190" on="1"/>
      </contour>
    </TTGlyph>
    <TTGlyph name="bracketleft.cap" xMin="101" yMin="-120" xMax="392" yMax="820">
      <component glyphName="bracketleft" x="0" y="70" flags="0x4"/>
    </TTGlyph>
    <TTGlyph name="bracketright" xMin="61" yMin="-190" xMax="352" yMax="750">
      <contour>
        <pt x="352" y="750" on="1"/>
        <pt x="352" y="-190" on="1"/>
        <pt x="61" y="-190" on="1"/>
        <pt x="61" y="-111" on="1"/>
        <pt x="256" y="-111" on="1"/>
        <pt x="256" y="671" on="1"/>
        <pt x="61" y="671" on="1"/>
        <pt x="61" y="750" on="1"/>
      </contour>
    </TTGlyph>
    <TTGlyph name="bracketright.cap" xMin="61" yMin="-120" xMax="352" yMax="820">
      <component glyphName="bracketright" x="0" y="70" flags="0x4"/>
    </TTGlyph>
    <TTGlyph name="breve" xMin="69" yMin="622" xMax="430" yMax="811">
      <contour>
        <pt x="250" y="622" on="1"/>
        <pt x="169" y="622" on="0"/>
        <pt x="69" y="694" on="0"/>
        <pt x="69" y="765" on="1"/>
        <pt x="69" y="776" on="0"/>
        <pt x="72" y="799" on="0"/>
        <pt x="75" y="811" on="1"/>
        <pt x="156" y="811" on="1"/>
        <pt x="154" y="801" on="0"/>
        <pt x="152" y="786" on="0"/>
        <pt x="152" y="779" on="1"/>
        <pt x="152" y="730" on="0"/>
        <pt x="213" y="696" on="0"/>
        <pt x="250" y="696" on="1"/>
        <pt x="287" y="696" on="0"/>
        <pt x="347" y="730" on="0"/>
        <pt x="347" y="778" on="1"/>
        <pt x="347" y="785" on="0"/>
        <pt x="345" y="801" on="0"/>
        <pt x="344" y="811" on="1"/>
        <pt x="425" y="811" on="1"/>
        <pt x="427" y="799" on="0"/>
        <pt x="430" y="775" on="0"/>
        <pt x="430" y="764" on="1"/>
        <pt x="430" y="694" on="0"/>
        <pt x="331" y="622" on="0"/>
      </contour>
    </TTGlyph>
    <TTGlyph name="bullet" xMin="83" yMin="203" xMax="326" yMax="433">
      <contour>
        <pt x="204" y="203" on="1"/>
        <pt x="146" y="203" on="0"/>
        <pt x="83" y="272" on="0"/>
        <pt x="83" y="318" on="1"/>
        <pt x="83" y="319" on="1"/>
        <pt x="83" y="365" on="0"/>
        <pt x="146" y="433" on="0"/>
        <pt x="204" y="433" on="1"/>
        <pt x="262" y="433" on="0"/>
        <pt x="326" y="365" on="0"/>
        <pt x="326" y="319" on="1"/>
        <pt x="326" y="318" on="1"/>
        <pt x="326" y="272" on="0"/>
        <pt x="262" y="203" on="0"/>
      </contour>
    </TTGlyph>
    <TTGlyph name="bullet.cap" xMin="83" yMin="235" xMax="326" yMax="465">
      <component glyphName="bullet" x="0" y="32" flags="0x4"/>
    </TTGlyph>
    <TTGlyph name="c" xMin="58" yMin="-14" xMax="541" yMax="547">
      <contour>
        <pt x="350" y="-14" on="1"/>
        <pt x="286" y="-14" on="0"/>
        <pt x="178" y="25" on="0"/>
        <pt x="101" y="96" on="0"/>
        <pt x="58" y="199" on="0"/>
        <pt x="58" y="262" on="1"/>
        <pt x="58" y="322" on="0"/>
        <pt x="102" y="427" on="0"/>
        <pt x="181" y="503" on="0"/>
        <pt x="290" y="547" on="0"/>
        <pt x="354" y="547" on="1"/>
        <pt x="409" y="547" on="0"/>
        <pt x="503" y="517" on="0"/>
        <pt x="541" y="489" on="1"/>
        <pt x="541" y="393" on="1"/>
        <pt x="540" y="393" on="1"/>
        <pt x="494" y="427" on="0"/>
        <pt x="404" y="460" on="0"/>
        <pt x="358" y="460" on="1"/>
        <pt x="269" y="460" on="0"/>
        <pt x="158" y="349" on="0"/>
        <pt x="158" y="265" on="1"/>
        <pt x="158" y="177" on="0"/>
        <pt x="269" y="73" on="0"/>
        <pt x="356" y="73" on="1"/>
        <pt x="405" y="73" on="0"/>
        <pt x="494" y="106" on="0"/>
        <pt x="540" y="140" on="1"/>
        <pt x="541" y="140" on="1"/>
        <pt x="541" y="43" on="1"/>
        <pt x="501" y="15" on="0"/>
        <pt x="404" y="-14" on="0"/>
      </contour>
    </TTGlyph>
    <TTGlyph name="c.sc" xMin="73" yMin="-14" xMax="634" yMax="595">
      <contour>
        <pt x="397" y="-14" on="1"/>
        <pt x="316" y="-14" on="0"/>
        <pt x="193" y="34" on="0"/>
        <pt x="113" y="116" on="0"/>
        <pt x="73" y="228" on="0"/>
        <pt x="73" y="291" on="1"/>
        <pt x="73" y="354" on="0"/>
        <pt x="118" y="465" on="0"/>
        <pt x="202" y="547" on="0"/>
        <pt x="326" y="595" on="0"/>
        <pt x="404" y="595" on="1"/>
        <pt x="479" y="595" on="0"/>
        <pt x="595" y="552" on="0"/>
        <pt x="634" y="521" on="1"/>
        <pt x="634" y="423" on="1"/>
        <pt x="633" y="423" on="1"/>
        <pt x="583" y="460" on="0"/>
        <pt x="468" y="507" on="0"/>
        <pt x="403" y="507" on="1"/>
        <pt x="352" y="507" on="0"/>
        <pt x="267" y="474" on="0"/>
        <pt x="208" y="416" on="0"/>
        <pt x="176" y="337" on="0"/>
        <pt x="176" y="291" on="1"/>
        <pt x="176" y="245" on="0"/>
        <pt x="204" y="165" on="0"/>
        <pt x="261" y="108" on="0"/>
        <pt x="346" y="75" on="0"/>
        <pt x="403" y="75" on="1"/>
        <pt x="470" y="75" on="0"/>
        <pt x="585" y="122" on="0"/>
        <pt x="633" y="158" on="1"/>
        <pt x="634" y="158" on="1"/>
        <pt x="634" y="58" on="1"/>
        <pt x="600" y="33" on="0"/>
        <pt x="476" y="-14" on="0"/>
      </contour>
    </TTGlyph>
    <TTGlyph name="cacute" xMin="58" yMin="-14" xMax="543" yMax="808">
      <component glyphName="c" x="0" y="0" flags="0x204"/>
      <component glyphName="acute" x="145" y="14" flags="0x4"/>
    </TTGlyph>
    <TTGlyph name="cacute.sc" xMin="73" yMin="-14" xMax="634" yMax="856">
      <component glyphName="c.sc" x="0" y="0" flags="0x204"/>
      <component glyphName="acute" x="195" y="62" flags="0x4"/>
    </TTGlyph>
    <TTGlyph name="caron" xMin="42" yMin="630" xMax="458" yMax="804">
      <contour>
        <pt x="458" y="804" on="1"/>
        <pt x="320" y="630" on="1"/>
        <pt x="180" y="630" on="1"/>
        <pt x="42" y="804" on="1"/>
        <pt x="146" y="804" on="1"/>
        <pt x="231" y="698" on="1"/>
        <pt x="269" y="698" on="1"/>
        <pt x="354" y="804" on="1"/>
      </contour>
    </TTGlyph>
    <TTGlyph name="caron.alt" xMin="189" yMin="599" xMax="295" yMax="773">
      <contour>
        <pt x="189" y="599" on="1"/>
        <pt x="189" y="773" on="1"/>
        <pt x="295" y="773" on="1"/>
        <pt x="295" y="763" on="1"/>
        <pt x="247" y="599" on="1"/>
      </contour>
    </TTGlyph>
    <TTGlyph name="ccaron" xMin="58" yMin="-14" xMax="550" yMax="818">
      <component glyphName="c" x="0" y="0" flags="0x204"/>
      <component glyphName="caron" x="92" y="14" flags="0x4"/>
    </TTGlyph>
    <TTGlyph name="ccaron.sc" xMin="73" yMin="-14" xMax="634" yMax="866">
      <component glyphName="c.sc" x="0" y="0" flags="0x204"/>
      <component glyphName="caron" x="142" y="62" flags="0x4"/>
    </TTGlyph>
    <TTGlyph name="ccedilla" xMin="58" yMin="-187" xMax="541" yMax="547">
      <contour>
        <pt x="541" y="43" on="1"/>
        <pt x="509" y="21" on="0"/>
        <pt x="433" y="-7" on="0"/>
        <pt x="392" y="-12" on="1"/>
        <pt x="284" y="-187" on="1"/>
        <pt x="155" y="-187" on="1"/>
        <pt x="155" y="-182" on="1"/>
        <pt x="303" y="-11" on="1"/>
        <pt x="193" y="2" on="0"/>
        <pt x="58" y="147" on="0"/>
        <pt x="58" y="262" on="1"/>
        <pt x="58" y="322" on="0"/>
        <pt x="102" y="427" on="0"/>
        <pt x="181" y="503" on="0"/>
        <pt x="290" y="547" on="0"/>
        <pt x="354" y="547" on="1"/>
        <pt x="409" y="547" on="0"/>
        <pt x="503" y="517" on="0"/>
        <pt x="541" y="489" on="1"/>
        <pt x="541" y="393" on="1"/>
        <pt x="540" y="393" on="1"/>
        <pt x="494" y="427" on="0"/>
        <pt x="404" y="460" on="0"/>
        <pt x="358" y="460" on="1"/>
        <pt x="269" y="460" on="0"/>
        <pt x="158" y="349" on="0"/>
        <pt x="158" y="265" on="1"/>
        <pt x="158" y="177" on="0"/>
        <pt x="269" y="73" on="0"/>
        <pt x="356" y="73" on="1"/>
        <pt x="405" y="73" on="0"/>
        <pt x="494" y="106" on="0"/>
        <pt x="540" y="140" on="1"/>
        <pt x="541" y="140" on="1"/>
      </contour>
    </TTGlyph>
    <TTGlyph name="ccedilla.sc" xMin="73" yMin="-187" xMax="634" yMax="595">
      <contour>
        <pt x="634" y="58" on="1"/>
        <pt x="606" y="37" on="0"/>
        <pt x="513" y="-3" on="0"/>
        <pt x="453" y="-10" on="1"/>
        <pt x="345" y="-187" on="1"/>
        <pt x="216" y="-187" on="1"/>
        <pt x="216" y="-182" on="1"/>
        <pt x="363" y="-13" on="1"/>
        <pt x="290" y="-8" on="0"/>
        <pt x="181" y="43" on="0"/>
        <pt x="109" y="124" on="0"/>
        <pt x="73" y="231" on="0"/>
        <pt x="73" y="291" on="1"/>
        <pt x="73" y="354" on="0"/>
        <pt x="118" y="465" on="0"/>
        <pt x="202" y="547" on="0"/>
        <pt x="326" y="595" on="0"/>
        <pt x="404" y="595" on="1"/>
        <pt x="479" y="595" on="0"/>
        <pt x="595" y="552" on="0"/>
        <pt x="634" y="521" on="1"/>
        <pt x="634" y="423" on="1"/>
        <pt x="633" y="423" on="1"/>
        <pt x="583" y="460" on="0"/>
        <pt x="468" y="507" on="0"/>
        <pt x="403" y="507" on="1"/>
        <pt x="352" y="507" on="0"/>
        <pt x="267" y="474" on="0"/>
        <pt x="208" y="416" on="0"/>
        <pt x="176" y="337" on="0"/>
        <pt x="176" y="291" on="1"/>
        <pt x="176" y="245" on="0"/>
        <pt x="204" y="165" on="0"/>
        <pt x="261" y="108" on="0"/>
        <pt x="346" y="75" on="0"/>
        <pt x="403" y="75" on="1"/>
        <pt x="470" y="75" on="0"/>
        <pt x="585" y="122" on="0"/>
        <pt x="633" y="158" on="1"/>
        <pt x="634" y="158" on="1"/>
      </contour>
    </TTGlyph>
    <TTGlyph name="cdotaccent" xMin="58" yMin="-14" xMax="541" yMax="765">
      <component glyphName="c" x="0" y="0" flags="0x204"/>
      <component glyphName="dotaccent" x="92" y="14" flags="0x4"/>
    </TTGlyph>
    <TTGlyph name="cdotaccent.sc" xMin="73" yMin="-14" xMax="634" yMax="813">
      <component glyphName="c.sc" x="0" y="0" flags="0x204"/>
      <component glyphName="dotaccent" x="143" y="62" flags="0x4"/>
    </TTGlyph>
    <TTGlyph name="cedilla" xMin="86" yMin="-188" xMax="328" yMax="-4">
      <contour>
        <pt x="328" y="-4" on="1"/>
        <pt x="215" y="-188" on="1"/>
        <pt x="86" y="-188" on="1"/>
        <pt x="86" y="-183" on="1"/>
        <pt x="241" y="-4" on="1"/>
      </contour>
    </TTGlyph>
    <TTGlyph name="cent" xMin="75" yMin="-36" xMax="520" yMax="713">
      <contour>
        <pt x="281" y="-36" on="1"/>
        <pt x="281" y="106" on="1"/>
        <pt x="189" y="122" on="0"/>
        <pt x="75" y="248" on="0"/>
        <pt x="75" y="346" on="1"/>
        <pt x="75" y="440" on="0"/>
        <pt x="195" y="578" on="0"/>
        <pt x="289" y="594" on="1"/>
        <pt x="289" y="713" on="1"/>
        <pt x="380" y="713" on="1"/>
        <pt x="380" y="597" on="1"/>
        <pt x="422" y="593" on="0"/>
        <pt x="490" y="569" on="0"/>
        <pt x="520" y="550" on="1"/>
        <pt x="520" y="458" on="1"/>
        <pt x="519" y="458" on="1"/>
        <pt x="479" y="486" on="0"/>
        <pt x="394" y="514" on="0"/>
        <pt x="355" y="514" on="1"/>
        <pt x="274" y="514" on="0"/>
        <pt x="172" y="421" on="0"/>
        <pt x="172" y="346" on="1"/>
        <pt x="172" y="276" on="0"/>
        <pt x="272" y="186" on="0"/>
        <pt x="354" y="186" on="1"/>
        <pt x="395" y="186" on="0"/>
        <pt x="478" y="214" on="0"/>
        <pt x="518" y="242" on="1"/>
        <pt x="519" y="242" on="1"/>
        <pt x="519" y="150" on="1"/>
        <pt x="488" y="131" on="0"/>
        <pt x="416" y="106" on="0"/>
        <pt x="373" y="102" on="1"/>
        <pt x="373" y="-25" on="1"/>
      </contour>
    </TTGlyph>
    <TTGlyph name="cent.tab" xMin="128" yMin="-36" xMax="588" yMax="713">
      <contour>
        <pt x="342" y="-36" on="1"/>
        <pt x="342" y="104" on="1"/>
        <pt x="245" y="120" on="0"/>
        <pt x="128" y="247" on="0"/>
        <pt x="128" y="346" on="1"/>
        <pt x="128" y="442" on="0"/>
        <pt x="251" y="580" on="0"/>
        <pt x="350" y="596" on="1"/>
        <pt x="350" y="713" on="1"/>
        <pt x="441" y="713" on="1"/>
        <pt x="441" y="599" on="1"/>
        <pt x="488" y="595" on="0"/>
        <pt x="559" y="571" on="0"/>
        <pt x="588" y="551" on="1"/>
        <pt x="588" y="459" on="1"/>
        <pt x="587" y="459" on="1"/>
        <pt x="547" y="487" on="0"/>
        <pt x="461" y="516" on="0"/>
        <pt x="416" y="516" on="1"/>
        <pt x="330" y="516" on="0"/>
        <pt x="226" y="423" on="0"/>
        <pt x="226" y="346" on="1"/>
        <pt x="226" y="275" on="0"/>
        <pt x="327" y="184" on="0"/>
        <pt x="415" y="184" on="1"/>
        <pt x="462" y="184" on="0"/>
        <pt x="546" y="212" on="0"/>
        <pt x="587" y="241" on="1"/>
        <pt x="588" y="241" on="1"/>
        <pt x="588" y="149" on="1"/>
        <pt x="556" y="129" on="0"/>
        <pt x="481" y="104" on="0"/>
        <pt x="434" y="101" on="1"/>
        <pt x="434" y="-25" on="1"/>
      </contour>
    </TTGlyph>
    <TTGlyph name="circle.checked" xMin="126" yMin="-46" xMax="952" yMax="746">
      <contour>
        <pt x="539" y="-46" on="1"/>
        <pt x="445" y="-46" on="0"/>
        <pt x="291" y="11" on="0"/>
        <pt x="184" y="113" on="0"/>
        <pt x="126" y="260" on="0"/>
        <pt x="126" y="350" on="1"/>
        <pt x="126" y="439" on="0"/>
        <pt x="184" y="586" on="0"/>
        <pt x="291" y="689" on="0"/>
        <pt x="445" y="746" on="0"/>
        <pt x="539" y="746" on="1"/>
        <pt x="634" y="746" on="0"/>
        <pt x="787" y="689" on="0"/>
        <pt x="894" y="587" on="0"/>
        <pt x="952" y="440" on="0"/>
        <pt x="952" y="350" on="1"/>
        <pt x="952" y="261" on="0"/>
        <pt x="894" y="114" on="0"/>
        <pt x="787" y="11" on="0"/>
        <pt x="633" y="-46" on="0"/>
      </contour>
      <contour>
        <pt x="539" y="44" on="1"/>
        <pt x="684" y="44" on="0"/>
        <pt x="850" y="210" on="0"/>
        <pt x="850" y="350" on="1"/>
        <pt x="850" y="490" on="0"/>
        <pt x="684" y="656" on="0"/>
        <pt x="539" y="656" on="1"/>
        <pt x="394" y="656" on="0"/>
        <pt x="228" y="490" on="0"/>
        <pt x="228" y="350" on="1"/>
        <pt x="228" y="210" on="0"/>
        <pt x="394" y="44" on="0"/>
      </contour>
      <contour>
        <pt x="539" y="198" on="1"/>
        <pt x="468" y="198" on="0"/>
        <pt x="387" y="281" on="0"/>
        <pt x="387" y="350" on="1"/>
        <pt x="387" y="419" on="0"/>
        <pt x="468" y="502" on="0"/>
        <pt x="539" y="502" on="1"/>
        <pt x="611" y="502" on="0"/>
        <pt x="691" y="419" on="0"/>
        <pt x="691" y="350" on="1"/>
        <pt x="691" y="281" on="0"/>
        <pt x="611" y="198" on="0"/>
      </contour>
    </TTGlyph>
    <TTGlyph name="circle.half" xMin="126" yMin="-46" xMax="952" yMax="746">
      <contour>
        <pt x="539" y="-46" on="1"/>
        <pt x="444" y="-46" on="0"/>
        <pt x="291" y="11" on="0"/>
        <pt x="184" y="113" on="0"/>
        <pt x="126" y="260" on="0"/>
        <pt x="126" y="350" on="1"/>
        <pt x="126" y="439" on="0"/>
        <pt x="184" y="586" on="0"/>
        <pt x="291" y="689" on="0"/>
        <pt x="445" y="746" on="0"/>
        <pt x="539" y="746" on="1"/>
        <pt x="633" y="746" on="0"/>
        <pt x="787" y="689" on="0"/>
        <pt x="894" y="587" on="0"/>
        <pt x="952" y="440" on="0"/>
        <pt x="952" y="350" on="1"/>
        <pt x="952" y="261" on="0"/>
        <pt x="894" y="114" on="0"/>
        <pt x="787" y="11" on="0"/>
        <pt x="633" y="-46" on="0"/>
      </contour>
      <contour>
        <pt x="537" y="43" on="1"/>
        <pt x="610" y="43" on="0"/>
        <pt x="726" y="87" on="0"/>
        <pt x="807" y="166" on="0"/>
        <pt x="850" y="280" on="0"/>
        <pt x="850" y="350" on="1"/>
        <pt x="850" y="420" on="0"/>
        <pt x="807" y="534" on="0"/>
        <pt x="726" y="613" on="0"/>
        <pt x="610" y="657" on="0"/>
        <pt x="537" y="657" on="1"/>
      </contour>
    </TTGlyph>
    <TTGlyph name="circle.open" xMin="126" yMin="-46" xMax="952" yMax="746">
      <contour>
        <pt x="539" y="-46" on="1"/>
        <pt x="445" y="-46" on="0"/>
        <pt x="291" y="11" on="0"/>
        <pt x="184" y="113" on="0"/>
        <pt x="126" y="260" on="0"/>
        <pt x="126" y="350" on="1"/>
        <pt x="126" y="439" on="0"/>
        <pt x="184" y="586" on="0"/>
        <pt x="291" y="689" on="0"/>
        <pt x="445" y="746" on="0"/>
        <pt x="539" y="746" on="1"/>
        <pt x="634" y="746" on="0"/>
        <pt x="787" y="689" on="0"/>
        <pt x="894" y="587" on="0"/>
        <pt x="952" y="440" on="0"/>
        <pt x="952" y="350" on="1"/>
        <pt x="952" y="261" on="0"/>
        <pt x="894" y="114" on="0"/>
        <pt x="787" y="11" on="0"/>
        <pt x="633" y="-46" on="0"/>
      </contour>
      <contour>
        <pt x="539" y="44" on="1"/>
        <pt x="684" y="44" on="0"/>
        <pt x="850" y="210" on="0"/>
        <pt x="850" y="350" on="1"/>
        <pt x="850" y="490" on="0"/>
        <pt x="684" y="656" on="0"/>
        <pt x="539" y="656" on="1"/>
        <pt x="394" y="656" on="0"/>
        <pt x="228" y="490" on="0"/>
        <pt x="228" y="350" on="1"/>
        <pt x="228" y="210" on="0"/>
        <pt x="394" y="44" on="0"/>
      </contour>
    </TTGlyph>
    <TTGlyph name="circle.solid" xMin="126" yMin="-46" xMax="952" yMax="746">
      <contour>
        <pt x="539" y="-46" on="1"/>
        <pt x="445" y="-46" on="0"/>
        <pt x="291" y="11" on="0"/>
        <pt x="184" y="113" on="0"/>
        <pt x="126" y="260" on="0"/>
        <pt x="126" y="350" on="1"/>
        <pt x="126" y="439" on="0"/>
        <pt x="184" y="586" on="0"/>
        <pt x="291" y="689" on="0"/>
        <pt x="445" y="746" on="0"/>
        <pt x="539" y="746" on="1"/>
        <pt x="634" y="746" on="0"/>
        <pt x="787" y="689" on="0"/>
        <pt x="894" y="587" on="0"/>
        <pt x="952" y="440" on="0"/>
        <pt x="952" y="350" on="1"/>
        <pt x="952" y="261" on="0"/>
        <pt x="894" y="114" on="0"/>
        <pt x="787" y="11" on="0"/>
        <pt x="633" y="-46" on="0"/>
      </contour>
    </TTGlyph>
    <TTGlyph name="circumflex" xMin="42" yMin="630" xMax="458" yMax="804">
      <contour>
        <pt x="42" y="630" on="1"/>
        <pt x="180" y="804" on="1"/>
        <pt x="320" y="804" on="1"/>
        <pt x="458" y="630" on="1"/>
        <pt x="354" y="630" on="1"/>
        <pt x="269" y="735" on="1"/>
        <pt x="231" y="735" on="1"/>
        <pt x="146" y="630" on="1"/>
      </contour>
    </TTGlyph>
    <TTGlyph name="colon" xMin="108" yMin="-12" xMax="265" yMax="492">
      <contour>
        <pt x="186" y="345" on="1"/>
        <pt x="148" y="345" on="0"/>
        <pt x="108" y="390" on="0"/>
        <pt x="108" y="418" on="1"/>
        <pt x="108" y="419" on="1"/>
        <pt x="108" y="448" on="0"/>
        <pt x="148" y="492" on="0"/>
        <pt x="186" y="492" on="1"/>
        <pt x="224" y="492" on="0"/>
        <pt x="265" y="448" on="0"/>
        <pt x="265" y="419" on="1"/>
        <pt x="265" y="418" on="1"/>
        <pt x="265" y="390" on="0"/>
        <pt x="224" y="345" on="0"/>
      </contour>
      <contour>
        <pt x="186" y="-12" on="1"/>
        <pt x="148" y="-12" on="0"/>
        <pt x="108" y="33" on="0"/>
        <pt x="108" y="62" on="1"/>
        <pt x="108" y="63" on="1"/>
        <pt x="108" y="91" on="0"/>
        <pt x="148" y="136" on="0"/>
        <pt x="186" y="136" on="1"/>
        <pt x="224" y="136" on="0"/>
        <pt x="265" y="91" on="0"/>
        <pt x="265" y="63" on="1"/>
        <pt x="265" y="62" on="1"/>
        <pt x="265" y="33" on="0"/>
        <pt x="224" y="-12" on="0"/>
      </contour>
    </TTGlyph>
    <TTGlyph name="colon.fig" xMin="108" yMin="98" xMax="265" yMax="602">
      <component glyphName="colon" x="0" y="110" flags="0x4"/>
    </TTGlyph>
    <TTGlyph name="colon.tab" xMin="103" yMin="-12" xMax="260" yMax="492">
      <component glyphName="colon" x="-5" y="0" flags="0x4"/>
    </TTGlyph>
    <TTGlyph name="colonmonetary" xMin="64" yMin="-109" xMax="695" yMax="805">
      <contour>
        <pt x="177" y="-109" on="1"/>
        <pt x="219" y="46" on="1"/>
        <pt x="141" y="92" on="0"/>
        <pt x="64" y="249" on="0"/>
        <pt x="64" y="342" on="1"/>
        <pt x="64" y="410" on="0"/>
        <pt x="108" y="535" on="0"/>
        <pt x="191" y="632" on="0"/>
        <pt x="315" y="696" on="0"/>
        <pt x="394" y="703" on="1"/>
        <pt x="421" y="805" on="1"/>
        <pt x="502" y="805" on="1"/>
        <pt x="475" y="704" on="1"/>
        <pt x="504" y="702" on="0"/>
        <pt x="557" y="691" on="0"/>
        <pt x="582" y="683" on="1"/>
        <pt x="614" y="805" on="1"/>
        <pt x="695" y="805" on="1"/>
        <pt x="504" y="86" on="1"/>
        <pt x="535" y="91" on="0"/>
        <pt x="597" y="112" on="0"/>
        <pt x="630" y="128" on="1"/>
        <pt x="631" y="128" on="1"/>
        <pt x="631" y="36" on="1"/>
        <pt x="600" y="22" on="0"/>
        <pt x="523" y="2" on="0"/>
        <pt x="480" y="-2" on="1"/>
        <pt x="452" y="-109" on="1"/>
        <pt x="371" y="-109" on="1"/>
        <pt x="399" y="-4" on="1"/>
        <pt x="370" y="-3" on="0"/>
        <pt x="315" y="7" on="0"/>
        <pt x="291" y="14" on="1"/>
        <pt x="257" y="-109" on="1"/>
      </contour>
      <contour>
        <pt x="311" y="101" on="1"/>
        <pt x="337" y="91" on="0"/>
        <pt x="397" y="80" on="0"/>
        <pt x="428" y="80" on="1"/>
        <pt x="565" y="595" on="1"/>
        <pt x="536" y="605" on="0"/>
        <pt x="479" y="615" on="0"/>
        <pt x="448" y="616" on="1"/>
      </contour>
      <contour>
        <pt x="162" y="343" on="1"/>
        <pt x="162" y="280" on="0"/>
        <pt x="205" y="174" on="0"/>
        <pt x="246" y="139" on="1"/>
        <pt x="373" y="615" on="1"/>
        <pt x="272" y="596" on="0"/>
        <pt x="162" y="447" on="0"/>
      </contour>
    </TTGlyph>
    <TTGlyph name="comma" xMin="68" yMin="-154" xMax="259" yMax="145">
      <contour>
        <pt x="68" y="-154" on="1"/>
        <pt x="122" y="145" on="1"/>
        <pt x="259" y="145" on="1"/>
        <pt x="259" y="135" on="1"/>
        <pt x="126" y="-154" on="1"/>
      </contour>
    </TTGlyph>
    <TTGlyph name="comma.tab" xMin="89" yMin="-154" xMax="280" yMax="145">
      <component glyphName="comma" x="21" y="0" flags="0x4"/>
    </TTGlyph>
    <TTGlyph name="copyright" xMin="59" yMin="-46" xMax="909" yMax="746">
      <contour>
        <pt x="484" y="-46" on="1"/>
        <pt x="388" y="-46" on="0"/>
        <pt x="230" y="11" on="0"/>
        <pt x="120" y="114" on="0"/>
        <pt x="59" y="261" on="0"/>
        <pt x="59" y="350" on="1"/>
        <pt x="59" y="439" on="0"/>
        <pt x="120" y="586" on="0"/>
        <pt x="230" y="689" on="0"/>
        <pt x="388" y="746" on="0"/>
        <pt x="484" y="746" on="1"/>
        <pt x="581" y="746" on="0"/>
        <pt x="738" y="689" on="0"/>
        <pt x="849" y="586" on="0"/>
        <pt x="909" y="439" on="0"/>
        <pt x="909" y="350" on="1"/>
        <pt x="909" y="261" on="0"/>
        <pt x="849" y="114" on="0"/>
        <pt x="738" y="11" on="0"/>
        <pt x="581" y="-46" on="0"/>
      </contour>
      <contour>
        <pt x="484" y="23" on="1"/>
        <pt x="563" y="23" on="0"/>
        <pt x="692" y="68" on="0"/>
        <pt x="781" y="152" on="0"/>
        <pt x="830" y="274" on="0"/>
        <pt x="830" y="350" on="1"/>
        <pt x="830" y="426" on="0"/>
        <pt x="781" y="548" on="0"/>
        <pt x="692" y="632" on="0"/>
        <pt x="563" y="677" on="0"/>
        <pt x="484" y="677" on="1"/>
        <pt x="405" y="677" on="0"/>
        <pt x="277" y="632" on="0"/>
        <pt x="188" y="548" on="0"/>
        <pt x="139" y="426" on="0"/>
        <pt x="139" y="350" on="1"/>
        <pt x="139" y="274" on="0"/>
        <pt x="188" y="152" on="0"/>
        <pt x="277" y="68" on="0"/>
        <pt x="405" y="23" on="0"/>
      </contour>
      <contour>
        <pt x="499" y="165" on="1"/>
        <pt x="450" y="165" on="0"/>
        <pt x="375" y="194" on="0"/>
        <pt x="325" y="245" on="0"/>
        <pt x="299" y="314" on="0"/>
        <pt x="299" y="353" on="1"/>
        <pt x="299" y="392" on="0"/>
        <pt x="327" y="461" on="0"/>
        <pt x="379" y="512" on="0"/>
        <pt x="455" y="542" on="0"/>
        <pt x="503" y="542" on="1"/>
        <pt x="546" y="542" on="0"/>
        <pt x="618" y="517" on="0"/>
        <pt x="643" y="497" on="1"/>
        <pt x="643" y="426" on="1"/>
        <pt x="642" y="426" on="1"/>
        <pt x="611" y="448" on="0"/>
        <pt x="547" y="476" on="0"/>
        <pt x="509" y="476" on="1"/>
        <pt x="449" y="476" on="0"/>
        <pt x="377" y="404" on="0"/>
        <pt x="377" y="353" on="1"/>
        <pt x="377" y="299" on="0"/>
        <pt x="442" y="231" on="0"/>
        <pt x="508" y="231" on="1"/>
        <pt x="551" y="231" on="0"/>
        <pt x="613" y="259" on="0"/>
        <pt x="642" y="281" on="1"/>
        <pt x="643" y="281" on="1"/>
        <pt x="643" y="209" on="1"/>
        <pt x="620" y="193" on="0"/>
        <pt x="548" y="165" on="0"/>
      </contour>
    </TTGlyph>
    <TTGlyph name="d" xMin="58" yMin="-15" xMax="600" yMax="750">
      <contour>
        <pt x="600" y="750" on="1"/>
        <pt x="600" y="0" on="1"/>
        <pt x="503" y="0" on="1"/>
        <pt x="502" y="77" on="1"/>
        <pt x="471" y="42" on="0"/>
        <pt x="371" y="-15" on="0"/>
        <pt x="305" y="-15" on="1"/>
        <pt x="254" y="-15" on="0"/>
        <pt x="164" y="22" on="0"/>
        <pt x="97" y="91" on="0"/>
        <pt x="58" y="194" on="0"/>
        <pt x="58" y="259" on="1"/>
        <pt x="58" y="320" on="0"/>
        <pt x="101" y="426" on="0"/>
        <pt x="177" y="503" on="0"/>
        <pt x="282" y="547" on="0"/>
        <pt x="343" y="547" on="1"/>
        <pt x="393" y="547" on="0"/>
        <pt x="469" y="521" on="0"/>
        <pt x="500" y="501" on="1"/>
        <pt x="500" y="750" on="1"/>
      </contour>
      <contour>
        <pt x="351" y="462" on="1"/>
        <pt x="264" y="462" on="0"/>
        <pt x="158" y="349" on="0"/>
        <pt x="158" y="264" on="1"/>
        <pt x="158" y="215" on="0"/>
        <pt x="186" y="142" on="0"/>
        <pt x="234" y="94" on="0"/>
        <pt x="299" y="70" on="0"/>
        <pt x="336" y="70" on="1"/>
        <pt x="385" y="70" on="0"/>
        <pt x="472" y="113" on="0"/>
        <pt x="500" y="144" on="1"/>
        <pt x="500" y="402" on="1"/>
        <pt x="469" y="430" on="0"/>
        <pt x="398" y="462" on="0"/>
      </contour>
    </TTGlyph>
    <TTGlyph name="d.sc" xMin="118" yMin="0" xMax="701" yMax="582">
      <contour>
        <pt x="118" y="0" on="1"/>
        <pt x="118" y="582" on="1"/>
        <pt x="394" y="582" on="1"/>
        <pt x="541" y="582" on="0"/>
        <pt x="701" y="426" on="0"/>
        <pt x="701" y="292" on="1"/>
        <pt x="701" y="158" on="0"/>
        <pt x="541" y="0" on="0"/>
        <pt x="394" y="0" on="1"/>
      </contour>
      <contour>
        <pt x="218" y="87" on="1"/>
        <pt x="384" y="87" on="1"/>
        <pt x="492" y="87" on="0"/>
        <pt x="598" y="191" on="0"/>
        <pt x="598" y="290" on="1"/>
        <pt x="598" y="389" on="0"/>
        <pt x="492" y="496" on="0"/>
        <pt x="385" y="496" on="1"/>
        <pt x="218" y="496" on="1"/>
      </contour>
    </TTGlyph>
    <TTGlyph name="dagger" xMin="76" yMin="198" xMax="458" yMax="711">
      <contour>
        <pt x="225" y="198" on="1"/>
        <pt x="225" y="499" on="1"/>
        <pt x="76" y="499" on="1"/>
        <pt x="80" y="574" on="1"/>
        <pt x="225" y="574" on="1"/>
        <pt x="225" y="711" on="1"/>
        <pt x="312" y="711" on="1"/>
        <pt x="312" y="574" on="1"/>
        <pt x="458" y="574" on="1"/>
        <pt x="458" y="499" on="1"/>
        <pt x="312" y="499" on="1"/>
        <pt x="312" y="198" on="1"/>
      </contour>
    </TTGlyph>
    <TTGlyph name="daggerdbl" xMin="76" yMin="152" xMax="461" yMax="711">
      <contour>
        <pt x="225" y="152" on="1"/>
        <pt x="225" y="289" on="1"/>
        <pt x="79" y="289" on="1"/>
        <pt x="79" y="364" on="1"/>
        <pt x="225" y="364" on="1"/>
        <pt x="225" y="499" on="1"/>
        <pt x="76" y="499" on="1"/>
        <pt x="80" y="574" on="1"/>
        <pt x="225" y="574" on="1"/>
        <pt x="225" y="711" on="1"/>
        <pt x="312" y="711" on="1"/>
        <pt x="312" y="574" on="1"/>
        <pt x="458" y="574" on="1"/>
        <pt x="458" y="499" on="1"/>
        <pt x="312" y="499" on="1"/>
        <pt x="312" y="364" on="1"/>
        <pt x="461" y="364" on="1"/>
        <pt x="457" y="289" on="1"/>
        <pt x="312" y="289" on="1"/>
        <pt x="312" y="152" on="1"/>
      </contour>
    </TTGlyph>
    <TTGlyph name="dcaron" xMin="58" yMin="-15" xMax="799" yMax="751">
      <component glyphName="d" x="0" y="0" flags="0x204"/>
      <component glyphName="caron.alt" x="504" y="-22" flags="0x4"/>
    </TTGlyph>
    <TTGlyph name="dcaron.sc" xMin="118" yMin="0" xMax="701" yMax="854">
      <component glyphName="d.sc" x="0" y="0" flags="0x204"/>
      <component glyphName="caron" x="126" y="50" flags="0x4"/>
    </TTGlyph>
    <TTGlyph name="dcroat" xMin="58" yMin="-15" xMax="697" yMax="750">
      <contour>
        <pt x="697" y="594" on="1"/>
        <pt x="600" y="594" on="1"/>
        <pt x="600" y="0" on="1"/>
        <pt x="503" y="0" on="1"/>
        <pt x="502" y="77" on="1"/>
        <pt x="471" y="41" on="0"/>
        <pt x="372" y="-15" on="0"/>
        <pt x="306" y="-15" on="1"/>
        <pt x="253" y="-15" on="0"/>
        <pt x="161" y="22" on="0"/>
        <pt x="95" y="88" on="0"/>
        <pt x="58" y="183" on="0"/>
        <pt x="58" y="241" on="1"/>
        <pt x="58" y="300" on="0"/>
        <pt x="102" y="401" on="0"/>
        <pt x="179" y="474" on="0"/>
        <pt x="285" y="516" on="0"/>
        <pt x="346" y="516" on="1"/>
        <pt x="393" y="516" on="0"/>
        <pt x="469" y="492" on="0"/>
        <pt x="500" y="472" on="1"/>
        <pt x="500" y="594" on="1"/>
        <pt x="309" y="594" on="1"/>
        <pt x="309" y="661" on="1"/>
        <pt x="500" y="661" on="1"/>
        <pt x="500" y="750" on="1"/>
        <pt x="600" y="750" on="1"/>
        <pt x="600" y="661" on="1"/>
        <pt x="693" y="661" on="1"/>
      </contour>
      <contour>
        <pt x="353" y="431" on="1"/>
        <pt x="265" y="431" on="0"/>
        <pt x="158" y="326" on="0"/>
        <pt x="158" y="246" on="1"/>
        <pt x="158" y="165" on="0"/>
        <pt x="257" y="70" on="0"/>
        <pt x="338" y="70" on="1"/>
        <pt x="387" y="70" on="0"/>
        <pt x="471" y="113" on="0"/>
        <pt x="500" y="143" on="1"/>
        <pt x="500" y="375" on="1"/>
        <pt x="469" y="403" on="0"/>
        <pt x="395" y="431" on="0"/>
      </contour>
    </TTGlyph>
    <TTGlyph name="dcroat.sc" xMin="46" yMin="0" xMax="728" yMax="582">
      <component glyphName="eth.sc" x="0" y="0" flags="0x204"/>
    </TTGlyph>
    <TTGlyph name="degree" xMin="63" yMin="298" xMax="500" yMax="711">
      <contour>
        <pt x="281" y="298" on="1"/>
        <pt x="184" y="298" on="0"/>
        <pt x="63" y="411" on="0"/>
        <pt x="63" y="504" on="1"/>
        <pt x="63" y="597" on="0"/>
        <pt x="184" y="711" on="0"/>
        <pt x="281" y="711" on="1"/>
        <pt x="378" y="711" on="0"/>
        <pt x="500" y="599" on="0"/>
        <pt x="500" y="506" on="1"/>
        <pt x="500" y="413" on="0"/>
        <pt x="378" y="298" on="0"/>
      </contour>
      <contour>
        <pt x="282" y="374" on="1"/>
        <pt x="337" y="374" on="0"/>
        <pt x="412" y="445" on="0"/>
        <pt x="412" y="505" on="1"/>
        <pt x="412" y="566" on="0"/>
        <pt x="338" y="635" on="0"/>
        <pt x="281" y="635" on="1"/>
        <pt x="225" y="635" on="0"/>
        <pt x="151" y="565" on="0"/>
        <pt x="151" y="504" on="1"/>
        <pt x="151" y="443" on="0"/>
        <pt x="225" y="374" on="0"/>
      </contour>
    </TTGlyph>
    <TTGlyph name="degree.tab" xMin="99" yMin="298" xMax="536" yMax="711">
      <component glyphName="degree" x="36" y="0" flags="0x4"/>
    </TTGlyph>
    <TTGlyph name="dieresis" xMin="59" yMin="627" xMax="442" yMax="745">
      <contour>
        <pt x="123" y="627" on="1"/>
        <pt x="93" y="627" on="0"/>
        <pt x="59" y="663" on="0"/>
        <pt x="59" y="686" on="1"/>
        <pt x="59" y="710" on="0"/>
        <pt x="93" y="745" on="0"/>
        <pt x="122" y="745" on="1"/>
        <pt x="153" y="745" on="0"/>
        <pt x="187" y="710" on="0"/>
        <pt x="187" y="686" on="1"/>
        <pt x="187" y="663" on="0"/>
        <pt x="153" y="627" on="0"/>
      </contour>
      <contour>
        <pt x="378" y="627" on="1"/>
        <pt x="348" y="627" on="0"/>
        <pt x="314" y="663" on="0"/>
        <pt x="314" y="686" on="1"/>
        <pt x="314" y="710" on="0"/>
        <pt x="348" y="745" on="0"/>
        <pt x="377" y="745" on="1"/>
        <pt x="408" y="745" on="0"/>
        <pt x="442" y="710" on="0"/>
        <pt x="442" y="686" on="1"/>
        <pt x="442" y="663" on="0"/>
        <pt x="408" y="627" on="0"/>
      </contour>
    </TTGlyph>
    <TTGlyph name="divide" xMin="103" yMin="66" xMax="672" yMax="634">
      <contour>
        <pt x="387" y="634" on="1"/>
        <pt x="419" y="634" on="0"/>
        <pt x="456" y="596" on="0"/>
        <pt x="456" y="570" on="1"/>
        <pt x="456" y="544" on="0"/>
        <pt x="419" y="506" on="0"/>
        <pt x="387" y="506" on="1"/>
        <pt x="354" y="506" on="0"/>
        <pt x="317" y="544" on="0"/>
        <pt x="317" y="570" on="1"/>
        <pt x="317" y="596" on="0"/>
        <pt x="354" y="634" on="0"/>
      </contour>
      <contour>
        <pt x="103" y="306" on="1"/>
        <pt x="103" y="394" on="1"/>
        <pt x="672" y="394" on="1"/>
        <pt x="672" y="306" on="1"/>
      </contour>
      <contour>
        <pt x="388" y="66" on="1"/>
        <pt x="355" y="66" on="0"/>
        <pt x="318" y="104" on="0"/>
        <pt x="318" y="130" on="1"/>
        <pt x="318" y="156" on="0"/>
        <pt x="355" y="194" on="0"/>
        <pt x="387" y="194" on="1"/>
        <pt x="420" y="194" on="0"/>
        <pt x="457" y="156" on="0"/>
        <pt x="457" y="130" on="1"/>
        <pt x="457" y="104" on="0"/>
        <pt x="420" y="66" on="0"/>
      </contour>
    </TTGlyph>
    <TTGlyph name="divide.tab" xMin="78" yMin="66" xMax="647" yMax="634">
      <component glyphName="divide" x="-25" y="0" flags="0x4"/>
    </TTGlyph>
    <TTGlyph name="dollar" xMin="96" yMin="-116" xMax="644" yMax="805">
      <contour>
        <pt x="315" y="-116" on="1"/>
        <pt x="315" y="14" on="1"/>
        <pt x="253" y="21" on="0"/>
        <pt x="142" y="60" on="0"/>
        <pt x="96" y="85" on="1"/>
        <pt x="96" y="185" on="1"/>
        <pt x="97" y="185" on="1"/>
        <pt x="163" y="144" on="0"/>
        <pt x="319" y="100" on="0"/>
        <pt x="382" y="100" on="1"/>
        <pt x="458" y="100" on="0"/>
        <pt x="541" y="155" on="0"/>
        <pt x="541" y="201" on="1"/>
        <pt x="541" y="244" on="0"/>
        <pt x="461" y="290" on="0"/>
        <pt x="346" y="315" on="1"/>
        <pt x="296" y="325" on="0"/>
        <pt x="208" y="350" on="0"/>
        <pt x="144" y="389" on="0"/>
        <pt x="106" y="449" on="0"/>
        <pt x="106" y="494" on="1"/>
        <pt x="106" y="565" on="0"/>
        <pt x="216" y="675" on="0"/>
        <pt x="323" y="686" on="1"/>
        <pt x="323" y="805" on="1"/>
        <pt x="416" y="805" on="1"/>
        <pt x="416" y="687" on="1"/>
        <pt x="465" y="682" on="0"/>
        <pt x="569" y="650" on="0"/>
        <pt x="613" y="625" on="1"/>
        <pt x="613" y="524" on="1"/>
        <pt x="612" y="524" on="1"/>
        <pt x="554" y="562" on="0"/>
        <pt x="421" y="600" on="0"/>
        <pt x="366" y="600" on="1"/>
        <pt x="294" y="600" on="0"/>
        <pt x="210" y="548" on="0"/>
        <pt x="210" y="504" on="1"/>
        <pt x="210" y="483" on="0"/>
        <pt x="227" y="453" on="0"/>
        <pt x="271" y="429" on="0"/>
        <pt x="346" y="407" on="0"/>
        <pt x="404" y="395" on="1"/>
        <pt x="454" y="385" on="0"/>
        <pt x="542" y="357" on="0"/>
        <pt x="607" y="315" on="0"/>
        <pt x="644" y="253" on="0"/>
        <pt x="644" y="209" on="1"/>
        <pt x="644" y="178" on="0"/>
        <pt x="621" y="110" on="0"/>
        <pt x="567" y="54" on="0"/>
        <pt x="476" y="14" on="0"/>
        <pt x="408" y="11" on="1"/>
        <pt x="408" y="-106" on="1"/>
      </contour>
    </TTGlyph>
    <TTGlyph name="dollar.tab" xMin="102" yMin="-116" xMax="649" yMax="805">
      <contour>
        <pt x="321" y="-116" on="1"/>
        <pt x="321" y="14" on="1"/>
        <pt x="259" y="21" on="0"/>
        <pt x="148" y="60" on="0"/>
        <pt x="102" y="85" on="1"/>
        <pt x="102" y="185" on="1"/>
        <pt x="103" y="185" on="1"/>
        <pt x="169" y="144" on="0"/>
        <pt x="325" y="100" on="0"/>
        <pt x="387" y="100" on="1"/>
        <pt x="462" y="100" on="0"/>
        <pt x="545" y="155" on="0"/>
        <pt x="545" y="202" on="1"/>
        <pt x="545" y="246" on="0"/>
        <pt x="464" y="293" on="0"/>
        <pt x="352" y="315" on="1"/>
        <pt x="301" y="325" on="0"/>
        <pt x="213" y="349" on="0"/>
        <pt x="149" y="389" on="0"/>
        <pt x="112" y="449" on="0"/>
        <pt x="112" y="494" on="1"/>
        <pt x="112" y="564" on="0"/>
        <pt x="222" y="675" on="0"/>
        <pt x="328" y="686" on="1"/>
        <pt x="328" y="805" on="1"/>
        <pt x="421" y="805" on="1"/>
        <pt x="421" y="687" on="1"/>
        <pt x="469" y="682" on="0"/>
        <pt x="574" y="650" on="0"/>
        <pt x="617" y="625" on="1"/>
        <pt x="617" y="524" on="1"/>
        <pt x="616" y="524" on="1"/>
        <pt x="559" y="562" on="0"/>
        <pt x="425" y="600" on="0"/>
        <pt x="371" y="600" on="1"/>
        <pt x="300" y="600" on="0"/>
        <pt x="215" y="549" on="0"/>
        <pt x="215" y="501" on="1"/>
        <pt x="215" y="476" on="0"/>
        <pt x="242" y="443" on="0"/>
        <pt x="293" y="421" on="0"/>
        <pt x="366" y="405" on="0"/>
        <pt x="411" y="395" on="1"/>
        <pt x="461" y="384" on="0"/>
        <pt x="549" y="357" on="0"/>
        <pt x="612" y="315" on="0"/>
        <pt x="649" y="253" on="0"/>
        <pt x="649" y="209" on="1"/>
        <pt x="649" y="178" on="0"/>
        <pt x="626" y="110" on="0"/>
        <pt x="572" y="54" on="0"/>
        <pt x="481" y="15" on="0"/>
        <pt x="413" y="11" on="1"/>
        <pt x="413" y="-106" on="1"/>
      </contour>
    </TTGlyph>
    <TTGlyph name="dotaccent" xMin="181" yMin="627" xMax="317" yMax="751">
      <contour>
        <pt x="249" y="627" on="1"/>
        <pt x="218" y="627" on="0"/>
        <pt x="181" y="664" on="0"/>
        <pt x="181" y="689" on="1"/>
        <pt x="181" y="690" on="1"/>
        <pt x="181" y="715" on="0"/>
        <pt x="218" y="751" on="0"/>
        <pt x="249" y="751" on="1"/>
        <pt x="281" y="751" on="0"/>
        <pt x="317" y="715" on="0"/>
        <pt x="317" y="690" on="1"/>
        <pt x="317" y="689" on="1"/>
        <pt x="317" y="664" on="0"/>
        <pt x="281" y="627" on="0"/>
      </contour>
    </TTGlyph>
    <TTGlyph name="dotlessi" xMin="98" yMin="0" xMax="197" yMax="532">
      <contour>
        <pt x="98" y="0" on="1"/>
        <pt x="98" y="532" on="1"/>
        <pt x="197" y="532" on="1"/>
        <pt x="197" y="0" on="1"/>
      </contour>
    </TTGlyph>
    <TTGlyph name="dotlessi.sc" xMin="121" yMin="0" xMax="221" yMax="582">
      <component glyphName="i.sc" x="0" y="0" flags="0x204"/>
    </TTGlyph>
    <TTGlyph name="dotmath" xMin="102" yMin="276" xMax="258" yMax="423">
      <contour>
        <pt x="180" y="276" on="1"/>
        <pt x="142" y="276" on="0"/>
        <pt x="102" y="321" on="0"/>
        <pt x="102" y="349" on="1"/>
        <pt x="102" y="351" on="1"/>
        <pt x="102" y="379" on="0"/>
        <pt x="142" y="423" on="0"/>
        <pt x="180" y="423" on="1"/>
        <pt x="218" y="423" on="0"/>
        <pt x="258" y="379" on="0"/>
        <pt x="258" y="351" on="1"/>
        <pt x="258" y="349" on="1"/>
        <pt x="258" y="321" on="0"/>
        <pt x="218" y="276" on="0"/>
      </contour>
    </TTGlyph>
    <TTGlyph name="dotmath.tab" xMin="103" yMin="276" xMax="259" yMax="423">
      <component glyphName="dotmath" x="1" y="0" flags="0x4"/>
    </TTGlyph>
    <TTGlyph name="e" xMin="58" yMin="-14" xMax="589" yMax="547">
      <contour>
        <pt x="336" y="547" on="1"/>
        <pt x="402" y="547" on="0"/>
        <pt x="498" y="503" on="0"/>
        <pt x="559" y="429" on="0"/>
        <pt x="589" y="329" on="0"/>
        <pt x="589" y="274" on="1"/>
        <pt x="589" y="267" on="0"/>
        <pt x="588" y="250" on="0"/>
        <pt x="587" y="243" on="1"/>
        <pt x="156" y="243" on="1"/>
        <pt x="161" y="162" on="0"/>
        <pt x="265" y="70" on="0"/>
        <pt x="356" y="70" on="1"/>
        <pt x="413" y="70" on="0"/>
        <pt x="513" y="103" on="0"/>
        <pt x="560" y="133" on="1"/>
        <pt x="561" y="133" on="1"/>
        <pt x="561" y="43" on="1"/>
        <pt x="524" y="20" on="0"/>
        <pt x="415" y="-14" on="0"/>
        <pt x="352" y="-14" on="1"/>
        <pt x="279" y="-14" on="0"/>
        <pt x="169" y="27" on="0"/>
        <pt x="95" y="98" on="0"/>
        <pt x="58" y="197" on="0"/>
        <pt x="58" y="255" on="1"/>
        <pt x="58" y="317" on="0"/>
        <pt x="98" y="425" on="0"/>
        <pt x="170" y="503" on="0"/>
        <pt x="273" y="547" on="0"/>
      </contour>
      <contour>
        <pt x="334" y="465" on="1"/>
        <pt x="265" y="465" on="0"/>
        <pt x="173" y="381" on="0"/>
        <pt x="160" y="311" on="1"/>
        <pt x="494" y="311" on="1"/>
        <pt x="490" y="374" on="0"/>
        <pt x="412" y="465" on="0"/>
      </contour>
    </TTGlyph>
    <TTGlyph name="e.sc" xMin="118" yMin="0" xMax="629" yMax="582">
      <contour>
        <pt x="118" y="0" on="1"/>
        <pt x="118" y="582" on="1"/>
        <pt x="610" y="582" on="1"/>
        <pt x="614" y="497" on="1"/>
        <pt x="218" y="497" on="1"/>
        <pt x="218" y="337" on="1"/>
        <pt x="539" y="337" on="1"/>
        <pt x="539" y="254" on="1"/>
        <pt x="218" y="254" on="1"/>
        <pt x="218" y="86" on="1"/>
        <pt x="629" y="86" on="1"/>
        <pt x="625" y="0" on="1"/>
      </contour>
    </TTGlyph>
    <TTGlyph name="eacute" xMin="58" yMin="-14" xMax="589" yMax="809">
      <component glyphName="e" x="0" y="0" flags="0x204"/>
      <component glyphName="acute" x="141" y="15" flags="0x4"/>
    </TTGlyph>
    <TTGlyph name="eacute.sc" xMin="118" yMin="0" xMax="629" yMax="844">
      <component glyphName="e.sc" x="0" y="0" flags="0x204"/>
      <component glyphName="acute" x="173" y="50" flags="0x4"/>
    </TTGlyph>
    <TTGlyph name="ebreve" xMin="58" yMin="-14" xMax="589" yMax="826">
      <component glyphName="e" x="0" y="0" flags="0x204"/>
      <component glyphName="breve" x="88" y="15" flags="0x4"/>
    </TTGlyph>
    <TTGlyph name="ebreve.sc" xMin="118" yMin="0" xMax="629" yMax="861">
      <component glyphName="e.sc" x="0" y="0" flags="0x204"/>
      <component glyphName="breve" x="120" y="50" flags="0x4"/>
    </TTGlyph>
    <TTGlyph name="ecaron" xMin="58" yMin="-14" xMax="589" yMax="819">
      <component glyphName="e" x="0" y="0" flags="0x204"/>
      <component glyphName="caron" x="88" y="15" flags="0x4"/>
    </TTGlyph>
    <TTGlyph name="ecaron.sc" xMin="118" yMin="0" xMax="629" yMax="854">
      <component glyphName="e.sc" x="0" y="0" flags="0x204"/>
      <component glyphName="caron" x="120" y="50" flags="0x4"/>
    </TTGlyph>
    <TTGlyph name="ecircumflex" xMin="58" yMin="-14" xMax="589" yMax="819">
      <component glyphName="e" x="0" y="0" flags="0x204"/>
      <component glyphName="circumflex" x="88" y="15" flags="0x4"/>
    </TTGlyph>
    <TTGlyph name="ecircumflex.sc" xMin="118" yMin="0" xMax="629" yMax="854">
      <component glyphName="e.sc" x="0" y="0" flags="0x204"/>
      <component glyphName="circumflex" x="120" y="50" flags="0x4"/>
    </TTGlyph>
    <TTGlyph name="edieresis" xMin="58" yMin="-14" xMax="589" yMax="760">
      <component glyphName="e" x="0" y="0" flags="0x204"/>
      <component glyphName="dieresis" x="88" y="15" flags="0x4"/>
    </TTGlyph>
    <TTGlyph name="edieresis.sc" xMin="118" yMin="0" xMax="629" yMax="795">
      <component glyphName="e.sc" x="0" y="0" flags="0x204"/>
      <component glyphName="dieresis" x="120" y="50" flags="0x4"/>
    </TTGlyph>
    <TTGlyph name="edotaccent" xMin="58" yMin="-14" xMax="589" yMax="766">
      <component glyphName="e" x="0" y="0" flags="0x204"/>
      <component glyphName="dotaccent" x="89" y="15" flags="0x4"/>
    </TTGlyph>
    <TTGlyph name="edotaccent.sc" xMin="118" yMin="0" xMax="629" yMax="801">
      <component glyphName="e.sc" x="0" y="0" flags="0x204"/>
      <component glyphName="dotaccent" x="121" y="50" flags="0x4"/>
    </TTGlyph>
    <TTGlyph name="egrave" xMin="58" yMin="-14" xMax="589" yMax="809">
      <component glyphName="e" x="0" y="0" flags="0x204"/>
      <component glyphName="grave" x="36" y="15" flags="0x4"/>
    </TTGlyph>
    <TTGlyph name="egrave.sc" xMin="118" yMin="0" xMax="629" yMax="844">
      <component glyphName="e.sc" x="0" y="0" flags="0x204"/>
      <component glyphName="grave" x="68" y="50" flags="0x4"/>
    </TTGlyph>
    <TTGlyph name="eight" xMin="69" yMin="-22" xMax="670" yMax="719">
      <contour>
        <pt x="370" y="-22" on="1"/>
        <pt x="221" y="-22" on="0"/>
        <pt x="69" y="89" on="0"/>
        <pt x="69" y="177" on="1"/>
        <pt x="69" y="243" on="0"/>
        <pt x="153" y="330" on="0"/>
        <pt x="228" y="352" on="1"/>
        <pt x="160" y="371" on="0"/>
        <pt x="86" y="453" on="0"/>
        <pt x="86" y="516" on="1"/>
        <pt x="86" y="559" on="0"/>
        <pt x="122" y="633" on="0"/>
        <pt x="193" y="688" on="0"/>
        <pt x="300" y="719" on="0"/>
        <pt x="370" y="719" on="1"/>
        <pt x="440" y="719" on="0"/>
        <pt x="547" y="687" on="0"/>
        <pt x="618" y="633" on="0"/>
        <pt x="654" y="559" on="0"/>
        <pt x="654" y="516" on="1"/>
        <pt x="654" y="453" on="0"/>
        <pt x="579" y="371" on="0"/>
        <pt x="511" y="352" on="1"/>
        <pt x="586" y="330" on="0"/>
        <pt x="670" y="243" on="0"/>
        <pt x="670" y="177" on="1"/>
        <pt x="670" y="89" on="0"/>
        <pt x="521" y="-22" on="0"/>
      </contour>
      <contour>
        <pt x="370" y="388" on="1"/>
        <pt x="451" y="388" on="0"/>
        <pt x="551" y="450" on="0"/>
        <pt x="551" y="510" on="1"/>
        <pt x="551" y="567" on="0"/>
        <pt x="454" y="636" on="0"/>
        <pt x="370" y="636" on="1"/>
        <pt x="284" y="636" on="0"/>
        <pt x="189" y="568" on="0"/>
        <pt x="189" y="510" on="1"/>
        <pt x="189" y="450" on="0"/>
        <pt x="289" y="388" on="0"/>
      </contour>
      <contour>
        <pt x="370" y="61" on="1"/>
        <pt x="463" y="61" on="0"/>
        <pt x="565" y="129" on="0"/>
        <pt x="565" y="187" on="1"/>
        <pt x="565" y="248" on="0"/>
        <pt x="456" y="314" on="0"/>
        <pt x="370" y="314" on="1"/>
        <pt x="283" y="314" on="0"/>
        <pt x="174" y="250" on="0"/>
        <pt x="174" y="187" on="1"/>
        <pt x="174" y="129" on="0"/>
        <pt x="277" y="61" on="0"/>
      </contour>
    </TTGlyph>
    <TTGlyph name="eight.den" xMin="19" yMin="-12" xMax="375" yMax="413">
      <component glyphName="eight.small" x="-20" y="0" flags="0x4"/>
    </TTGlyph>
    <TTGlyph name="eight.inf" xMin="59" yMin="-202" xMax="415" yMax="223">
      <component glyphName="eight.small" x="20" y="-190" flags="0x4"/>
    </TTGlyph>
    <TTGlyph name="eight.num" xMin="59" yMin="285" xMax="415" yMax="710">
      <component glyphName="eight.small" x="20" y="297" flags="0x4"/>
    </TTGlyph>
    <TTGlyph name="eight.osf" xMin="70" yMin="-22" xMax="629" yMax="719">
      <contour>
        <pt x="350" y="-22" on="1"/>
        <pt x="216" y="-22" on="0"/>
        <pt x="70" y="88" on="0"/>
        <pt x="70" y="176" on="1"/>
        <pt x="70" y="238" on="0"/>
        <pt x="143" y="329" on="0"/>
        <pt x="212" y="352" on="1"/>
        <pt x="154" y="374" on="0"/>
        <pt x="86" y="456" on="0"/>
        <pt x="86" y="516" on="1"/>
        <pt x="86" y="557" on="0"/>
        <pt x="120" y="631" on="0"/>
        <pt x="186" y="686" on="0"/>
        <pt x="285" y="719" on="0"/>
        <pt x="350" y="719" on="1"/>
        <pt x="414" y="719" on="0"/>
        <pt x="513" y="686" on="0"/>
        <pt x="578" y="631" on="0"/>
        <pt x="612" y="557" on="0"/>
        <pt x="612" y="516" on="1"/>
        <pt x="612" y="456" on="0"/>
        <pt x="544" y="374" on="0"/>
        <pt x="486" y="352" on="1"/>
        <pt x="555" y="329" on="0"/>
        <pt x="629" y="238" on="0"/>
        <pt x="629" y="176" on="1"/>
        <pt x="629" y="88" on="0"/>
        <pt x="485" y="-22" on="0"/>
      </contour>
      <contour>
        <pt x="350" y="387" on="1"/>
        <pt x="422" y="387" on="0"/>
        <pt x="513" y="454" on="0"/>
        <pt x="513" y="511" on="1"/>
        <pt x="513" y="567" on="0"/>
        <pt x="424" y="638" on="0"/>
        <pt x="350" y="638" on="1"/>
        <pt x="274" y="638" on="0"/>
        <pt x="185" y="568" on="0"/>
        <pt x="185" y="511" on="1"/>
        <pt x="185" y="454" on="0"/>
        <pt x="276" y="387" on="0"/>
      </contour>
      <contour>
        <pt x="350" y="59" on="1"/>
        <pt x="431" y="59" on="0"/>
        <pt x="527" y="127" on="0"/>
        <pt x="527" y="187" on="1"/>
        <pt x="527" y="244" on="0"/>
        <pt x="428" y="315" on="0"/>
        <pt x="350" y="315" on="1"/>
        <pt x="269" y="315" on="0"/>
        <pt x="171" y="246" on="0"/>
        <pt x="171" y="187" on="1"/>
        <pt x="171" y="127" on="0"/>
        <pt x="266" y="59" on="0"/>
      </contour>
    </TTGlyph>
    <TTGlyph name="eight.small" xMin="39" yMin="-12" xMax="395" yMax="413">
      <contour>
        <pt x="217" y="-12" on="1"/>
        <pt x="128" y="-12" on="0"/>
        <pt x="39" y="51" on="0"/>
        <pt x="39" y="103" on="1"/>
        <pt x="39" y="140" on="0"/>
        <pt x="85" y="190" on="0"/>
        <pt x="131" y="203" on="1"/>
        <pt x="89" y="214" on="0"/>
        <pt x="49" y="260" on="0"/>
        <pt x="49" y="296" on="1"/>
        <pt x="49" y="347" on="0"/>
        <pt x="136" y="413" on="0"/>
        <pt x="217" y="413" on="1"/>
        <pt x="298" y="413" on="0"/>
        <pt x="385" y="347" on="0"/>
        <pt x="385" y="296" on="1"/>
        <pt x="385" y="260" on="0"/>
        <pt x="345" y="214" on="0"/>
        <pt x="303" y="203" on="1"/>
        <pt x="349" y="190" on="0"/>
        <pt x="395" y="140" on="0"/>
        <pt x="395" y="103" on="1"/>
        <pt x="395" y="51" on="0"/>
        <pt x="306" y="-12" on="0"/>
      </contour>
      <contour>
        <pt x="217" y="229" on="1"/>
        <pt x="261" y="229" on="0"/>
        <pt x="309" y="259" on="0"/>
        <pt x="309" y="287" on="1"/>
        <pt x="309" y="317" on="0"/>
        <pt x="262" y="351" on="0"/>
        <pt x="217" y="351" on="1"/>
        <pt x="172" y="351" on="0"/>
        <pt x="125" y="317" on="0"/>
        <pt x="125" y="287" on="1"/>
        <pt x="125" y="259" on="0"/>
        <pt x="173" y="229" on="0"/>
      </contour>
      <contour>
        <pt x="217" y="49" on="1"/>
        <pt x="266" y="49" on="0"/>
        <pt x="317" y="84" on="0"/>
        <pt x="317" y="113" on="1"/>
        <pt x="317" y="142" on="0"/>
        <pt x="263" y="176" on="0"/>
        <pt x="217" y="176" on="1"/>
        <pt x="171" y="176" on="0"/>
        <pt x="117" y="142" on="0"/>
        <pt x="117" y="113" on="1"/>
        <pt x="117" y="84" on="0"/>
        <pt x="168" y="49" on="0"/>
      </contour>
    </TTGlyph>
    <TTGlyph name="eight.sup" xMin="59" yMin="340" xMax="415" yMax="765">
      <component glyphName="eight.small" x="20" y="352" flags="0x4"/>
    </TTGlyph>
    <TTGlyph name="eight.tab" xMin="64" yMin="-22" xMax="660" yMax="719">
      <contour>
        <pt x="363" y="-22" on="1"/>
        <pt x="214" y="-22" on="0"/>
        <pt x="64" y="89" on="0"/>
        <pt x="64" y="177" on="1"/>
        <pt x="64" y="243" on="0"/>
        <pt x="147" y="330" on="0"/>
        <pt x="222" y="352" on="1"/>
        <pt x="155" y="371" on="0"/>
        <pt x="80" y="453" on="0"/>
        <pt x="80" y="516" on="1"/>
        <pt x="80" y="559" on="0"/>
        <pt x="116" y="633" on="0"/>
        <pt x="187" y="688" on="0"/>
        <pt x="294" y="719" on="0"/>
        <pt x="363" y="719" on="1"/>
        <pt x="432" y="719" on="0"/>
        <pt x="537" y="687" on="0"/>
        <pt x="608" y="633" on="0"/>
        <pt x="644" y="559" on="0"/>
        <pt x="644" y="516" on="1"/>
        <pt x="644" y="453" on="0"/>
        <pt x="569" y="371" on="0"/>
        <pt x="502" y="352" on="1"/>
        <pt x="577" y="330" on="0"/>
        <pt x="660" y="243" on="0"/>
        <pt x="660" y="177" on="1"/>
        <pt x="660" y="89" on="0"/>
        <pt x="512" y="-22" on="0"/>
      </contour>
      <contour>
        <pt x="363" y="388" on="1"/>
        <pt x="441" y="388" on="0"/>
        <pt x="540" y="450" on="0"/>
        <pt x="540" y="510" on="1"/>
        <pt x="540" y="567" on="0"/>
        <pt x="445" y="636" on="0"/>
        <pt x="363" y="636" on="1"/>
        <pt x="279" y="636" on="0"/>
        <pt x="184" y="568" on="0"/>
        <pt x="184" y="510" on="1"/>
        <pt x="184" y="450" on="0"/>
        <pt x="284" y="388" on="0"/>
      </contour>
      <contour>
        <pt x="363" y="61" on="1"/>
        <pt x="454" y="61" on="0"/>
        <pt x="555" y="129" on="0"/>
        <pt x="555" y="187" on="1"/>
        <pt x="555" y="248" on="0"/>
        <pt x="447" y="314" on="0"/>
        <pt x="363" y="314" on="1"/>
        <pt x="278" y="314" on="0"/>
        <pt x="169" y="250" on="0"/>
        <pt x="169" y="187" on="1"/>
        <pt x="169" y="129" on="0"/>
        <pt x="270" y="61" on="0"/>
      </contour>
    </TTGlyph>
    <TTGlyph name="ellipsis" xMin="108" yMin="-12" xMax="1011" yMax="136">
      <component glyphName="period" x="0" y="0" flags="0x4"/>
      <component glyphName="period" x="373" y="0" flags="0x4"/>
      <component glyphName="period" x="746" y="0" flags="0x4"/>
    </TTGlyph>
    <TTGlyph name="emacron" xMin="58" yMin="-14" xMax="589" yMax="738">
      <component glyphName="e" x="0" y="0" flags="0x204"/>
      <component glyphName="macron" x="88" y="15" flags="0x4"/>
    </TTGlyph>
    <TTGlyph name="emacron.sc" xMin="118" yMin="0" xMax="629" yMax="773">
      <component glyphName="e.sc" x="0" y="0" flags="0x204"/>
      <component glyphName="macron" x="120" y="50" flags="0x4"/>
    </TTGlyph>
    <TTGlyph name="emdash" xMin="81" yMin="272" xMax="779" yMax="365">
      <contour>
        <pt x="81" y="272" on="1"/>
        <pt x="81" y="365" on="1"/>
        <pt x="779" y="365" on="1"/>
        <pt x="779" y="272" on="1"/>
      </contour>
    </TTGlyph>
    <TTGlyph name="emdash.cap" xMin="81" yMin="303" xMax="779" yMax="396">
      <component glyphName="emdash" x="0" y="31" flags="0x4"/>
    </TTGlyph>
    <TTGlyph name="endash" xMin="81" yMin="272" xMax="622" yMax="365">
      <contour>
        <pt x="81" y="272" on="1"/>
        <pt x="81" y="365" on="1"/>
        <pt x="622" y="365" on="1"/>
        <pt x="622" y="272" on="1"/>
      </contour>
    </TTGlyph>
    <TTGlyph name="endash.cap" xMin="81" yMin="303" xMax="622" yMax="396">
      <component glyphName="endash" x="0" y="31" flags="0x4"/>
    </TTGlyph>
    <TTGlyph name="endash.tab" xMin="78" yMin="303" xMax="646" yMax="397">
      <contour>
        <pt x="78" y="303" on="1"/>
        <pt x="78" y="397" on="1"/>
        <pt x="646" y="397" on="1"/>
        <pt x="646" y="303" on="1"/>
      </contour>
    </TTGlyph>
    <TTGlyph name="eogonek" xMin="58" yMin="-299" xMax="589" yMax="547">
      <contour>
        <pt x="352" y="-14" on="1"/>
        <pt x="279" y="-14" on="0"/>
        <pt x="169" y="27" on="0"/>
        <pt x="95" y="98" on="0"/>
        <pt x="58" y="197" on="0"/>
        <pt x="58" y="255" on="1"/>
        <pt x="58" y="317" on="0"/>
        <pt x="98" y="425" on="0"/>
        <pt x="170" y="503" on="0"/>
        <pt x="273" y="547" on="0"/>
        <pt x="336" y="547" on="1"/>
        <pt x="402" y="547" on="0"/>
        <pt x="498" y="503" on="0"/>
        <pt x="559" y="429" on="0"/>
        <pt x="589" y="329" on="0"/>
        <pt x="589" y="274" on="1"/>
        <pt x="589" y="267" on="0"/>
        <pt x="588" y="250" on="0"/>
        <pt x="587" y="243" on="1"/>
        <pt x="156" y="243" on="1"/>
        <pt x="161" y="162" on="0"/>
        <pt x="265" y="70" on="0"/>
        <pt x="356" y="70" on="1"/>
        <pt x="413" y="70" on="0"/>
        <pt x="513" y="103" on="0"/>
        <pt x="560" y="133" on="1"/>
        <pt x="561" y="133" on="1"/>
        <pt x="561" y="43" on="1"/>
        <pt x="526" y="0" on="1"/>
        <pt x="461" y="-69" on="0"/>
        <pt x="412" y="-141" on="0"/>
        <pt x="412" y="-172" on="1"/>
        <pt x="412" y="-197" on="0"/>
        <pt x="453" y="-223" on="0"/>
        <pt x="487" y="-223" on="1"/>
        <pt x="505" y="-223" on="0"/>
        <pt x="550" y="-214" on="0"/>
        <pt x="572" y="-204" on="1"/>
        <pt x="572" y="-280" on="1"/>
        <pt x="547" y="-290" on="0"/>
        <pt x="497" y="-299" on="0"/>
        <pt x="468" y="-299" on="1"/>
        <pt x="425" y="-299" on="0"/>
        <pt x="368" y="-279" on="0"/>
        <pt x="334" y="-248" on="0"/>
        <pt x="320" y="-209" on="0"/>
        <pt x="320" y="-189" on="1"/>
        <pt x="320" y="-143" on="0"/>
        <pt x="387" y="-56" on="0"/>
        <pt x="441" y="-4" on="1"/>
        <pt x="420" y="-8" on="0"/>
        <pt x="375" y="-14" on="0"/>
      </contour>
      <contour>
        <pt x="334" y="465" on="1"/>
        <pt x="265" y="465" on="0"/>
        <pt x="173" y="381" on="0"/>
        <pt x="160" y="311" on="1"/>
        <pt x="494" y="311" on="1"/>
        <pt x="490" y="374" on="0"/>
        <pt x="412" y="465" on="0"/>
      </contour>
    </TTGlyph>
    <TTGlyph name="eogonek.sc" xMin="118" yMin="-289" xMax="654" yMax="582">
      <contour>
        <pt x="118" y="0" on="1"/>
        <pt x="118" y="582" on="1"/>
        <pt x="610" y="582" on="1"/>
        <pt x="614" y="497" on="1"/>
        <pt x="218" y="497" on="1"/>
        <pt x="218" y="337" on="1"/>
        <pt x="539" y="337" on="1"/>
        <pt x="539" y="254" on="1"/>
        <pt x="218" y="254" on="1"/>
        <pt x="218" y="86" on="1"/>
        <pt x="629" y="86" on="1"/>
        <pt x="625" y="0" on="1"/>
        <pt x="568" y="-55" on="1"/>
        <pt x="526" y="-97" on="0"/>
        <pt x="493" y="-141" on="0"/>
        <pt x="493" y="-163" on="1"/>
        <pt x="493" y="-188" on="0"/>
        <pt x="533" y="-214" on="0"/>
        <pt x="567" y="-214" on="1"/>
        <pt x="586" y="-214" on="0"/>
        <pt x="632" y="-203" on="0"/>
        <pt x="654" y="-190" on="1"/>
        <pt x="654" y="-268" on="1"/>
        <pt x="628" y="-278" on="0"/>
        <pt x="579" y="-289" on="0"/>
        <pt x="548" y="-289" on="1"/>
        <pt x="464" y="-289" on="0"/>
        <pt x="401" y="-220" on="0"/>
        <pt x="401" y="-180" on="1"/>
        <pt x="401" y="-140" on="0"/>
        <pt x="454" y="-65" on="0"/>
        <pt x="505" y="-18" on="1"/>
        <pt x="525" y="0" on="1"/>
      </contour>
    </TTGlyph>
    <TTGlyph name="equal" xMin="117" yMin="170" xMax="651" yMax="530">
      <contour>
        <pt x="117" y="442" on="1"/>
        <pt x="117" y="530" on="1"/>
        <pt x="651" y="530" on="1"/>
        <pt x="651" y="442" on="1"/>
      </contour>
      <contour>
        <pt x="117" y="170" on="1"/>
        <pt x="117" y="258" on="1"/>
        <pt x="651" y="258" on="1"/>
        <pt x="651" y="170" on="1"/>
      </contour>
    </TTGlyph>
    <TTGlyph name="equal.tab" xMin="97" yMin="170" xMax="631" yMax="530">
      <component glyphName="equal" x="-20" y="0" flags="0x4"/>
    </TTGlyph>
    <TTGlyph name="eth" xMin="55" yMin="-15" xMax="611" yMax="751">
      <contour>
        <pt x="330" y="-15" on="1"/>
        <pt x="270" y="-15" on="0"/>
        <pt x="168" y="21" on="0"/>
        <pt x="96" y="87" on="0"/>
        <pt x="55" y="181" on="0"/>
        <pt x="55" y="238" on="1"/>
        <pt x="55" y="301" on="0"/>
        <pt x="100" y="398" on="0"/>
        <pt x="174" y="463" on="0"/>
        <pt x="270" y="497" on="0"/>
        <pt x="320" y="497" on="1"/>
        <pt x="382" y="497" on="0"/>
        <pt x="478" y="449" on="0"/>
        <pt x="509" y="409" on="1"/>
        <pt x="493" y="466" on="0"/>
        <pt x="435" y="564" on="0"/>
        <pt x="388" y="610" on="1"/>
        <pt x="213" y="547" on="1"/>
        <pt x="213" y="613" on="1"/>
        <pt x="333" y="657" on="1"/>
        <pt x="305" y="679" on="0"/>
        <pt x="237" y="722" on="0"/>
        <pt x="197" y="744" on="1"/>
        <pt x="197" y="750" on="1"/>
        <pt x="324" y="750" on="1"/>
        <pt x="349" y="737" on="0"/>
        <pt x="398" y="706" on="0"/>
        <pt x="420" y="688" on="1"/>
        <pt x="593" y="751" on="1"/>
        <pt x="593" y="684" on="1"/>
        <pt x="472" y="640" on="1"/>
        <pt x="535" y="575" on="0"/>
        <pt x="611" y="402" on="0"/>
        <pt x="611" y="301" on="1"/>
        <pt x="611" y="226" on="0"/>
        <pt x="569" y="108" on="0"/>
        <pt x="495" y="28" on="0"/>
        <pt x="392" y="-15" on="0"/>
      </contour>
      <contour>
        <pt x="155" y="241" on="1"/>
        <pt x="155" y="160" on="0"/>
        <pt x="258" y="70" on="0"/>
        <pt x="331" y="70" on="1"/>
        <pt x="419" y="70" on="0"/>
        <pt x="514" y="195" on="0"/>
        <pt x="514" y="292" on="1"/>
        <pt x="514" y="300" on="0"/>
        <pt x="513" y="319" on="0"/>
        <pt x="512" y="328" on="1"/>
        <pt x="487" y="371" on="0"/>
        <pt x="390" y="419" on="0"/>
        <pt x="336" y="419" on="1"/>
        <pt x="301" y="419" on="0"/>
        <pt x="235" y="397" on="0"/>
        <pt x="185" y="353" on="0"/>
        <pt x="155" y="286" on="0"/>
      </contour>
    </TTGlyph>
    <TTGlyph name="eth.sc" xMin="46" yMin="0" xMax="728" yMax="582">
      <contour>
        <pt x="146" y="0" on="1"/>
        <pt x="146" y="257" on="1"/>
        <pt x="46" y="257" on="1"/>
        <pt x="53" y="332" on="1"/>
        <pt x="146" y="332" on="1"/>
        <pt x="146" y="582" on="1"/>
        <pt x="422" y="582" on="1"/>
        <pt x="568" y="582" on="0"/>
        <pt x="728" y="426" on="0"/>
        <pt x="728" y="292" on="1"/>
        <pt x="728" y="158" on="0"/>
        <pt x="568" y="0" on="0"/>
        <pt x="422" y="0" on="1"/>
      </contour>
      <contour>
        <pt x="246" y="87" on="1"/>
        <pt x="412" y="87" on="1"/>
        <pt x="520" y="87" on="0"/>
        <pt x="626" y="191" on="0"/>
        <pt x="626" y="290" on="1"/>
        <pt x="626" y="389" on="0"/>
        <pt x="520" y="496" on="0"/>
        <pt x="412" y="496" on="1"/>
        <pt x="246" y="496" on="1"/>
        <pt x="246" y="332" on="1"/>
        <pt x="425" y="332" on="1"/>
        <pt x="425" y="257" on="1"/>
        <pt x="246" y="257" on="1"/>
      </contour>
    </TTGlyph>
    <TTGlyph name="exclam" xMin="117" yMin="-12" xMax="273" yMax="700">
      <contour>
        <pt x="156" y="240" on="1"/>
        <pt x="128" y="698" on="1"/>
        <pt x="128" y="700" on="1"/>
        <pt x="262" y="700" on="1"/>
        <pt x="262" y="698" on="1"/>
        <pt x="234" y="240" on="1"/>
      </contour>
      <contour>
        <pt x="195" y="-12" on="1"/>
        <pt x="157" y="-12" on="0"/>
        <pt x="117" y="33" on="0"/>
        <pt x="117" y="62" on="1"/>
        <pt x="117" y="63" on="1"/>
        <pt x="117" y="91" on="0"/>
        <pt x="157" y="136" on="0"/>
        <pt x="195" y="136" on="1"/>
        <pt x="233" y="136" on="0"/>
        <pt x="273" y="91" on="0"/>
        <pt x="273" y="63" on="1"/>
        <pt x="273" y="62" on="1"/>
        <pt x="273" y="33" on="0"/>
        <pt x="233" y="-12" on="0"/>
      </contour>
    </TTGlyph>
    <TTGlyph name="exclamdown" xMin="117" yMin="-164" xMax="273" yMax="547">
      <contour>
        <pt x="195" y="547" on="1"/>
        <pt x="233" y="547" on="0"/>
        <pt x="273" y="502" on="0"/>
        <pt x="273" y="474" on="1"/>
        <pt x="273" y="473" on="1"/>
        <pt x="273" y="444" on="0"/>
        <pt x="233" y="400" on="0"/>
        <pt x="195" y="400" on="1"/>
        <pt x="157" y="400" on="0"/>
        <pt x="117" y="444" on="0"/>
        <pt x="117" y="473" on="1"/>
        <pt x="117" y="474" on="1"/>
        <pt x="117" y="502" on="0"/>
        <pt x="157" y="547" on="0"/>
      </contour>
      <contour>
        <pt x="234" y="296" on="1"/>
        <pt x="262" y="-163" on="1"/>
        <pt x="262" y="-164" on="1"/>
        <pt x="128" y="-164" on="1"/>
        <pt x="128" y="-163" on="1"/>
        <pt x="156" y="296" on="1"/>
      </contour>
    </TTGlyph>
    <TTGlyph name="exclamdown.cap" xMin="117" yMin="0" xMax="273" yMax="712">
      <contour>
        <pt x="195" y="712" on="1"/>
        <pt x="233" y="712" on="0"/>
        <pt x="273" y="667" on="0"/>
        <pt x="273" y="638" on="1"/>
        <pt x="273" y="637" on="1"/>
        <pt x="273" y="609" on="0"/>
        <pt x="233" y="564" on="0"/>
        <pt x="195" y="564" on="1"/>
        <pt x="157" y="564" on="0"/>
        <pt x="117" y="609" on="0"/>
        <pt x="117" y="637" on="1"/>
        <pt x="117" y="638" on="1"/>
        <pt x="117" y="667" on="0"/>
        <pt x="157" y="712" on="0"/>
      </contour>
      <contour>
        <pt x="234" y="460" on="1"/>
        <pt x="262" y="2" on="1"/>
        <pt x="262" y="0" on="1"/>
        <pt x="128" y="0" on="1"/>
        <pt x="128" y="2" on="1"/>
        <pt x="156" y="460" on="1"/>
      </contour>
    </TTGlyph>
    <TTGlyph name="f" xMin="35" yMin="0" xMax="407" yMax="765">
      <contour>
        <pt x="144" y="0" on="1"/>
        <pt x="144" y="450" on="1"/>
        <pt x="35" y="450" on="1"/>
        <pt x="52" y="532" on="1"/>
        <pt x="144" y="532" on="1"/>
        <pt x="144" y="561" on="1"/>
        <pt x="144" y="654" on="0"/>
        <pt x="226" y="765" on="0"/>
        <pt x="316" y="765" on="1"/>
        <pt x="339" y="765" on="0"/>
        <pt x="380" y="758" on="0"/>
        <pt x="400" y="751" on="1"/>
        <pt x="400" y="667" on="1"/>
        <pt x="399" y="667" on="1"/>
        <pt x="382" y="674" on="0"/>
        <pt x="350" y="681" on="0"/>
        <pt x="332" y="681" on="1"/>
        <pt x="286" y="681" on="0"/>
        <pt x="243" y="624" on="0"/>
        <pt x="243" y="570" on="1"/>
        <pt x="243" y="532" on="1"/>
        <pt x="407" y="532" on="1"/>
        <pt x="407" y="450" on="1"/>
        <pt x="243" y="450" on="1"/>
        <pt x="243" y="0" on="1"/>
      </contour>
    </TTGlyph>
    <TTGlyph name="f.sc" xMin="118" yMin="0" xMax="607" yMax="582">
      <contour>
        <pt x="118" y="0" on="1"/>
        <pt x="118" y="582" on="1"/>
        <pt x="602" y="582" on="1"/>
        <pt x="607" y="496" on="1"/>
        <pt x="218" y="496" on="1"/>
        <pt x="218" y="327" on="1"/>
        <pt x="544" y="327" on="1"/>
        <pt x="544" y="240" on="1"/>
        <pt x="218" y="240" on="1"/>
        <pt x="218" y="0" on="1"/>
      </contour>
    </TTGlyph>
    <TTGlyph name="five" xMin="77" yMin="-16" xMax="634" yMax="700">
      <contour>
        <pt x="343" y="-16" on="1"/>
        <pt x="286" y="-16" on="0"/>
        <pt x="145" y="9" on="0"/>
        <pt x="77" y="34" on="1"/>
        <pt x="77" y="133" on="1"/>
        <pt x="78" y="133" on="1"/>
        <pt x="150" y="103" on="0"/>
        <pt x="287" y="74" on="0"/>
        <pt x="340" y="74" on="1"/>
        <pt x="391" y="74" on="0"/>
        <pt x="462" y="97" on="0"/>
        <pt x="507" y="135" on="0"/>
        <pt x="527" y="183" on="0"/>
        <pt x="527" y="207" on="1"/>
        <pt x="527" y="230" on="0"/>
        <pt x="514" y="266" on="0"/>
        <pt x="500" y="280" on="1"/>
        <pt x="475" y="304" on="0"/>
        <pt x="368" y="329" on="0"/>
        <pt x="250" y="329" on="1"/>
        <pt x="104" y="329" on="1"/>
        <pt x="114" y="700" on="1"/>
        <pt x="591" y="700" on="1"/>
        <pt x="595" y="609" on="1"/>
        <pt x="206" y="609" on="1"/>
        <pt x="200" y="419" on="1"/>
        <pt x="281" y="419" on="1"/>
        <pt x="401" y="419" on="0"/>
        <pt x="546" y="384" on="0"/>
        <pt x="588" y="341" on="1"/>
        <pt x="612" y="316" on="0"/>
        <pt x="634" y="250" on="0"/>
        <pt x="634" y="210" on="1"/>
        <pt x="634" y="164" on="0"/>
        <pt x="595" y="82" on="0"/>
        <pt x="522" y="20" on="0"/>
        <pt x="413" y="-16" on="0"/>
      </contour>
    </TTGlyph>
    <TTGlyph name="five.den" xMin="40" yMin="-11" xMax="368" yMax="403">
      <component glyphName="five.small" x="-20" y="0" flags="0x4"/>
    </TTGlyph>
    <TTGlyph name="five.inf" xMin="80" yMin="-201" xMax="408" yMax="213">
      <component glyphName="five.small" x="20" y="-190" flags="0x4"/>
    </TTGlyph>
    <TTGlyph name="five.num" xMin="80" yMin="286" xMax="408" yMax="700">
      <component glyphName="five.small" x="20" y="297" flags="0x4"/>
    </TTGlyph>
    <TTGlyph name="five.osf" xMin="79" yMin="-134" xMax="579" yMax="582">
      <contour>
        <pt x="303" y="-134" on="1"/>
        <pt x="259" y="-134" on="0"/>
        <pt x="142" y="-116" on="0"/>
        <pt x="79" y="-97" on="1"/>
        <pt x="79" y="-5" on="1"/>
        <pt x="80" y="-5" on="1"/>
        <pt x="149" y="-29" on="0"/>
        <pt x="262" y="-47" on="0"/>
        <pt x="302" y="-47" on="1"/>
        <pt x="392" y="-47" on="0"/>
        <pt x="478" y="35" on="0"/>
        <pt x="478" y="88" on="1"/>
        <pt x="478" y="113" on="0"/>
        <pt x="465" y="151" on="0"/>
        <pt x="450" y="165" on="1"/>
        <pt x="425" y="190" on="0"/>
        <pt x="319" y="214" on="0"/>
        <pt x="210" y="214" on="1"/>
        <pt x="105" y="214" on="1"/>
        <pt x="110" y="582" on="1"/>
        <pt x="546" y="582" on="1"/>
        <pt x="550" y="495" on="1"/>
        <pt x="199" y="495" on="1"/>
        <pt x="196" y="298" on="1"/>
        <pt x="280" y="297" on="1"/>
        <pt x="431" y="295" on="0"/>
        <pt x="579" y="193" on="0"/>
        <pt x="579" y="89" on="1"/>
        <pt x="579" y="42" on="0"/>
        <pt x="541" y="-39" on="0"/>
        <pt x="471" y="-99" on="0"/>
        <pt x="368" y="-134" on="0"/>
      </contour>
    </TTGlyph>
    <TTGlyph name="five.small" xMin="60" yMin="-11" xMax="388" yMax="403">
      <contour>
        <pt x="216" y="-11" on="1"/>
        <pt x="170" y="-11" on="0"/>
        <pt x="95" y="5" on="0"/>
        <pt x="60" y="18" on="1"/>
        <pt x="60" y="91" on="1"/>
        <pt x="61" y="91" on="1"/>
        <pt x="95" y="75" on="0"/>
        <pt x="172" y="57" on="0"/>
        <pt x="215" y="57" on="1"/>
        <pt x="267" y="57" on="0"/>
        <pt x="307" y="98" on="0"/>
        <pt x="307" y="120" on="1"/>
        <pt x="307" y="132" on="0"/>
        <pt x="301" y="149" on="0"/>
        <pt x="294" y="156" on="1"/>
        <pt x="281" y="169" on="0"/>
        <pt x="218" y="179" on="0"/>
        <pt x="155" y="179" on="1"/>
        <pt x="71" y="179" on="1"/>
        <pt x="77" y="403" on="1"/>
        <pt x="364" y="403" on="1"/>
        <pt x="368" y="335" on="1"/>
        <pt x="149" y="335" on="1"/>
        <pt x="147" y="241" on="1"/>
        <pt x="184" y="241" on="1"/>
        <pt x="253" y="241" on="0"/>
        <pt x="336" y="222" on="0"/>
        <pt x="359" y="198" on="1"/>
        <pt x="372" y="185" on="0"/>
        <pt x="388" y="147" on="0"/>
        <pt x="388" y="121" on="1"/>
        <pt x="388" y="62" on="0"/>
        <pt x="297" y="-11" on="0"/>
      </contour>
    </TTGlyph>
    <TTGlyph name="five.sup" xMin="80" yMin="341" xMax="408" yMax="755">
      <component glyphName="five.small" x="20" y="352" flags="0x4"/>
    </TTGlyph>
    <TTGlyph name="five.tab" xMin="86" yMin="-16" xMax="647" yMax="700">
      <contour>
        <pt x="356" y="-16" on="1"/>
        <pt x="291" y="-16" on="0"/>
        <pt x="154" y="14" on="0"/>
        <pt x="86" y="44" on="1"/>
        <pt x="86" y="142" on="1"/>
        <pt x="87" y="142" on="1"/>
        <pt x="159" y="109" on="0"/>
        <pt x="292" y="74" on="0"/>
        <pt x="353" y="74" on="1"/>
        <pt x="405" y="74" on="0"/>
        <pt x="476" y="97" on="0"/>
        <pt x="520" y="135" on="0"/>
        <pt x="539" y="183" on="0"/>
        <pt x="539" y="207" on="1"/>
        <pt x="539" y="230" on="0"/>
        <pt x="526" y="266" on="0"/>
        <pt x="512" y="280" on="1"/>
        <pt x="500" y="292" on="0"/>
        <pt x="464" y="310" on="0"/>
        <pt x="406" y="323" on="0"/>
        <pt x="320" y="329" on="0"/>
        <pt x="258" y="329" on="1"/>
        <pt x="109" y="329" on="1"/>
        <pt x="118" y="700" on="1"/>
        <pt x="606" y="700" on="1"/>
        <pt x="610" y="609" on="1"/>
        <pt x="210" y="609" on="1"/>
        <pt x="205" y="419" on="1"/>
        <pt x="289" y="419" on="1"/>
        <pt x="414" y="419" on="0"/>
        <pt x="559" y="384" on="0"/>
        <pt x="600" y="341" on="1"/>
        <pt x="624" y="316" on="0"/>
        <pt x="647" y="250" on="0"/>
        <pt x="647" y="210" on="1"/>
        <pt x="647" y="164" on="0"/>
        <pt x="609" y="82" on="0"/>
        <pt x="536" y="20" on="0"/>
        <pt x="427" y="-16" on="0"/>
      </contour>
    </TTGlyph>
    <TTGlyph name="fiveeighths" xMin="80" yMin="-12" xMax="1065" yMax="700">
      <component glyphName="five.num" x="0" y="0" flags="0x4"/>
      <component glyphName="fraction" x="431" y="0" flags="0x4"/>
      <component glyphName="eight.den" x="690" y="0" flags="0x4"/>
    </TTGlyph>
    <TTGlyph name="fiveeighths.tab" xMin="80" yMin="-12" xMax="1027" yMax="700">
      <component glyphName="five.num" x="0" y="0" flags="0x4"/>
      <component glyphName="fraction.tab" x="436" y="0" flags="0x4"/>
      <component glyphName="eight.den" x="652" y="0" flags="0x4"/>
    </TTGlyph>
    <TTGlyph name="four" xMin="57" yMin="1" xMax="721" yMax="700">
      <contour>
        <pt x="486" y="1" on="1"/>
        <pt x="486" y="170" on="1"/>
        <pt x="57" y="170" on="1"/>
        <pt x="57" y="247" on="1"/>
        <pt x="335" y="700" on="1"/>
        <pt x="583" y="700" on="1"/>
        <pt x="583" y="257" on="1"/>
        <pt x="721" y="257" on="1"/>
        <pt x="717" y="170" on="1"/>
        <pt x="583" y="170" on="1"/>
        <pt x="583" y="1" on="1"/>
      </contour>
      <contour>
        <pt x="486" y="609" on="1"/>
        <pt x="385" y="609" on="1"/>
        <pt x="170" y="257" on="1"/>
        <pt x="486" y="257" on="1"/>
      </contour>
    </TTGlyph>
    <TTGlyph name="four.den" xMin="6" yMin="0" xMax="399" yMax="403">
      <component glyphName="four.small" x="-20" y="0" flags="0x4"/>
    </TTGlyph>
    <TTGlyph name="four.inf" xMin="46" yMin="-190" xMax="439" yMax="213">
      <component glyphName="four.small" x="20" y="-190" flags="0x4"/>
    </TTGlyph>
    <TTGlyph name="four.num" xMin="46" yMin="297" xMax="439" yMax="700">
      <component glyphName="four.small" x="20" y="297" flags="0x4"/>
    </TTGlyph>
    <TTGlyph name="four.osf" xMin="57" yMin="-123" xMax="680" yMax="582">
      <contour>
        <pt x="456" y="-123" on="1"/>
        <pt x="456" y="51" on="1"/>
        <pt x="57" y="51" on="1"/>
        <pt x="57" y="125" on="1"/>
        <pt x="308" y="582" on="1"/>
        <pt x="549" y="582" on="1"/>
        <pt x="549" y="134" on="1"/>
        <pt x="680" y="134" on="1"/>
        <pt x="676" y="51" on="1"/>
        <pt x="549" y="51" on="1"/>
        <pt x="549" y="-123" on="1"/>
      </contour>
      <contour>
        <pt x="164" y="134" on="1"/>
        <pt x="456" y="134" on="1"/>
        <pt x="456" y="494" on="1"/>
        <pt x="361" y="494" on="1"/>
      </contour>
    </TTGlyph>
    <TTGlyph name="four.small" xMin="26" yMin="0" xMax="419" yMax="403">
      <contour>
        <pt x="274" y="0" on="1"/>
        <pt x="274" y="87" on="1"/>
        <pt x="26" y="87" on="1"/>
        <pt x="26" y="148" on="1"/>
        <pt x="155" y="403" on="1"/>
        <pt x="349" y="403" on="1"/>
        <pt x="349" y="153" on="1"/>
        <pt x="419" y="153" on="1"/>
        <pt x="416" y="87" on="1"/>
        <pt x="349" y="87" on="1"/>
        <pt x="349" y="0" on="1"/>
      </contour>
      <contour>
        <pt x="108" y="152" on="1"/>
        <pt x="275" y="152" on="1"/>
        <pt x="275" y="338" on="1"/>
        <pt x="204" y="338" on="1"/>
      </contour>
    </TTGlyph>
    <TTGlyph name="four.sup" xMin="46" yMin="352" xMax="439" yMax="755">
      <component glyphName="four.small" x="20" y="352" flags="0x4"/>
    </TTGlyph>
    <TTGlyph name="four.tab" xMin="45" yMin="1" xMax="695" yMax="700">
      <contour>
        <pt x="473" y="1" on="1"/>
        <pt x="473" y="162" on="1"/>
        <pt x="45" y="162" on="1"/>
        <pt x="45" y="239" on="1"/>
        <pt x="298" y="700" on="1"/>
        <pt x="570" y="700" on="1"/>
        <pt x="570" y="249" on="1"/>
        <pt x="695" y="249" on="1"/>
        <pt x="691" y="162" on="1"/>
        <pt x="570" y="162" on="1"/>
        <pt x="570" y="1" on="1"/>
      </contour>
      <contour>
        <pt x="158" y="249" on="1"/>
        <pt x="473" y="249" on="1"/>
        <pt x="473" y="609" on="1"/>
        <pt x="354" y="609" on="1"/>
      </contour>
    </TTGlyph>
    <TTGlyph name="fraction" xMin="-158" yMin="0" xMax="423" yMax="700">
      <contour>
        <pt x="-158" y="1" on="1"/>
        <pt x="338" y="700" on="1"/>
        <pt x="423" y="700" on="1"/>
        <pt x="423" y="699" on="1"/>
        <pt x="-73" y="0" on="1"/>
        <pt x="-158" y="0" on="1"/>
      </contour>
    </TTGlyph>
    <TTGlyph name="fraction.tab" xMin="-181" yMin="0" xMax="399" yMax="700">
      <contour>
        <pt x="-181" y="1" on="1"/>
        <pt x="314" y="700" on="1"/>
        <pt x="399" y="700" on="1"/>
        <pt x="399" y="699" on="1"/>
        <pt x="-96" y="0" on="1"/>
        <pt x="-181" y="0" on="1"/>
      </contour>
    </TTGlyph>
    <TTGlyph name="g" xMin="38" yMin="-206" xMax="592" yMax="631">
      <contour>
        <pt x="306" y="175" on="1"/>
        <pt x="292" y="175" on="0"/>
        <pt x="264" y="177" on="0"/>
        <pt x="251" y="179" on="1"/>
        <pt x="236" y="99" on="1"/>
        <pt x="416" y="86" on="0"/>
        <pt x="592" y="12" on="0"/>
        <pt x="592" y="-57" on="1"/>
        <pt x="592" y="-85" on="0"/>
        <pt x="559" y="-138" on="0"/>
        <pt x="490" y="-180" on="0"/>
        <pt x="385" y="-206" on="0"/>
        <pt x="313" y="-206" on="1"/>
        <pt x="181" y="-206" on="0"/>
        <pt x="38" y="-132" on="0"/>
        <pt x="38" y="-71" on="1"/>
        <pt x="38" y="-37" on="0"/>
        <pt x="91" y="31" on="0"/>
        <pt x="154" y="58" on="1"/>
        <pt x="183" y="196" on="1"/>
        <pt x="126" y="220" on="0"/>
        <pt x="72" y="306" on="0"/>
        <pt x="72" y="356" on="1"/>
        <pt x="72" y="393" on="0"/>
        <pt x="102" y="463" on="0"/>
        <pt x="161" y="515" on="0"/>
        <pt x="251" y="547" on="0"/>
        <pt x="310" y="547" on="1"/>
        <pt x="337" y="547" on="0"/>
        <pt x="382" y="540" on="0"/>
        <pt x="401" y="534" on="1"/>
        <pt x="463" y="631" on="1"/>
        <pt x="573" y="631" on="1"/>
        <pt x="573" y="630" on="1"/>
        <pt x="467" y="502" on="1"/>
        <pt x="502" y="478" on="0"/>
        <pt x="542" y="405" on="0"/>
        <pt x="542" y="362" on="1"/>
        <pt x="542" y="325" on="0"/>
        <pt x="512" y="257" on="0"/>
        <pt x="453" y="205" on="0"/>
        <pt x="364" y="175" on="0"/>
      </contour>
      <contour>
        <pt x="307" y="247" on="1"/>
        <pt x="368" y="247" on="0"/>
        <pt x="448" y="309" on="0"/>
        <pt x="448" y="363" on="1"/>
        <pt x="448" y="414" on="0"/>
        <pt x="370" y="475" on="0"/>
        <pt x="310" y="475" on="1"/>
        <pt x="247" y="475" on="0"/>
        <pt x="167" y="411" on="0"/>
        <pt x="167" y="359" on="1"/>
        <pt x="167" y="306" on="0"/>
        <pt x="245" y="247" on="0"/>
      </contour>
      <contour>
        <pt x="321" y="-135" on="1"/>
        <pt x="402" y="-135" on="0"/>
        <pt x="500" y="-94" on="0"/>
        <pt x="500" y="-63" on="1"/>
        <pt x="500" y="-25" on="0"/>
        <pt x="339" y="19" on="0"/>
        <pt x="190" y="26" on="1"/>
        <pt x="153" y="8" on="0"/>
        <pt x="122" y="-30" on="0"/>
        <pt x="122" y="-52" on="1"/>
        <pt x="122" y="-73" on="0"/>
        <pt x="153" y="-104" on="0"/>
        <pt x="207" y="-124" on="0"/>
        <pt x="280" y="-135" on="0"/>
      </contour>
    </TTGlyph>
    <TTGlyph name="g.sc" xMin="73" yMin="-16" xMax="706" yMax="595">
      <contour>
        <pt x="398" y="-16" on="1"/>
        <pt x="319" y="-16" on="0"/>
        <pt x="196" y="31" on="0"/>
        <pt x="115" y="112" on="0"/>
        <pt x="73" y="222" on="0"/>
        <pt x="73" y="285" on="1"/>
        <pt x="73" y="350" on="0"/>
        <pt x="119" y="463" on="0"/>
        <pt x="204" y="547" on="0"/>
        <pt x="329" y="595" on="0"/>
        <pt x="408" y="595" on="1"/>
        <pt x="484" y="595" on="0"/>
        <pt x="605" y="552" on="0"/>
        <pt x="644" y="521" on="1"/>
        <pt x="644" y="422" on="1"/>
        <pt x="643" y="422" on="1"/>
        <pt x="598" y="455" on="0"/>
        <pt x="480" y="506" on="0"/>
        <pt x="405" y="506" on="1"/>
        <pt x="301" y="506" on="0"/>
        <pt x="176" y="382" on="0"/>
        <pt x="176" y="286" on="1"/>
        <pt x="176" y="193" on="0"/>
        <pt x="291" y="71" on="0"/>
        <pt x="404" y="71" on="1"/>
        <pt x="499" y="71" on="0"/>
        <pt x="607" y="167" on="0"/>
        <pt x="608" y="243" on="1"/>
        <pt x="371" y="243" on="1"/>
        <pt x="371" y="325" on="1"/>
        <pt x="705" y="325" on="1"/>
        <pt x="706" y="317" on="0"/>
        <pt x="706" y="290" on="0"/>
        <pt x="706" y="281" on="1"/>
        <pt x="706" y="203" on="0"/>
        <pt x="656" y="90" on="0"/>
        <pt x="572" y="18" on="0"/>
        <pt x="460" y="-16" on="0"/>
      </contour>
    </TTGlyph>
    <TTGlyph name="gbreve" xMin="38" yMin="-206" xMax="592" yMax="826">
      <component glyphName="g" x="0" y="0" flags="0x204"/>
      <component glyphName="breve" x="45" y="15" flags="0x4"/>
    </TTGlyph>
    <TTGlyph name="gbreve.sc" xMin="73" yMin="-16" xMax="706" yMax="873">
      <component glyphName="g.sc" x="0" y="0" flags="0x204"/>
      <component glyphName="breve" x="142" y="62" flags="0x4"/>
    </TTGlyph>
    <TTGlyph name="gdotaccent" xMin="38" yMin="-206" xMax="592" yMax="766">
      <component glyphName="g" x="0" y="0" flags="0x204"/>
      <component glyphName="dotaccent" x="45" y="15" flags="0x4"/>
    </TTGlyph>
    <TTGlyph name="gdotaccent.sc" xMin="73" yMin="-16" xMax="706" yMax="813">
      <component glyphName="g.sc" x="0" y="0" flags="0x204"/>
      <component glyphName="dotaccent" x="143" y="62" flags="0x4"/>
    </TTGlyph>
    <TTGlyph name="germandbls" xMin="35" yMin="-16" xMax="702" yMax="763">
      <contour>
        <pt x="35" y="450" on="1"/>
        <pt x="52" y="532" on="1"/>
        <pt x="149" y="532" on="1"/>
        <pt x="168" y="652" on="0"/>
        <pt x="312" y="763" on="0"/>
        <pt x="415" y="763" on="1"/>
        <pt x="505" y="763" on="0"/>
        <pt x="639" y="677" on="0"/>
        <pt x="682" y="597" on="1"/>
        <pt x="499" y="403" on="1"/>
        <pt x="540" y="382" on="1"/>
        <pt x="613" y="344" on="0"/>
        <pt x="702" y="261" on="0"/>
        <pt x="702" y="186" on="1"/>
        <pt x="702" y="98" on="0"/>
        <pt x="580" y="-16" on="0"/>
        <pt x="484" y="-16" on="1"/>
        <pt x="451" y="-16" on="0"/>
        <pt x="384" y="-3" on="0"/>
        <pt x="346" y="12" on="1"/>
        <pt x="346" y="100" on="1"/>
        <pt x="347" y="100" on="1"/>
        <pt x="381" y="84" on="0"/>
        <pt x="448" y="66" on="0"/>
        <pt x="480" y="66" on="1"/>
        <pt x="540" y="66" on="0"/>
        <pt x="608" y="133" on="0"/>
        <pt x="608" y="182" on="1"/>
        <pt x="608" y="231" on="0"/>
        <pt x="538" y="287" on="0"/>
        <pt x="454" y="326" on="1"/>
        <pt x="401" y="350" on="1"/>
        <pt x="399" y="412" on="1"/>
        <pt x="568" y="598" on="1"/>
        <pt x="535" y="643" on="0"/>
        <pt x="454" y="680" on="0"/>
        <pt x="416" y="680" on="1"/>
        <pt x="384" y="680" on="0"/>
        <pt x="322" y="660" on="0"/>
        <pt x="273" y="609" on="0"/>
        <pt x="243" y="522" on="0"/>
        <pt x="243" y="455" on="1"/>
        <pt x="243" y="0" on="1"/>
        <pt x="144" y="0" on="1"/>
        <pt x="144" y="450" on="1"/>
      </contour>
    </TTGlyph>
</ttFont>
